<?xml version="1.0" encoding="UTF-8"?>
<!DOCTYPE svg PUBLIC "-//W3C//DTD SVG 1.1//EN" "http://www.w3.org/Graphics/SVG/1.1/DTD/svg11.dtd">
<!-- Creator: CorelDRAW 2021 (64-Bit) -->
<svg xmlns="http://www.w3.org/2000/svg" xml:space="preserve" width="28.7866mm" height="34.7132mm" version="1.1" style="shape-rendering:geometricPrecision; text-rendering:geometricPrecision; image-rendering:optimizeQuality; fill-rule:evenodd; clip-rule:evenodd"
viewBox="0 0 2878.66 3471.32"
 xmlns:xlink="http://www.w3.org/1999/xlink"
 xmlns:xodm="http://www.corel.com/coreldraw/odm/2003">
 <defs>
  <style type="text/css">
   <![CDATA[
    .fil0 {fill:#663333;fill-rule:nonzero;fill-opacity:0.058824}
   ]]>
  </style>
 </defs>
 <g id="Layer_x0020_1">
  <metadata id="CorelCorpID_0Corel-Layer"/>
  <g id="folha2-removebg-preview.svg">
   <g>
    <path class="fil0" d="M10.63 693.94c2.05,0.89 46.72,-15.63 100.54,-36.33 57.76,-22.26 113.52,-38.04 136.9,-39.32 43.13,-1.69 59.61,5.45 129.73,56.23 29.68,21.84 45.08,27.7 108.87,42.3 83.52,19.9 128.61,41.89 160.57,81.02 24.05,29.17 49.49,77.71 45.62,86.63 -1.49,3.44 -18.46,-0.66 -38.37,-9.29 -27.46,-11.9 -42.92,-25.13 -69.89,-58.84 -32.06,-40.8 -31.33,-27.44 1,18.38 8.01,11.62 13.27,22.06 12.08,24.8 -2.38,5.49 -59.88,-10.46 -101.06,-28.32 -30.89,-13.38 -41.56,-24.53 -94.29,-100.39 -2.63,-5.21 -6.45,-7.68 -7.35,-5.63 -0.59,1.38 9.54,21.26 23.2,44.3 22.63,39.98 23.41,41.95 5.14,38.92 -45.55,-5.88 -89.16,-31.31 -121.03,-68.77 -25.81,-30.75 -29.33,-33.91 -19.59,-15.01 6.73,12.7 16.77,30.91 22.33,40.66l10.64 16.85 -33.98 21.96c-51.81,32.98 -57.23,37.97 -38.74,32.94 8.55,-2.81 19.58,-9.45 24.62,-15.41 18.26,-21.44 72.7,-24.76 115.85,-7.68 21.58,8.54 41.18,17.85 41.67,20.5 2.63,5.22 -60.79,64.98 -81.86,77.86 -6.5,3.71 0.09,1.67 15.45,-5.54 16.04,-6.91 29.63,-15.69 31.41,-19.81 1.49,-3.43 18.33,-14.07 36.64,-22.44 31.01,-15.1 35.72,-14.68 83.88,2.11l51.6 18.29 -26.8 18.55c-28.08,19.63 -54.3,42.51 -59.15,51.83 -1.49,3.43 -16.36,13.29 -32.61,22.55l-29.54 17.36 25.97 -9.12c14.46,-5.15 34.94,-16.66 45.19,-25.26 69.11,-59.74 114.65,-72.61 183.52,-50.91l42.58 12.74 -24.53 17.09c-12.91,9.09 -38.15,31.58 -55.61,49.29 -40.25,42.07 -82.35,56.43 -136.24,45.31 -22.38,-4.81 -61.96,-5.66 -87.52,-1.25 -66.45,10.34 -85.76,0.34 -139,-72.48 -40.54,-55.08 -46.9,-61.09 -88.08,-78.95 -52.17,-22.61 -69.97,-41.74 -107.79,-114.39 -14.22,-27.37 -27.88,-50.41 -29.94,-51.3 -2.75,-1.19 -3.25,1.85 -1.01,6.08 65.95,133.77 68.49,137.32 127.52,162.91 41.88,18.15 61.73,38.17 109.48,108.6 34.66,51.72 61.13,64.01 119.62,55.12 23.89,-4.33 62.1,-4.07 85.07,-0.64 80.41,12.03 97.52,6.4 174.71,-58.81 41.69,-34.11 60.2,-44.84 83.88,-46.8 29.68,-2.63 30.37,-2.33 71.48,32.61 40.43,34.65 112.06,125.22 97.92,123.98 -3.73,-0.8 -22.83,-13.16 -42.12,-28.85 -37.8,-29.43 -56.54,-35.11 -28.26,-8.18 9.2,8.88 21.92,20.92 27.98,27.62 6.07,6.71 14.96,16.27 19.87,20.03 4.59,4.43 -2.47,3.82 -15.82,-1.15 -24.62,-9.04 -24.62,-9.04 -7.78,4.78 9.5,8.19 28.33,15.54 44.53,17.67 16.2,2.13 40.82,11.17 55.71,20.07 22.45,12.18 27.85,12.89 28.37,4.15 0.03,-5.7 -6.4,-19.09 -14.32,-29.04 -8.6,-10.25 -23.19,-44.3 -33.67,-76.57 -16.29,-52.72 -50.6,-116.52 -60.14,-113.32 -4.24,2.25 14.82,50.46 44.81,114.83 10.62,22.54 16.33,41.32 13.38,42.49 -5.21,2.63 -85.34,-102.22 -97.02,-126.04 -3.02,-6.2 -19.54,-26.41 -36.66,-45.25 -43.81,-47.53 -107.61,-203.2 -100.94,-246.78 6.06,-42.22 29.2,-78.67 83.34,-130.21 42.7,-40.2 47.35,-47.15 74.15,-114.63l28.98 -70.61 39.56 -17.91c74.9,-33.58 87.76,-55.74 91.34,-161.81 2.06,-48.03 7.51,-83.18 17.63,-106.51l14.58 -33.64 -63.96 0.82c-83.7,1.23 -199.11,22.95 -243.72,46.84 -81.12,42.3 -107.46,69.2 -157.94,163.1 -40.19,73.91 -52.91,86.33 -122.11,119.93 -54.83,26.79 -70.5,40.38 -85.38,74.7 -14.28,32.95 5.44,87.16 49.55,134 19.56,20.71 40.2,42.7 46.26,49.41 19.95,21.69 56.37,50.52 61,49.27 2.26,-1.47 -7.03,-12.02 -20.73,-23.67 -14.1,-12.63 -48.53,-47.94 -76.4,-79.59 -37.54,-43.18 -51.79,-64.85 -54.26,-85.49 -7.94,-53.18 11.6,-75.69 104.53,-122.66 52.86,-26.01 69.24,-45 120.81,-137.62 52.84,-93.69 116.39,-138.72 230.64,-163.4 52.99,-11.27 170.81,-19.73 185.91,-13.18 3.43,1.49 1.9,16.31 -3.57,32.7 -6.16,16.08 -11.04,55.55 -11.96,87.77 -2.8,108.04 -12,123.62 -89.76,160.04l-48.03 22.4 -22.27 64.55c-21.97,63.86 -23.25,64.93 -75.13,115.01 -46.75,45.78 -54.85,56.95 -75.88,107.36 -13.69,31.57 -26.76,56.08 -29.5,54.88 -8.93,-3.86 -6.75,-80.38 2.18,-100.97 4.16,-9.61 4.39,-17.67 -0.91,-16.71 -7.96,1.44 -4.57,-34.6 8.88,-82.58 4.39,-17.66 13.09,-30.2 23.44,-37.13 14.27,-8.49 14.87,-9.86 3.77,-10.6 -9.72,-0.14 -9.7,-5.83 0.71,-29.86 21.82,-48.44 46.39,-76.92 81.13,-91.21 33.75,-13.92 35.56,-23.73 3,-12.57 -18.1,6.02 -17.8,5.33 -5.35,-12.1l13.04 -18.81 -18.53 16.43c-23.37,20.04 -65.27,80.97 -82.53,120.78 -7.14,16.47 -16.22,28.03 -20.34,26.25 -3.43,-1.49 -6.68,0.36 -5.81,4 0.57,4.32 -4.19,39.77 -10.05,79.63 -6.55,39.56 -11.43,79.03 -12.64,87.47 -0.53,8.74 -7.94,-4.26 -17.76,-30.53 -9.42,-25.28 -19.65,-46.84 -22.39,-48.03 -3.44,-1.49 1.99,17.99 11.41,43.27 20.68,59.52 37.31,124.62 31.4,126.95 -2.27,1.46 -17.23,-14.8 -31.78,-35.79 -27.55,-38.03 -93.64,-113.16 -101.88,-116.73 -2.75,-1.19 18.94,27.78 47.77,64.74 85.31,107.92 97.23,123.68 91.21,130.04 -5.63,7.35 -37.5,-5.66 -61.69,-25.11 -9.79,-7.5 -16.65,-10.48 -16.08,-6.16 0.57,4.33 -38.69,-2.9 -86.28,-15.38 -74.09,-19.07 -94.3,-27.01 -128.39,-49.94 -83.85,-56.74 -124.69,-62.21 -213.43,-30.55 -48.31,17.39 -153.91,65.38 -148.42,67.76l0.02 0.05z"/>
    <path class="fil0" d="M165.89 775.91c14.76,-5.83 26.77,-12.85 25.61,-15.8 -1.47,-2.27 -13.96,2.1 -28.24,10.59l-25.31 15.12 27.94 -9.91z"/>
    <path class="fil0" d="M194.34 738.51c14.87,14.6 21.05,17.27 37.57,13.02l18.88 -4.05 -17.28 -3.41c-9.81,-1.81 -25.3,-9.34 -34.8,-17.53 -24.18,-19.45 -26.68,-9.93 -4.37,11.97z"/>
    <path class="fil0" d="M730.75 535.6c6.89,-2.72 11.33,-7.32 10.16,-10.27 -1.17,-2.95 -6.77,-1.3 -11.81,4.67 -8.28,7.82 -7.89,8.81 1.65,5.6z"/>
    <path class="fil0" d="M876.61 231.09c39.06,-14.87 65.94,-31.75 32.7,-20.89 -14.47,5.14 -24.49,5.7 -23,2.26 2.29,-7.16 -30.62,16.09 -34.88,24.03 -1.19,2.74 10.42,0.43 25.18,-5.4z"/>
    <path class="fil0" d="M859.01 852.94c7.83,8.28 8.81,7.89 5.61,-1.65 -2.73,-6.89 -7.32,-11.33 -10.27,-10.16 -2.96,1.16 -1.31,6.77 4.66,11.81z"/>
    <path class="fil0" d="M884.08 919.25c12.15,7.71 16.57,8.82 14.24,2.91 -2.34,-5.9 -9.98,-10.85 -17.44,-12.45 -10.5,-2.11 -9.73,-0.14 3.2,9.54l0 0z"/>
    <path class="fil0" d="M801.56 1230.02c35.42,10.46 37.87,12.34 31.92,26.07 -3.57,8.24 -13.43,17.82 -22.58,22.01 -9.15,4.18 -17.35,13.68 -18.95,21.14 -1.81,9.81 3.79,8.16 20.36,-7.48 18.15,-17.42 24.74,-19.45 34.92,-10.96 10.18,8.49 13.13,7.32 19.68,-7.78 6.25,-14.41 14.42,-18.21 44.57,-18.19 42.54,-0.31 50.27,6.3 39.66,32.68 -6.25,14.42 -2.02,12.18 16.54,-9.95 17.67,-20.06 27.71,-26.31 36.64,-22.44 7.55,3.27 13.31,10.66 12.9,15.38 -0.23,8.05 1.14,8.65 4.11,1.78 2.47,-3.82 7.01,-6.75 10.44,-5.26 3.43,1.49 1.48,21.03 -4.99,43.5 -7.37,24.53 -9.44,48.1 -5.15,58.92 8.16,20.66 14.48,13.61 12.72,-12.43 -2.54,-28.01 5.56,-14.71 32.69,52.49 28.98,70.46 84.9,161.56 138.66,225.63 38.71,46.14 147.73,146.39 169.7,155.91 7.55,3.27 12.63,10.37 10.54,15.17 -6.54,15.1 -37.32,22.15 -58.6,12.92 -36.38,-15.77 -87.79,-6.25 -172.53,31.22 -87.98,39.32 -73.34,37.52 -284.08,44.02 -146.49,4.99 -301.61,103.28 -354.57,225.46 -7.44,17.16 -17.62,33.13 -23.52,35.46 -5.91,2.34 3.4,7.19 24.89,14.06 23.54,7.76 28.26,8.17 16.11,0.46l-18.33 -10.39 25.01 -14.44c13,-7.41 74.67,-25.53 137.2,-40 176.7,-40.82 182.4,-40.8 149.92,-3.51 -9.47,10.57 -25.28,33.88 -35.67,52.21 -18.31,32.83 -18.31,32.83 0.45,8.35 71.61,-93.71 79.39,-98.49 186.52,-112.39 73.52,-9.72 170.31,-16.69 168.23,-11.88 -0.89,2.06 -12.13,11.05 -25.33,20.82 -25.13,18.46 -94.24,102.66 -103.28,127.28 -3.57,8.24 12.91,-9.09 36.41,-38.85 48.67,-59.62 68.49,-77.13 102.54,-91.72 57.66,-23.93 91.58,-28.8 146.56,-22.09 19.24,2.63 19.24,2.63 0.45,8.35l-18.78 5.72 16.11 0.46c8.74,0.52 22.28,3.14 30.13,5.72 7.85,2.59 28.07,4.84 44.48,4.61 17.09,0.07 36.64,2.01 44.18,5.29 19.91,8.63 18.68,22.77 -0.66,18.46 -16.3,-3.8 -16.3,-3.8 -1.1,4.42 16.17,7.82 16.17,7.82 -1.33,12.47 -16.52,4.25 -15.84,4.54 4.69,6.1 31.62,2.3 43.33,20.42 37.38,58.61 -6.07,42.21 -21.47,60.81 -66.82,77.03 -21.35,7.87 -34.65,15.97 -29.16,18.35 4.81,2.09 13.85,1.93 20.74,-0.8 22.63,-8.94 13.63,4.28 -47.56,73.97 -34.74,38.76 -61.39,72.05 -61.3,73.72 0.77,1.97 19.31,-14.46 41.89,-36.47 21.61,-21.62 42.79,-38.52 46.23,-37.04 2.74,1.19 7.87,-3.11 10.84,-9.97 5.66,-13.04 45.13,-57.09 66.02,-73.31 11.24,-8.99 17.33,-7.98 44.67,7.95 34.98,20.87 43.83,17.37 22.92,-9.63 -12.21,-15.08 -11.8,-19.8 1.06,-41.94 22.45,-36.75 38.67,-40.32 17.9,-3.66 -12.57,21.46 -14.67,31.96 -9.71,43.09 3.79,8.16 10.61,22.54 14.89,33.36 7.78,19.68 23.29,21.51 31.03,3.66 6.93,-14.11 41.33,-40.79 36.36,-27.45 -3.27,7.55 0.07,7.37 11.79,1.03 8.46,-4.48 14.76,-5.83 12.97,-1.71 -1.49,3.43 4.12,1.78 12.49,-4.37 13.8,-11.14 15.86,-10.25 30.92,7.69 9.29,10.55 18.73,30.13 21.13,43.4 2.41,13.28 4.65,17.51 5.57,9.75 0.61,-7.07 3.68,-12.27 6.43,-11.07 6.17,2.67 73.11,184.98 125.12,339.62 42.12,126.7 90.82,226.9 148.93,309.17 25.39,35.47 44.52,66.59 44.31,68.94 -1.19,2.75 -13.27,2.4 -26.52,-0.89 -29.54,-7.1 -89.69,1.89 -145.96,20.71 -70.43,23.29 -164.3,83.71 -266.73,171.4 -54.41,46.54 -116.7,96.18 -137.69,110.73 -21.96,14.95 -35.07,26.38 -30.45,25.12 18.97,-2.37 80.25,-45.93 173.59,-122.07 120.26,-98.72 181.03,-139.24 256.5,-168.5 73.79,-29.16 123.03,-35.54 168.66,-22.29 29.33,9.46 41.18,17.85 72.96,53.64 21.42,23.96 50.43,64.26 65.25,90.26 15.12,25.31 35.53,55.35 46.79,65.12 25.44,24.08 22.76,30.25 -8.06,24.23 -13.54,-2.61 -29.06,-4.44 -33.68,-3.18 -5.31,0.96 -25.03,-4.33 -43.86,-11.68 -30.41,-10.74 -39.9,-18.93 -65.69,-55.38 -34.87,-49.36 -67.6,-90.46 -75.15,-93.73 -2.75,-1.19 7.89,15.65 23.13,36.93 15.24,21.29 36.12,53.98 47.54,72.8l19.6 33.77 -53.29 -12.5c-61.13,-15.09 -79.37,-23.8 -127.64,-61.04 -18.9,-14.71 -40.46,-28.95 -47.62,-31.24 -7.55,-3.27 0.28,5.01 17.12,18.84 16.45,12.83 37.59,31.78 46.79,40.66l17.32 16.48 -25.65 2.74c-21.93,3.55 -70.04,-0.19 -161.16,-11.96 -23.27,-2.75 -21.21,-1.85 15.28,9.89 47.78,15.82 46.89,17.88 -18.56,46.59 -39.56,17.91 -79.56,21.77 -108.98,10.65 -9.22,-3.18 -4.92,1.94 9.29,10.55l25.67 16.02 -72.22 27.4c-69.26,26.24 -134.04,36.48 -178.8,26.87 -12.86,-2.31 -20.14,-0.58 -18.19,4.35 5.05,12.79 74.27,22.4 122.92,17.4 21.32,-2.17 41.16,-0.91 44,1.95 1.85,3.25 12.67,-1.03 23.91,-10.02 25.03,-20.14 94.55,-60.13 103.98,-59.3 9.72,0.14 5.76,7.39 -15.66,32.35 -11.35,13.02 -40.99,28.71 -80.43,42.6 -42.11,14.36 -58.03,17.24 -46.8,8.25 11.53,-9.68 4.55,-8.62 -24.96,3.05 -34.74,14.29 -45.75,15.23 -70.76,5.2 -23.24,-8.44 -24.91,-8.35 -10.7,0.25 39.19,24.33 66.99,24.15 138.61,-1.88 78.51,-28.76 96.5,-30.75 193.72,-23.66 103.9,6.71 305.58,6.07 364.46,-1.84 70.17,-9.54 158.82,-42.86 180.93,-67.53 10.45,-10.96 20.41,-18.87 23.84,-17.39 2.75,1.19 48.99,31.84 101.89,67.81 110.3,74.72 176.15,114.68 172.56,104.15 -1.17,-2.95 -59.35,-43.66 -129.5,-88.75 -133.05,-86.21 -214.34,-145.09 -252.89,-182.18 -30.43,-29.5 -26.61,-27.03 48.92,24.46 35.17,24.21 74.35,48.54 87.01,53.21 12.65,4.67 -4.57,-10.14 -37.29,-32.47 -56.04,-38.16 -171.74,-138.04 -163.86,-141.15 1.28,-1.08 28.5,18.88 60.03,43.96 101.25,80.58 412.3,284.72 405.21,265.33 -1.47,-2.26 -69.65,-48.12 -150.97,-101.31 -242.87,-158.27 -320.02,-221.07 -422.56,-343.79 -98.93,-117.9 -133.04,-184.05 -205.73,-398.21 -33.67,-101.02 -33.26,-105.74 3.55,-27 9.45,19.59 6.06,6.7 -6.95,-29.1 -13.71,-36.11 -21.73,-66.5 -18.78,-67.66 2.26,-1.47 14.36,17.64 26.06,41.46 18.5,38.19 18.02,35.53 -2.95,-23.29 -14.57,-39.75 -18.53,-56.96 -9.36,-42.38 8.1,13.3 17.07,30.23 19.2,38.49 2.42,7.57 7.2,15.35 11.32,17.14 4.12,1.78 3.46,-4.21 -2.4,-13.27 -5.17,-8.77 -16.15,-37.99 -24,-65.04l-14.43 -49.47 18.62 34.16c9.75,18.9 20.66,40.76 22.79,49.02 2.13,8.26 11.09,25.19 19.19,38.49l15.03 23.63 -10.59 -28.23c-14.07,-42.79 -7.78,-44.14 12.88,-3.39 19.28,40.16 64.31,79.25 99.16,85.38 12.56,3 40.91,12.85 63.86,21.98 37.37,15.38 49.31,25.45 109.05,94.56 86.52,99.47 124.55,120.85 232.96,130.33 129.92,10.65 415.35,-2.61 464.55,-22.06l19.68 -7.77 -10.46 -13.5c-5.47,-8.08 -17.94,-33.87 -27.66,-58.47 -12.05,-30.5 -16.06,-36.31 -13.47,-19.7 2.1,13.96 2.74,25.65 0.78,26.43 -1.67,0.08 -34.55,-31.29 -73.88,-70.35 -154.87,-154.38 -298.46,-255.75 -434.21,-305.63 -42.77,-16.09 -93.98,-33.39 -113.4,-39.36l-36.1 -10.76 50.08 -21.51 50.39 -22.19 -59.13 21.66 -58.14 21.28 -72.42 -19.16c-131.59,-35.02 -144.99,-47.36 -87.78,-79.64l26.98 -15.21 -47.07 3.24c-81.07,6.45 -127.02,-24.89 -128.82,-88.45 -1.14,-33.11 0.56,-38.9 16.02,-50.13 8.97,-7.53 35.93,-17.05 59.82,-21.37 32.83,-6.15 50.02,-4.41 74.73,6.3 17.85,7.74 34.2,18.91 36.93,25.8 3.5,8.85 7.91,9.95 17.96,3.7 11.41,-5.65 18.19,-4.34 38.46,10.97 13.62,9.98 36.27,19.79 51.48,22.31l26.41 4.93 -29.22 -13.48c-57.07,-26.37 -101.47,-96.98 -79.34,-127.35 28.95,-40.45 61.9,-50.63 124.91,-37.99 22.68,4.12 34.07,4.17 24.47,0 -9.32,-4.85 -29.04,-10.14 -43.18,-11.37 -14.53,-2.22 -27.09,-5.22 -27.87,-7.19 -1.08,-1.28 13.62,-14.49 31.94,-28.56 31.24,-23.15 36.18,-30.79 66.53,-100.81 38.09,-87.86 41.22,-110.14 37.65,-267.43 -3.14,-167.7 1.19,-192.73 52.68,-317.18 35.82,-86.4 44.89,-116.71 48.19,-154.42 10.88,-137.97 -39.86,-269.23 -167.68,-431.45l-46.42 -58.44 4.46 38.62c3.95,41.67 2.83,51.78 -5.18,40.16 -3.22,-3.85 -6.86,-2.98 -9.54,3.2 -2.38,5.49 -8.3,13.52 -13.04,18.81 -4.74,5.28 -5.45,10.68 -1.33,12.47 4.12,1.78 7.76,0.91 9.25,-2.52 9.98,-38.07 17.89,20.8 9.62,71.85 -3.23,20.61 -5.98,43.88 -6.3,50.27 -0.32,6.38 -2.33,18.55 -4.92,26.4 -10.17,34.74 -14.17,53.38 -12.34,62.33 3.24,22.61 -8.85,3.5 -24.3,-39.89 -14.48,-38.07 -15.55,-39.36 -5.37,-6.4 14.64,47.11 18.29,89.46 8.93,96.01 -3.55,2.54 -6.34,12.74 -5.79,22.76 2.74,25.66 -7.96,25.91 -16.11,-0.46 -6.02,-18.1 -6.82,-14.36 -3.41,17.28 4.34,42.65 -5.82,52.92 -10.76,11.65 -1.71,-12.98 -7.82,-32.75 -12.78,-43.87 -9.06,-18.6 -8.67,-17.62 -2.41,11.19 7.14,32.45 11.85,81.78 8.28,90.02 -0.89,2.06 -7.09,-19.38 -14.05,-48.49 -6.65,-29.79 -16.05,-60.78 -20.54,-69.24 -4.48,-8.47 -2.67,6.17 4.87,33.91 14.8,56.15 20.7,127.2 11.55,131.38 -2.96,1.17 -10.62,-22.54 -15.99,-53.4 -5.68,-30.18 -15.26,-64.51 -20.22,-75.63 -6.82,-14.37 -7.05,-6.32 -0.69,24.17 12.53,57.61 17.26,150.17 8.33,146.3 -3.43,-1.49 -10.13,-19.88 -14.96,-40.73 -4.43,-19.86 -9.58,-34.32 -10.77,-31.58 -1.19,2.75 2.05,25.36 7.75,49.84 5.97,29.49 6.08,49.93 -0.65,61.69 -9.2,15.58 -10.37,12.63 -18.92,-33.48 -10.36,-60.75 -16.81,-68.44 -10.07,-12.52 6.93,59.27 5.23,89.52 -7.03,110.29 -10.09,17.64 -11.56,15.38 -14.81,-31.69 -1.85,-27.71 -7.01,-60.94 -11.09,-74.12l-7.66 -23.71 4.89 28.22c6.82,38.83 7.02,109.85 0.01,141.06 -5.01,24.73 -5.7,24.44 -11.12,-19.5 -4.02,-24.57 -7.18,-45.51 -8.55,-46.1 -1.38,-0.6 -2.06,23.57 -1.79,53.04 0.96,29.77 -0.92,56.67 -3.79,59.51 -2.86,2.84 -13.22,-33.45 -23.83,-80.45 -10.61,-47 -22.89,-93.91 -28.45,-103.66 -4.58,-10.14 -3.35,0.18 2.95,23.29 9.28,35.01 27.3,143.93 27.78,171.04 0.57,4.33 -5.08,-7.09 -11.09,-25.19l-11.55 -33.55 4.7 49.34c2.15,27.02 0.87,52.56 -2.29,56.08 -3.46,4.21 -6.25,14.41 -5.41,23.75 0.16,9.03 -8.23,-3.57 -19.33,-28.77l-19.56 -45.17 11.42 43.27c14.61,52.81 11.82,63.02 -6.78,23.16l-13.33 -29.43 10.18 32.95c23.08,72.79 24.42,79.09 13.47,68.63 -5.97,-5.04 -2.04,17.87 8.53,51.8 9.88,33.64 16.15,62.45 13.88,63.91 -3.94,1.56 -22.99,-46.65 -50.65,-129.58 -9.51,-26.95 -9.42,-25.28 -2.31,12.86 5.47,32.54 4.85,39.61 -3.27,32.01 -5.98,-5.03 1.96,23.69 16.53,63.43 14.97,40.73 26.6,75.95 25.41,78.7 -4.16,9.6 -34.47,-48.38 -61.49,-119.61 -31.5,-79.7 -29.08,-47.67 3.84,45.69 20.29,58.54 10.43,43.66 -26.65,-40.09l-20.25 -45.47 15.69 54.1c8.33,29.7 19.31,58.92 24,65.03 4.98,5.43 5.65,11.42 2.7,12.59 -4.92,1.94 -16.15,-13.53 -45.92,-61.49l-12.1 -19.11 6.11 19.77c3.29,11.21 15.28,34.34 25.92,51.19 10.34,17.52 15.1,31 10.38,30.59 -12.47,-1.33 -42.6,-31.51 -62.8,-63.92 -16.89,-26.88 -16.89,-26.88 -0.53,8.75 17.14,37.59 9.95,41 -22.15,11.59 -15.55,-14.89 -15.85,-14.2 -7.27,1.74 5.17,8.76 16.6,21.88 26.01,28.4 20.18,13.64 19.35,23.06 -2.66,24.94 -34.69,2.9 -60.69,-74.42 -51.65,-147.96 2.43,-16.89 23.03,-81.34 45.78,-143.24 34.47,-92.68 43.35,-126.34 51.78,-192.81 4.9,-45.17 16.51,-96.4 25.14,-116.31 21.42,-49.42 68.79,-102.27 142.11,-158.55 96.77,-74.66 174.64,-139.56 178.51,-148.49 2.09,-4.8 -21.76,12.58 -53.79,39.47 -31.06,26.49 -86.94,70.76 -123.69,97.23 -123.07,90.16 -163.02,156.01 -180.8,296.71 -9.02,67.84 -17.99,99.83 -54.24,196.64 -23.65,63.95 -43.36,126.35 -43.7,138.43 -0.82,33.89 -4.08,35.74 -31.12,19.13 -13.52,-8.31 -32.26,-13.99 -40.61,-13.53 -12.98,1.71 -10.53,3.59 10.86,8.79 50.34,13.66 70.24,46.75 61.18,101.53 -3.03,18.26 -2.93,19.93 3.4,7.19 7.24,-14.81 7.92,-14.51 19.64,3.61 10.93,16.16 10.61,22.55 -0.56,38.9l-13.34 19.5 19.82 -17.5c22.98,-21.03 69.08,-29.58 95.17,-18.27 51.48,22.31 68.98,66.59 49.98,123.59 -11.83,34.82 -13.12,35.9 -56.5,51.34 -42.4,15.05 -46.43,14.94 -74.84,-2.28 -19.02,-10.68 -34.28,-26.27 -40.41,-40.34 -5.35,-12.11 -11.21,-21.17 -12.79,-19.41 -1.58,1.76 -8.49,-14.28 -14.98,-35.03 -5.81,-20.46 -13.29,-40.83 -15.53,-45.06 -2.93,-4.53 0.64,-12.76 9.9,-20.98 12.13,-11.05 13.92,-15.17 8.25,-20.89 -4.99,-5.42 -12.47,-1.33 -21.17,11.21 -9,13.22 -15.49,16.93 -21.56,10.23 -4.59,-4.44 -9.7,-5.84 -11.18,-2.41 -3.58,8.24 -42.08,-15.79 -50.96,-31.05 -4.48,-8.47 -4.99,-5.43 -0.92,7.75 7.28,22.72 25.99,34.1 58.89,35.32 16.8,0.75 20.62,3.22 19.59,15.01 -1.86,21.21 27.99,95.3 41.03,100.96 13.73,5.95 24.41,35.85 17.57,51.64 -2.68,6.18 -4.3,19.33 -3.85,27.69 1.03,12.67 -2.13,16.2 -13.43,17.82 -8.35,0.46 -17.71,7 -20.69,13.86 -7.73,17.85 -59.67,11.64 -86.3,-9.69 -13.32,-10.66 -20.18,-13.63 -19.22,-8.33 0.66,6 -7.87,3.11 -23.85,-7.07 -27.82,-18.58 -112.04,-81.99 -126.22,-96.3 -5.29,-4.73 -10.48,-7.8 -11.67,-5.06 -0.9,2.06 17.5,19.82 41,38.98 58.64,49.06 39.46,53.79 -23.8,5.99 -63.56,-47.12 -104.86,-85.41 -149.24,-137.26 -32.95,-38.75 -40.88,-67.46 -16.17,-56.75 5.49,2.38 -7.78,-19.68 -29.86,-49.63 -22.37,-29.27 -51.56,-72.91 -64.24,-96.34 -25.35,-46.86 -44.31,-93.41 -36.07,-89.84 3.43,1.49 28.94,32.93 56.78,70.28 28.53,37.64 53.95,67.42 56.6,66.93 2.27,-1.46 -2.9,-10.22 -12.49,-20.09 -8.89,-9.56 -15.83,-19.91 -14.34,-23.34 1.49,-3.43 -2.13,-8.26 -7.62,-10.64 -6.18,-2.67 -10.46,-13.5 -11.09,-25.19 -0.14,-14.74 -9.22,-27.64 -32.03,-46.5 -33.68,-27.65 -66.08,-80.83 -43.82,-71.99 7.55,3.27 11.79,1.03 12.41,-6.04 0.52,-8.74 8.49,-10.18 28.51,-5.58 27.48,6.2 27.48,6.2 14.66,-7.51 -7.82,-8.28 -18.6,-15.4 -23.7,-16.79 -7.46,-1.61 -4.39,-6.8 11.28,-20.39 17.94,-15.06 18.54,-16.43 4.85,-9.31 -9.45,4.87 -22.72,7.27 -30.87,5.37 -10.89,-3.09 -11.94,-10.07 -3.18,-39.7 5.59,-20.41 7.33,-37.59 3.9,-39.08 -3.43,-1.48 -7.6,8.12 -8.84,22.26 -4.55,33.09 -15.86,59.17 -22.4,49.81 -3.23,-3.84 -1.81,-14.64 2.36,-24.25 3.87,-8.92 3.71,-17.96 -0.41,-19.74 -3.43,-1.49 -6,0.66 -5.72,5.67 0.57,4.32 -9.68,12.93 -23.16,17.68 -29.61,10 -31.78,13.14 -17.78,24.1 10.48,7.8 10.18,8.49 -1.78,4.11 -7.85,-2.58 -14.05,0.44 -15.66,7.9 -2.19,8.83 -11.44,11.34 -34.11,7.22 -19.25,-2.63 -31.53,-0.62 -32.24,4.78 -0.32,6.38 -6.62,7.73 -14.17,4.46 -6.86,-2.98 -15.99,-4.49 -18.94,-3.32 -3.94,1.55 -27.78,-5.52 -53.77,-15.15 -25.31,-9.34 -51.42,-14.95 -57.32,-12.62 -8.17,3.8 -1.6,7.46 26.36,16.32l0 0.01zm-237.5 828.22c45.3,-53.75 111.03,-101.91 174.98,-127.18 47.23,-18.67 80.07,-24.82 143.93,-27.31 45.49,-1.48 91.37,-1.98 101.48,-0.86 42.12,4.4 104.96,-10.76 179.46,-45.33 43.5,-19.47 93.87,-35.96 111.55,-37.27 39.4,-2.48 64.21,9.89 54.02,25.87 -12.95,20.47 3.57,16.22 30.1,-7.35 32.93,-28.94 76.95,-32.68 110.36,-10.05 26.06,17 51.79,64.85 34.7,64.78 -7.07,-0.62 -8.38,6.15 -3.44,22.97 8.51,33.04 0.5,45.88 -38.46,62.42 -18.31,8.37 -29.94,16.38 -25.82,18.17 4.12,1.78 -0.71,5.4 -9.95,7.91 -33.73,8.21 -87.02,-28.75 -98.16,-67.01 -6.59,-22.42 -14.84,-20.3 -14.64,1.81 0.64,11.69 5.39,25.17 10.68,29.91 5.97,5.03 9.38,12.22 7.89,15.65 -1.49,3.43 2.13,8.26 7.62,10.64 21.96,9.52 2.79,14.25 -55.86,14.11 -48.23,0.29 -64.13,-2.53 -72.05,-12.48 -5.08,-7.09 -8.58,-15.95 -7.09,-19.38 1.79,-4.12 -1.83,-8.95 -7.32,-11.33 -5.49,-2.38 -21.92,-20.91 -37.06,-40.53 -25.31,-33.8 -24.82,-31.14 1.09,20.05 4.1,7.48 12.01,17.43 17,22.85 5.29,4.74 8.4,12.61 6.62,16.73 -1.49,3.44 1.83,8.95 7.32,11.33 21.96,9.52 3.18,15.24 -59.01,17.64 -35.08,1.92 -75.15,-1.59 -88.19,-7.24 -17.85,-7.74 -21.19,-7.55 -13.36,0.73 10.27,10.16 9.97,10.85 -10.58,14.99 -11.6,2.3 -29.76,0.95 -40.06,-3.51 -12.36,-5.35 -19.04,-4.99 -19.66,2.08 -0.02,5.7 -15.47,11.24 -38.46,13.5 -29.68,2.62 -38.81,1.11 -42.7,-8.73 -2.72,-6.88 -9.47,-13.89 -15.65,-16.57 -6.17,-2.67 -24.18,-19.45 -39.23,-37.39 -15.74,-18.23 -32.38,-34.42 -36.8,-35.51 -4.8,-2.09 -3.54,2.54 2.91,10.22 7.14,7.99 11.32,17.14 9.84,20.58 -1.2,2.74 1.05,6.97 5.85,9.06 13.73,5.95 49.9,48.54 49.47,58.95 -0.03,5.69 -41.83,19.37 -97.39,32.8 -53.29,11.96 -130.8,34.63 -172.21,49.29l-74.28 26.51 11.6 -26.77c6.55,-15.1 23.85,-41.85 38.95,-59.76l0.01 0.01zm905.88 -63.95c13.98,-7.81 58.97,-6.24 78.87,2.38 6.87,2.98 11.44,13.12 10.62,22.55 -1.81,9.81 -0.3,25.14 2.51,33.7 4.85,15.15 3.36,18.58 -16.15,35.4 -12.13,11.05 -28.38,20.32 -36.73,20.77 -7.96,1.44 -11.51,3.98 -8.08,5.47 4.12,1.78 13.46,0.94 19.36,-1.4 9.84,-3.89 13.27,-2.4 15.19,8.22 2.61,10.91 3.3,11.21 4.33,-0.57 1.85,-21.21 26.09,-37.62 37.43,-26.18 22.7,22.89 42.58,37.21 41.83,29.55 -1.26,-4.63 -6.25,-10.05 -12.43,-12.72 -13.73,-5.96 -37.34,-45.54 -39.12,-65.88 -0.46,-8.36 2.93,-19.93 7.37,-24.53 7.3,-7.44 10.73,-5.95 19.72,5.28 11.83,14.1 12.13,13.41 3.48,-9.9 -11.16,-32.56 -1.07,-50.2 37.79,-62.72 79.37,-25.11 158.9,56.65 126.77,130.78 -10.12,23.34 -9.73,24.33 10.11,25.59 30.55,1 79.76,24.78 97.35,46.27 20.82,25.33 23.65,77.12 6.4,116.93 -27.08,62.46 -117.9,74.46 -161,21.54 -21.89,-26.62 -39.19,-73.25 -27.88,-74.88 5.99,-0.66 7.62,-13.82 6.04,-36.52l-3.59 -34.98 21.26 -9.54c12.1,-5.36 25.4,-13.46 30.53,-17.76 5.12,-4.3 0.5,-3.04 -10.92,2.61 -10.73,5.95 -34.23,11.25 -52.31,11.57 -24.76,0.68 -28.69,2.24 -17.32,7.98 11.67,5.06 14.09,12.63 8.89,34.02 -5.1,23.07 -9.54,27.67 -27.34,33 -30.69,8.71 -73.04,-12.09 -91.27,-45.28 -9.65,-17.23 -15.33,-22.95 -15.95,-15.88 -0.96,19.15 -38.35,9.47 -48.58,-12.08 -4.57,-10.14 -5.12,-20.17 -1.87,-22.02 3.55,-2.54 1.31,-6.77 -4.19,-9.15 -43.24,-18.74 -50.81,-89.7 -11.13,-111.64l0.01 0.02zm86.92 -89.53c20.75,17.97 40.81,35.64 45.71,39.39 6.27,4.34 5.76,7.39 -4.67,12.65 -27.07,13.54 -87.72,-47.81 -78.75,-79.8 0.21,-2.35 17.64,10.09 37.71,27.76l0 0zm637.59 -1348.68c2.06,0.89 26.08,35.77 52.83,77.52 87.16,135.63 126.62,262.81 114.98,368.66 -4.19,39.77 -13.94,69.79 -48.45,149.41 -52.96,122.18 -58.69,152.32 -55.43,315.99 2.02,153.35 -2.76,194.49 -30.14,257.64 -26.18,60.41 -66.64,104.84 -113.09,125.47l-32.77 13.52 6 -25.12c2.9,-14.23 3.23,-20.62 -0.43,-14.05 -2.98,6.86 -23.48,24.07 -45.15,38.32 -42.66,28.81 -92.97,33.9 -120.59,12.96 -9.11,-7.21 -16.57,-8.81 -18.65,-4.01 -1.79,4.12 -0.53,8.74 2.9,10.23 8.93,3.87 -2.25,69.15 -15.38,86.28 -15.31,20.28 -71.51,46.47 -96.37,45.48 -13.45,-0.94 -20.02,-4.6 -24.59,-14.74 -3.11,-7.87 -21.51,-25.63 -41,-38.97 -48.78,-34.19 -52.79,-40 -49.99,-74.66 3.89,-39.08 25.63,-70.43 61.56,-87.47 37.89,-17.82 70.11,-16.91 107.75,3.48 31.36,16.05 42.19,11.77 30.11,-13.03 -16.17,-32.29 35.63,-89.74 87.44,-98.27 61.44,-10.06 69.31,-13.17 95.35,-39.39 20.61,-21.23 25.17,-29.86 23.45,-42.83 -1.83,-8.95 -0.89,-22.4 1.79,-28.58 2.29,-7.16 -4.62,1.26 -16.77,18.01 -23.53,35.46 -73.98,74.74 -94.12,74.17 -7.37,0.07 -25.33,-3.65 -39.27,-7.24 -21.78,-6.17 -27.16,-12.58 -37.74,-40.82 -8.65,-23.32 -10.05,-42.68 -4.16,-63.77 4.49,-16 6.02,-30.82 2.59,-32.31 -5.49,-2.38 -1.11,-63.27 8.78,-103.01 9.29,-38.37 41.46,-74.98 84.58,-95.43l37.2 -18.12 -36.49 12.72c-42.11,14.37 -70.6,38.71 -84.58,70.97 -15.77,36.38 -18.01,7.68 -2.88,-40.39l13.34 -43.96 24.05 4.72c27.48,6.2 73.43,-11.39 114.91,-43.14 39.23,-30.3 30.19,-30.14 -14.73,0.13 -43.94,29.88 -77.57,39.76 -99.54,30.24 -19.9,-8.63 -18.71,-11.37 45.21,-123.1 24.83,-42.23 49.04,-77.4 53.06,-77.29 21.9,2.16 67.05,-11.7 89.61,-28.02 21.97,-14.94 17.64,-14.36 -25.26,3.73 -27.55,10.89 -53.22,19.33 -56.65,17.84 -4.81,-2.08 8.4,-36.31 36.94,-96.51 52.52,-111.77 84.85,-231.48 94.08,-350.6 6.23,-82.1 8.15,-95.94 15.7,-92.67l0.01 0.01zm-291.81 754.12c3.43,1.49 5.37,6.41 3.59,10.52 -1.49,3.44 -5.52,3.32 -8.06,-0.22 -3.22,-3.85 -4.48,-8.47 -3.59,-10.53 0.6,-1.37 3.94,-1.56 8.06,0.23zm-32.97 132.48c3.44,1.49 5.38,6.41 3.6,10.53 -1.49,3.43 -5.52,3.31 -8.06,-0.23 -3.23,-3.85 -4.48,-8.47 -3.59,-10.53 0.59,-1.37 3.94,-1.55 8.05,0.23zm-306.46 755.93c7.82,8.28 21.74,17.57 30.66,21.44l16.47 7.14 -24.14 18.07c-20.3,14.85 -26.29,15.52 -34.21,5.56 -12.22,-15.08 -15.46,-37.69 -9.01,-54.46 4.46,-10.29 7.51,-9.79 20.23,2.25l0 0zm468.18 -261.83c3.43,1.49 4.99,5.42 3.2,9.54 -1.48,3.43 -7.78,4.78 -13.95,2.1 -5.5,-2.38 -6.75,-7 -3.2,-9.54 3.84,-3.22 9.84,-3.89 13.95,-2.1zm-147.69 368.95c1.97,-0.78 7.64,4.94 11.44,13.11 7.8,13.98 7.8,13.98 2.08,-4.81 -11.14,-38.26 0.03,-30.15 18.81,13.05 14.69,35.71 17.23,39.26 13,17.04 -3.18,-15.24 -8.21,-33.72 -12.31,-41.21 -7.5,-14.66 -11.89,-45.92 -5.71,-43.24 2.05,0.89 11.41,18.81 21.25,39.38 15.87,32.97 15.69,29.63 -1.69,-18.68 -21.85,-62.46 -9.45,-44.05 23.63,33.89 25.78,60.92 31.3,57.6 10.43,-5.26l-14.84 -44.76 26.6 51.49c18.03,35.53 23.11,42.63 15.54,20.59 -6.32,-17.41 -24.52,-56.29 -42.28,-86.81 -16.76,-30.92 -27.47,-55.13 -23.45,-55.01 11.1,0.73 76.62,95.99 101.56,147.57 22.6,45.67 22.6,45.67 9.49,8.19 -8.16,-20.66 -26.97,-58.16 -43.07,-83.09 -16.11,-24.92 -29.08,-47.66 -27.59,-51.1 2.97,-6.86 39.78,47.42 64.06,93 10.52,20.87 20.77,36.73 22.74,35.95 1.97,-0.78 -10.89,-27.55 -28.05,-59.45 -17.16,-31.9 -29.33,-58.38 -27.06,-59.84 6.89,-2.72 25.53,25.74 63.55,96.04 34.71,64.78 24.62,33.5 -12.99,-41.51 -11.99,-23.13 -13.34,-29.42 -4.05,-18.87 26.11,30.07 57.22,84.32 85.93,149.77l28.71 65.44 -24.3 -64.35c-13.7,-36.11 -38.25,-86.7 -54.44,-113.29 -17.18,-26.2 -28.78,-48.35 -26.81,-49.13 6.88,-2.72 53.81,52.68 82.11,98.37 16.1,24.93 37.33,70 47.72,100.6 10.38,30.59 16.42,42.99 13.54,27.07 -8.46,-44.44 -52.29,-135.19 -86.79,-177.87 -17.3,-22.18 -31.07,-41.19 -30.48,-42.56 0.6,-1.38 16.39,5.47 35.01,15.17 51.07,27.03 89.62,88.59 119.65,190.48l10.75 37.28 -6.63 -35.49c-4.43,-19.87 -13.72,-54.88 -22.37,-78.2 -11.85,-32.85 -12.51,-38.85 -1.76,-26.03 27.66,34 52.07,118.78 57.92,201.22 2.85,46.08 9.92,95.63 14.47,111.46 8.14,26.36 8.74,24.99 2.41,-11.19 -3.55,-21.92 -8.07,-67.91 -9.6,-102.01 -1.53,-34.09 -6.95,-78.03 -12.67,-96.81 -10.93,-40.62 -8.83,-51.12 4.71,-24.05 5.95,10.73 2.96,-1.17 -6.08,-25.47 -8.74,-24.98 -30.59,-63 -48.57,-85.47 -34.2,-43.36 -27.38,-53.45 10.87,-15.67 12.43,12.72 22.52,19.54 21.56,14.23 -0.57,-4.32 -5.95,-10.73 -11.44,-13.11 -5.49,-2.38 -8.12,-7.6 -6.63,-11.03 4.16,-9.61 6.61,-7.73 42.09,34.56 17.6,21.49 46.1,64.82 62.28,97.11l29.62 57.69 -21.89 -51.08c-12.26,-28.14 -34.59,-68.81 -50.12,-89.4 -16.22,-20.89 -24.5,-37.53 -19.1,-36.82 18.16,1.35 67.19,70.71 97.96,137.05 27.75,60.13 28.82,61.41 11.92,15.76 -10.59,-28.23 -31.25,-68.99 -45.89,-91.64 -33.29,-51.12 -31.44,-47.87 -25.24,-50.89 12.5,-4.37 59.28,60.76 84.88,118.33l27.45 60.82 -18.54 -51.26c-10.6,-28.24 -27.34,-64.85 -38.28,-81 -16.88,-26.89 -17.36,-29.54 -3.42,-25.95 21.09,5.88 45.92,37.02 69.87,88.99 15.57,33.66 15.48,31.99 -1.24,-10.32 -18.96,-46.54 -19.53,-50.87 -5.12,-44.62 8.92,3.87 26.04,22.7 37.45,41.51 19.52,32.1 19.9,33.09 12.24,9.38l-8.74 -24.98 16.48 7.14c24.71,10.71 27.91,20.25 28.27,75.85 0.18,27.8 1.76,50.5 3.73,49.72 1.96,-0.78 3.13,-22.28 3.14,-46.74 -0.39,-25.45 2.15,-46.36 5.11,-47.53 9.84,-3.89 21.16,13.25 16.1,24.92 -5.35,12.36 -3.51,113.45 2.66,116.13 2.06,0.89 3,-12.57 2.39,-29.96 -2.88,-40.38 2.44,-90.26 8.63,-93.28 2.66,-0.48 5.79,26.15 7.02,60.93 0.55,34.48 2.78,63.18 4.85,64.08 1.37,0.59 2.75,-23.28 2.47,-52.75 -0.96,-29.77 1.31,-55.69 4.26,-56.86 10.53,-3.59 33.09,29.02 28.03,40.69 -2.29,7.16 -3.14,22.28 -1.81,34.28 2.01,12.28 3.86,15.54 4.78,7.78 5.11,-47.53 7.79,-53.7 17.67,-44.53 5.67,5.72 13.02,11.35 16.45,12.84 3.43,1.49 1.8,14.65 -3.46,28.67 -10.33,25.69 -10.33,25.69 1.94,4.92 14.15,-23.22 14.83,-22.93 29.89,-4.99 5.76,7.39 6.49,20.76 2.42,32.04l-7.35 18.83 13.73 -18.52c11.17,-16.35 13.82,-16.84 18.58,-3.36 2.82,8.56 10.94,16.16 17.71,17.47 7.07,0.61 15.19,8.21 18.01,16.77 3.79,8.17 8.48,14.28 10.75,12.81 5.6,-1.64 96.87,92.55 101.92,105.34 11.58,27.85 -408.82,42.13 -505.68,17.27 -63.88,-16.28 -85.53,-32.18 -153.57,-112.23 -64.82,-76.2 -71.08,-80.55 -186.72,-124.16 -61.6,-23.43 -65.51,-27.58 -110.99,-123.93 -23.47,-49.32 -26.56,-62.88 -17.77,-73.75 6.02,-6.36 12.33,-13.41 14.3,-14.19l0 0.04zm165.31 -304.24c8.39,12.61 8.39,12.61 -1.79,4.12 -5.97,-5.04 -14.69,-11.26 -18.51,-13.74 -6.18,-2.67 -5.58,-4.05 1.49,-3.43 5.7,0.03 13.73,5.95 18.81,13.04l0 0.01zm-340.27 1283.5c18.92,-15.44 112.7,-53.07 122.99,-48.61 5.49,2.38 -5.17,15.7 -30.11,37.5 -22.09,18.97 -40.83,37.75 -42.62,41.87 -1.48,3.43 -15.76,11.92 -32.19,17.84 -15.45,5.54 -28.45,12.95 -27.28,15.9 0.18,3.34 -9.06,5.86 -19.77,6.11l-20.73 0.8 18.79 -30.18c10.48,-16.66 24.21,-35.17 30.91,-41.23l0.01 0zm38.32 45.15c18.6,-9.06 36.93,-23.13 41.19,-31.07 8.51,-15.87 69.5,-58.75 94.87,-66.5 19.08,-6.41 65.14,-3.56 68.25,4.31 0.48,2.65 -15.58,15.26 -36.95,28.82 -25.61,15.81 -33.6,22.95 -23.58,22.4 23.39,-1.28 59.4,7.81 132.96,35.62 69.45,26.02 67.87,27.78 -15.97,14.28 -24.64,-3.35 -29.26,-2.09 -25.28,9.42 2.99,11.9 1.62,11.31 -11.79,-1.03 -9.59,-9.86 -15.76,-12.54 -17.55,-8.42 -1.78,4.12 1.14,8.65 5.26,10.44 6.18,2.67 5.29,4.73 -3.36,5.87 -7.96,1.44 -21.09,-5.88 -34.89,-19.2 -26.82,-24.67 -30.66,-21.44 -7.69,6.46 16.9,21.19 16.9,21.19 -1.26,19.83 -9.73,-0.13 -19.93,-2.93 -22.47,-6.47 -1.86,-3.25 -8.15,-1.9 -12.88,3.38 -4.44,4.6 -10.44,5.27 -13.66,1.42 -2.54,-3.55 -6.57,-3.66 -8.06,-0.23 -1.78,4.12 -7.39,5.77 -12.88,3.39 -4.8,-2.09 -22.67,-4.12 -38.78,-4.58 -16.11,-0.46 -31.53,-0.63 -34.28,-1.82 -3.73,-0.8 -14.05,0.44 -23.68,1.97 -17.89,3.66 -36.54,-0.35 -33.27,-7.9 0.9,-2.06 17.14,-11.32 35.75,-20.38l0 -0.01zm502.8 -939.9c7.41,13 13.46,25.4 12.86,26.78 -2.08,4.8 -12.24,-9.39 -22.37,-29.27 -11.4,-24.51 -6.29,-23.11 9.51,2.49zm-297.66 861.67c24.6,-9.73 43.66,-10.43 76.54,-3.52 24.44,5.7 50.84,10.63 57.61,11.93 17.19,1.74 14.3,10.28 -10.02,25.01 -13.6,8.78 -8.88,9.2 17.39,-0.62 30.89,-11.07 131.29,-13.21 135.57,-2.39 0.48,2.66 -10.19,15.98 -23.8,30.46 -23.18,23.38 -28.79,25.02 -64.92,19.96 -65.19,-9.5 -88.34,-16.27 -84.17,-25.88 2.67,-6.18 1.3,-6.77 -5.5,-2.38 -4.53,2.92 -29.47,0.27 -56.26,-5.64 -26.5,-6.59 -55.65,-12.7 -65.46,-14.51 -24.35,-4.03 -15.36,-17.25 23.02,-32.42l0 0zm240.26 -67.09c66.47,57.35 73.21,64.36 57.79,64.19 -21.5,-1.16 -107.51,-84.92 -101.56,-98.65 0.9,-2.06 20.87,13.94 43.77,34.46zm64.15 94.67c16.06,-12.6 28.86,-17.66 37.78,-13.79 19.22,8.33 12.4,18.42 -32.11,43.98 -61.35,36.19 -64.92,19.96 -5.67,-30.19l0 0z"/>
    <path class="fil0" d="M904.08 2026.24c7.55,3.27 10.5,2.1 5.9,-2.33 -3.91,-4.15 -10.38,-6.14 -13.33,-4.97 -3.64,0.87 -0.42,4.71 7.43,7.3z"/>
    <path class="fil0" d="M989.27 1997.12c10.98,4.76 15.7,5.17 9.73,0.14 -5.58,-4.05 -15.19,-8.22 -20.6,-8.93 -5,0.28 -0.8,3.73 10.87,8.79z"/>
    <path class="fil0" d="M1086.91 1999.49c7.55,3.27 10.5,2.1 5.9,-2.33 -3.91,-4.15 -10.39,-6.14 -13.34,-4.97 -3.64,0.87 -0.41,4.71 7.44,7.3z"/>
    <path class="fil0" d="M1253.55 1989.37c10.98,4.76 15.7,5.17 9.73,0.14 -5.58,-4.05 -15.19,-8.22 -20.6,-8.93 -5,0.28 -0.8,3.73 10.87,8.79z"/>
    <path class="fil0" d="M1307.09 1988.12c9.61,4.16 13.64,4.27 9.73,0.13 -3.52,-3.15 -11.76,-6.73 -17.16,-7.44 -5.01,0.28 -2.17,3.14 7.43,7.31z"/>
    <path class="fil0" d="M1502.35 2139.61c3.43,1.49 8.35,-0.45 9.84,-3.89 1.79,-4.11 -0.45,-8.35 -3.89,-9.84 -4.11,-1.78 -8.05,-0.22 -9.84,3.89 -1.48,3.44 -0.23,8.06 3.89,9.84z"/>
    <path class="fil0" d="M1581.92 2044.46c7.11,13.68 8.1,13.29 3.94,-1.56 -2.13,-8.26 -5.24,-16.13 -6.61,-16.73 -5.49,-2.38 -4.44,4.6 2.67,18.28l0 0.01z"/>
    <path class="fil0" d="M1577.88 2166.64c0.87,3.64 10.27,10.16 19.88,14.33 17.46,6.75 17.46,6.75 9.27,-8.22 -13.75,-24.71 -38.78,-29.04 -29.15,-6.11z"/>
    <path class="fil0" d="M1710.13 2256.58c0.86,3.64 5.46,8.08 9.58,9.87 4.12,1.78 4.92,-1.95 2.2,-8.84 -2.33,-5.9 -6.93,-10.34 -9.59,-9.86 -2.95,1.17 -4.05,5.58 -2.19,8.83z"/>
    <path class="fil0" d="M1803.91 2286.64c8.24,3.57 39.98,-22.63 36.57,-29.82 -3.59,-10.52 -30.45,0.67 -36.4,14.39 -3.28,7.55 -2.91,14.23 -0.16,15.42l-0.01 0.01z"/>
    <path class="fil0" d="M1857.32 2246.18c5.45,13.78 7.9,15.66 11.17,8.11 2.38,-5.49 0.25,-13.76 -5.03,-18.49 -13.11,-13.02 -15.28,-9.89 -6.14,10.38z"/>
    <path class="fil0" d="M1917.81 1514.1c4.14,-3.91 6.13,-10.39 4.97,-13.34 -0.87,-3.64 -4.72,-0.41 -7.3,7.44 -3.28,7.55 -2.11,10.5 2.33,5.9z"/>
    <path class="fil0" d="M1956.39 1472.11c18.92,-15.44 39.2,-24.59 58.26,-25.3 16.02,-1.21 24.58,-4.02 18.4,-6.7 -24.03,-10.41 -89.68,20.65 -101.28,47.43 -2.08,4.8 9.24,-2.52 24.62,-15.42l0 -0.01z"/>
    <path class="fil0" d="M1808.65 1828c4.33,-0.57 9.25,-2.52 10.14,-4.58 0.59,-1.37 -2.24,-4.23 -5.68,-5.72 -4.11,-1.78 -8.35,0.46 -10.13,4.57 -1.49,3.44 0.66,6 5.67,5.73z"/>
    <path class="fil0" d="M2034.83 1484.91c4.59,4.44 10,5.15 11.48,1.72 1.79,-4.12 -1.83,-8.95 -7.32,-11.33 -5.49,-2.38 -10.89,-3.09 -11.49,-1.71 -0.59,1.37 3.03,6.2 7.33,11.32z"/>
    <path class="fil0" d="M2075.37 1491.07c8.93,3.87 50.55,-37.61 58.79,-58.5 3.57,-8.24 -3.82,-2.47 -16.36,13.29 -12.54,15.77 -28.42,31.71 -36.29,34.83 -7.49,4.09 -10.25,8.6 -6.14,10.38z"/>
    <path class="fil0" d="M2000.23 1728.39c1.37,0.6 10.38,6.14 20.08,11.97 15.59,9.2 17.55,8.42 14.26,-2.79 -4.16,-14.85 -18.67,-22.77 -29.01,-15.84 -3.55,2.54 -6.41,5.38 -5.33,6.66z"/>
    <path class="fil0" d="M2149.15 1394.22c4.14,-3.91 6.14,-10.38 4.97,-13.33 -0.87,-3.64 -4.71,-0.41 -7.3,7.43 -3.27,7.55 -2.11,10.5 2.33,5.9z"/>
    <path class="fil0" d="M2145.42 2324.59c15.71,23.93 38.04,64.59 49.82,90.09 11.78,25.49 9.36,17.91 -5.33,-17.8 -22.07,-54.42 -66.66,-128.37 -71.12,-118.08 -0.6,1.37 11.6,22.15 26.63,45.79z"/>
    <path class="fil0" d="M2267.37 2361.14c7.62,10.64 12.22,15.08 11.95,10.07 -1.54,-9.64 -21.17,-37.72 -23.25,-32.91 -0.89,2.06 4.67,11.81 11.3,22.84z"/>
    <path class="fil0" d="M2291.67 2401.02c7.11,13.69 8.1,13.3 3.94,-1.55 -2.13,-8.26 -5.24,-16.14 -6.62,-16.73 -5.49,-2.38 -4.43,4.6 2.68,18.28l0 0z"/>
    <path class="fil0" d="M2489.47 2507.15c4.25,16.52 4.94,16.82 3.94,-1.56 -0.55,-10.02 -2.38,-18.97 -3.75,-19.56 -5.49,-2.38 -5.61,1.64 -0.19,21.11l0 0.01z"/>
    <path class="fil0" d="M2514.81 2578.47c1.33,11.99 3.66,17.9 5.15,14.46 1.78,-4.11 2.13,-16.2 0.8,-28.19 -1.32,-11.99 -3.36,-18.58 -5.14,-14.46 -1.49,3.43 -2.13,16.2 -0.81,28.19z"/>
    <path class="fil0" d="M1803.35 3305.62c4.11,1.78 10.11,1.12 13.95,-2.11 3.85,-3.22 1.4,-5.1 -4.98,-5.42 -14.44,-0.55 -18.58,3.36 -8.97,7.52l0 0.01z"/>
    <path class="fil0" d="M987.07 909.27c0.85,9.33 3.07,19.26 4.92,22.51 1.86,3.25 2.49,14.95 2.75,25.65l-0.58 20.14 7.74 -17.84c9.61,-20.3 32.54,-29.93 41.92,-17.71 4,5.81 5.88,3.36 7.3,-7.44 0.73,-11.09 6.45,-16.77 16.77,-18 13.66,-1.42 13.27,-2.4 -1.53,-9.64 -18.93,-9.01 -32.01,-27.73 -31.34,-46.2 0.61,-7.07 -2.93,-4.53 -7.69,6.46 -6.64,13.43 -12.45,17.43 -21.37,13.56 -14.42,-6.24 -21.54,4.53 -18.88,28.51l-0.01 0z"/>
    <path class="fil0" d="M1036.14 1016.15c3.44,1.48 6.3,-1.35 5.73,-5.68 -0.28,-5.01 -2.52,-9.24 -4.58,-10.13 -1.37,-0.6 -3.94,1.55 -5.72,5.67 -1.49,3.43 0.46,8.35 4.57,10.14z"/>
    <path class="fil0" d="M892.87 1361.74c4.12,1.78 10.11,1.12 13.96,-2.11 3.84,-3.22 1.39,-5.1 -4.99,-5.42 -14.44,-0.55 -18.58,3.36 -8.97,7.52l0 0.01z"/>
    <path class="fil0" d="M557.41 2193.97c5.49,2.38 41.57,43.3 80.67,90.41 97.94,118.28 114.8,126.41 234.38,119.54l89.51 -5.23 84.62 39.94c178.24,85.41 196.68,91.77 246.01,87.06 25.35,-2.05 55.35,-11.07 69.54,-21.22 30.34,-21.09 64.44,-71.54 52.08,-76.9 -4.8,-2.08 -15.95,8.58 -24.85,23.48 -20.87,34.98 -48.83,50.58 -93.93,53.05 -43.73,3.06 -85.51,-13.42 -186.55,-71.89 -83.7,-47.7 -113.53,-54.11 -235.95,-50.09 -126.44,3.9 -143.99,-4.52 -230.5,-109.7 -38.71,-46.13 -72.07,-80.16 -80.51,-81.37 -9.13,-1.52 -10.41,-0.44 -4.53,2.92l0.01 0z"/>
    <path class="fil0" d="M1060.44 1056.03l10.14 19.88 -6.2 -21.44c-3.98,-11.51 -7.87,-21.35 -9.24,-21.94 -5.49,-2.38 -3.76,4.89 5.3,23.5l0 0z"/>
    <path class="fil0" d="M937.62 1420.27c16.43,-5.92 19.17,-4.73 25.31,9.34 6.42,13.39 8.1,13.3 20.84,-4.83l13.64 -20.18 9.54 21.26c5.35,12.11 14.05,24.03 19.54,26.41 5.49,2.38 3.84,-3.22 -3.68,-12.19 -6.84,-8.68 -12.17,-26.48 -11.53,-39.25 2.45,-22.58 -2.88,-40.38 -10.75,-37.27 -1.97,0.77 -2.89,8.53 -2.43,16.88 1.3,17.69 -19.43,42.95 -31.79,37.59 -4.11,-1.78 -3.41,-7.18 1.03,-11.78 22.59,-22.01 24.97,-27.5 5.95,-13.73 -10.93,8.3 -28.07,19.63 -36.84,24.8 -16.63,8.28 -16.63,8.28 1.17,2.95l0 0z"/>
    <path class="fil0" d="M1155.02 965.75c10.52,-3.59 19.68,-7.78 20.57,-9.83 0.89,-2.06 -7.07,-0.62 -17.6,2.97 -10.52,3.59 -19.68,7.78 -20.57,9.83 -0.89,2.06 7.07,0.62 17.6,-2.97z"/>
    <path class="fil0" d="M946.83 1521.29c2.6,10.92 8.76,19.29 12.7,17.74 3.94,-1.56 1.85,3.25 -3.78,10.59 -9.47,10.58 -9.29,13.92 0.43,14.05 7.07,0.62 14.26,-2.78 16.34,-7.59 1.78,-4.12 6.17,2.68 9.56,15.56l5.6 22.81 7.67 -25.21c4.58,-14.33 11.99,-25.79 18.29,-27.14 7.96,-1.44 7.57,-2.43 -0.28,-5.01 -22.85,-7.46 -34.71,-15.86 -27.61,-20.94 3.84,-3.22 1.4,-5.1 -4.99,-5.42 -8.74,-0.53 -10.98,-4.76 -6.81,-14.37 3.57,-8.24 3.7,-17.96 1.16,-21.51 -4.68,-6.11 -10.61,1.92 -15.39,18.6 -1.2,2.75 -5.73,5.68 -10.05,6.25 -5.31,0.96 -6.52,9.4 -2.84,21.6l0 -0.01z"/>
    <path class="fil0" d="M1163.78 1033.97c8.05,0.22 28.76,5.13 45.91,12.56 48.95,18.77 55.03,19.78 37.23,0.65 -12.81,-13.71 -12.99,-17.05 -2.58,-16.61 11.09,0.73 12.58,-2.7 10.48,-16.66 -1.81,-14.64 0.67,-18.46 16.02,-25.67 11.12,-4.97 16.54,-9.95 12.42,-11.74 -3.43,-1.49 -20.46,5.81 -38.37,15.17 -35.74,20.38 -43.29,17.11 -29.61,-14.47 12.8,-29.51 73.53,-83.1 80.85,-71.77 4.3,5.13 5.29,4.74 4.92,-1.94 -2.19,-15.63 -16.95,-9.8 -51.46,20.91 -19.52,16.81 -37.3,40.91 -45.93,60.81 -9.52,21.96 -18.01,32.15 -25.38,32.22 -6.38,-0.32 -15.24,3.18 -19.97,8.46 -7.01,6.75 -5.24,8.33 5.46,8.08l0.01 0z"/>
    <path class="fil0" d="M963.64 1589.73c4.14,-3.91 6.13,-10.38 4.97,-13.33 -0.87,-3.64 -4.72,-0.41 -7.3,7.43 -3.28,7.55 -2.11,10.5 2.33,5.9z"/>
    <path class="fil0" d="M1124.17 1253.25c60.08,8.11 73.1,19.46 86.83,74.33 5.9,22.13 15.71,48.4 22.94,58.05 8.01,11.63 7.05,6.32 -2.1,-13.95 -7.99,-17.33 -10.69,-29.91 -5.59,-28.51 6.18,2.67 7.1,-5.08 3.35,-24.64 -3.87,-15.54 -4.03,-24.58 -0.41,-19.75 3.61,4.83 7.64,4.95 9.13,1.51 1.78,-4.11 5.03,-5.97 7.78,-4.78 19.79,12.66 25.6,8.65 15.56,-9.56 -7.41,-13 -7.96,-23.02 -1.94,-29.38 6.02,-6.36 5.44,-10.69 -3.48,-14.56 -9.61,-4.16 -9.89,-9.17 0,-24.46 6.44,-11.07 10.3,-20 8.25,-20.89 -2.75,-1.19 -22.45,12.28 -44.63,29.58 -22.17,17.3 -45.31,29.28 -50.8,26.9 -5.78,-1.69 -22.28,-3.13 -35.64,-2.4 -14.05,0.43 -17.99,1.99 -9.25,2.51l0 0z"/>
    <path class="fil0" d="M1293.43 941.77c4.15,-3.92 6.14,-10.39 4.97,-13.34 -0.87,-3.64 -4.71,-0.41 -7.3,7.43 -3.27,7.55 -2.11,10.5 2.33,5.91z"/>
    <path class="fil0" d="M1246.89 1340.7l14.03 29.72 -10.09 -31.28c-10.29,-28.92 -13.7,-36.1 -16.08,-30.61 -0.6,1.37 5.54,15.44 12.14,32.17z"/>
    <path class="fil0" d="M1198.51 1497.48c4.98,5.42 11.85,8.4 14.8,7.23 2.66,-0.48 0.03,-5.7 -4.96,-11.12 -4.99,-5.43 -11.85,-8.4 -14.81,-7.23 -2.65,0.48 -0.02,5.69 4.97,11.12z"/>
    <path class="fil0" d="M1278.31 1320.89c2.54,3.54 6.57,3.66 8.06,0.23 1.78,-4.12 -0.16,-9.04 -3.59,-10.53 -4.12,-1.78 -7.46,-1.6 -8.06,-0.23 -0.89,2.06 0.37,6.69 3.59,10.53z"/>
    <path class="fil0" d="M1325.77 1343.09c17.16,7.43 24.62,9.04 16.29,3.79 -7.64,-4.94 -21.37,-10.89 -30.88,-13.38 -8.84,-2.2 -2.57,2.15 14.59,9.59l0 0z"/>
    <path class="fil0" d="M1222.34 1602.39c5.46,8.08 12.81,13.71 15.07,12.25 1.97,-0.78 -2.12,-8.26 -9.95,-16.55 -16.43,-18.53 -20.57,-14.62 -5.12,4.3z"/>
    <path class="fil0" d="M1119.52 2332.44c1.38,0.6 35.29,-28.74 74.83,-65.41 58.08,-53.1 73.25,-63.65 78.13,-54.2 3.02,6.2 7.62,10.64 9.58,9.86 1.97,-0.77 -2.4,-13.27 -9.9,-27.93 -7.51,-14.67 -13.27,-22.06 -13,-17.05 0.97,5.31 -29.93,40.84 -68.4,78.8 -70.62,68.86 -75.36,74.15 -71.24,75.94l0 -0.01z"/>
    <path class="fil0" d="M1303.97 2078.08c1.38,0.6 9.25,-2.51 17.03,-7.29 13.39,-6.43 13,-7.41 -1.85,-3.25 -14.85,4.16 -20.67,8.16 -15.18,10.54z"/>
    <path class="fil0" d="M1482.83 1727.53c8.61,-14.21 22.52,-29.37 30.99,-33.86 19.97,-8.46 13.71,-12.81 -7.26,-3.96 -9.84,3.89 -19.52,16.82 -26.56,34.96l-11.81 29.13 14.65 -26.27 -0.01 0z"/>
    <path class="fil0" d="M1480.81 1788.63l12.08 24.8 -8.14 -26.36c-8.35,-24 -11.76,-31.18 -14.14,-25.69 -0.59,1.37 4.07,13.18 10.2,27.25z"/>
    <path class="fil0" d="M1296.3 2201.14c2.54,3.55 6.56,3.66 8.05,0.23 1.79,-4.12 -0.16,-9.04 -3.59,-10.52 -4.12,-1.79 -7.46,-1.61 -8.06,-0.23 -0.89,2.06 0.37,6.68 3.6,10.52z"/>
    <path class="fil0" d="M1496.45 1737.51c3.43,1.49 11.69,-0.64 18.87,-4.05 15.66,-7.89 11.81,-29.12 -3.81,-26.93 -11.31,1.63 -23.99,27.12 -15.06,30.98z"/>
    <path class="fil0" d="M1638.96 1672.09c1.85,3.25 5.9,-2.33 7.71,-12.15 2.79,-10.2 3.32,-18.95 1.94,-19.54 -5.49,-2.38 -14.35,25.58 -9.65,31.69z"/>
    <path class="fil0" d="M1858.18 1275.44c7.12,13.68 8.1,13.29 3.94,-1.56 -2.13,-8.26 -5.24,-16.13 -6.61,-16.73 -5.49,-2.38 -4.44,4.6 2.67,18.28l0 0.01z"/>
    <path class="fil0" d="M2115.5 668.62c5.81,-4 13.91,-15.17 18.08,-24.78l6.75 -17.46 -12.93 14.79c-6.91,8.41 -15.01,19.58 -18.07,24.78 -4.56,8.62 -3.87,8.92 6.17,2.67z"/>
    <path class="fil0" d="M1727.24 1632.08c6.47,1.99 15.72,-0.53 19.86,-4.44 4.74,-5.28 2.5,-9.52 -6.63,-11.03 -6.47,-1.99 -15.72,0.52 -19.86,4.44 -4.74,5.28 -2.5,9.52 6.63,11.03z"/>
    <path class="fil0" d="M1864.61 1313.28c2.22,9.93 5.83,14.76 7.62,10.64 1.78,-4.11 -0.05,-13.06 -3.46,-20.25 -8.28,-16.63 -9.76,-13.2 -4.16,9.61l0 0z"/>
    <path class="fil0" d="M1409.88 2409.38c8.3,10.93 11.35,11.44 15.22,2.51 2.38,-5.49 -1.72,-12.97 -9.27,-16.24 -7.55,-3.28 -14.32,-4.58 -15.22,-2.52 -0.59,1.37 3.5,8.85 9.27,16.25z"/>
    <path class="fil0" d="M1537 2338.09c2.78,14.25 7.52,33.43 12.69,42.19 6.63,11.03 6.84,8.68 0.53,-8.74 -4.08,-13.18 -6.18,-27.14 -4.69,-30.57 4.16,-9.61 -4.44,-44.32 -8.99,-35.7 -1.49,3.43 -1.35,18.17 0.45,32.82l0.01 0z"/>
    <path class="fil0" d="M1592.15 2421.52c9.61,4.17 13.64,4.28 9.73,0.14 -3.52,-3.16 -11.76,-6.73 -17.16,-7.44 -5.01,0.28 -2.17,3.14 7.43,7.3z"/>
    <path class="fil0" d="M1608.86 2396.15c15.61,3.5 26.98,-15.22 11.88,-21.76 -5.49,-2.38 -13.36,0.73 -17.71,7 -6.22,8.71 -4.67,12.65 5.83,14.76z"/>
    <path class="fil0" d="M1641.44 2428.21c1.37,0.6 9.25,-2.52 17.03,-7.3 13.38,-6.43 13,-7.41 -1.86,-3.25 -14.85,4.17 -20.66,8.17 -15.17,10.55z"/>
    <path class="fil0" d="M1680.82 2406.95c6.89,-2.72 11.33,-7.32 10.16,-10.27 -1.16,-2.95 -6.77,-1.3 -11.81,4.67 -8.28,7.82 -7.89,8.81 1.65,5.6z"/>
    <path class="fil0" d="M1705.49 2380.14c4.05,-5.58 8.22,-15.19 8.93,-20.59 -0.28,-5.01 -3.73,-0.8 -8.79,10.87 -4.76,10.98 -5.18,15.69 -0.14,9.72z"/>
    <path class="fil0" d="M2026.21 2074.78c-1.61,7.46 0.13,14.73 3.56,16.22 8.93,3.87 15.59,-15.26 9.04,-24.62 -6.24,-10.05 -9.79,-7.51 -12.6,8.4z"/>
    <path class="fil0" d="M2041.46 2139.28c6.89,-2.72 11.33,-7.32 10.17,-10.27 -1.17,-2.95 -6.78,-1.31 -11.81,4.66 -8.29,7.83 -7.9,8.81 1.64,5.61z"/>
    <path class="fil0" d="M2243.76 1917.12c8.42,6.91 20.43,24.35 26.95,39.4 9.33,23.62 10.41,24.9 9.2,8.88 -1.49,-21.03 -28.65,-58.08 -42.79,-59.31 -5.4,-0.71 -2.08,4.8 6.63,11.03l0.01 0z"/>
    <path class="fil0" d="M2218.33 2009.65c7.55,3.27 22.83,-11.3 19.72,-19.17 -4.67,-11.81 -14.3,-10.28 -19.95,2.76 -3.27,7.55 -3.21,14.92 0.22,16.41l0.01 0z"/>
    <path class="fil0" d="M2210.54 2063.35c10.71,-0.25 28.63,-9.6 41.15,-19.67 23.66,-20.73 41.94,-23.4 134.54,-15.06 29.96,2.38 50.09,2.95 44.21,-0.41 -5.49,-2.38 -41.62,-7.44 -80.31,-10.35 -38.4,-3.6 -70.71,-6.18 -71.39,-6.48 -0.69,-0.3 -1.05,-6.98 0.55,-14.44 0.62,-7.07 -2.84,-2.86 -8.88,9.2 -12.59,27.16 -32.11,43.97 -59.15,51.82l-19.77 6.11 19.06 -0.71 -0.01 -0.01z"/>
    <path class="fil0" d="M2487.32 2051.23c62.26,29.43 98.57,62.29 130.55,120.19 15.21,26.98 34.63,57.41 43.92,67.96 9.29,10.55 12.43,12.72 7.65,4.94 -4.78,-7.78 -25.47,-42.83 -46.44,-77.2 -42.35,-69.73 -77.88,-100.62 -141.44,-123.28l-38.95 -13.62 44.71 21.01 0 0z"/>
    <path class="fil0" d="M2687.78 2273.48c15.17,13.91 19.88,14.33 9.73,0.14 -5.08,-7.09 -11.74,-12.42 -14,-10.96 -2.66,0.48 -0.71,5.4 4.27,10.82z"/>
    <path class="fil0" d="M2735.94 2314.74c7.55,3.27 10.5,2.1 5.91,-2.33 -3.92,-4.15 -10.39,-6.14 -13.34,-4.97 -3.64,0.87 -0.41,4.71 7.43,7.3z"/>
    <path class="fil0" d="M2760.43 2333.5c7.55,3.28 10.5,2.11 5.9,-2.33 -3.91,-4.14 -10.39,-6.13 -13.34,-4.97 -3.64,0.87 -0.41,4.72 7.44,7.3z"/>
    <path class="fil0" d="M2782.73 2355.4c15.17,13.92 19.88,14.33 9.73,0.14 -5.08,-7.09 -11.74,-12.42 -14,-10.96 -2.66,0.48 -0.71,5.4 4.27,10.82z"/>
    <path class="fil0" d="M2818.22 2397.69c8.69,11.93 18.3,40.55 20.95,64.53 5.69,48.94 10.7,48.67 7.66,-0.75 -1.85,-27.72 -12.25,-52.61 -35.41,-83.85 -2.92,-4.53 -6.75,-7 -7.64,-4.94 -0.89,2.06 5.74,13.09 14.44,25.01l0 0z"/>
    <path class="fil0" d="M2839.16 2535.6c0.25,10.71 1.72,12.98 4.69,6.11 2.38,-5.49 3.8,-16.29 2.75,-23.27 -2.88,-15.93 -7.64,-4.94 -7.44,17.16z"/>
   </g>
  </g>
 </g>
</svg>
