<?xml version="1.0" encoding="UTF-8"?>
<!DOCTYPE svg PUBLIC "-//W3C//DTD SVG 1.1//EN" "http://www.w3.org/Graphics/SVG/1.1/DTD/svg11.dtd">
<!-- Creator: CorelDRAW 2021 (64-Bit) -->
<svg xmlns="http://www.w3.org/2000/svg" xml:space="preserve" width="42.3332mm" height="43.1798mm" version="1.1" style="shape-rendering:geometricPrecision; text-rendering:geometricPrecision; image-rendering:optimizeQuality; fill-rule:evenodd; clip-rule:evenodd"
viewBox="0 0 4233.32 4317.98"
 xmlns:xlink="http://www.w3.org/1999/xlink"
 xmlns:xodm="http://www.corel.com/coreldraw/odm/2003">
 <defs>
  <style type="text/css">
   <![CDATA[
    .fil0 {fill:#663333;fill-rule:nonzero;fill-opacity:0.058824}
   ]]>
  </style>
 </defs>
 <g id="Layer_x0020_1">
  <metadata id="CorelCorpID_0Corel-Layer"/>
  <g id="folha-removebg-preview_1.svg">
   <g>
    <path class="fil0" d="M3597.04 1154.66c-0.1,4.9 -9.37,8.99 -19.78,9.39 -24.49,0.72 -108.51,38.18 -127.86,56.76 -38.74,38.38 -50.93,125.66 -23.67,169.06 13.66,20.48 10.96,32.67 -5.47,28.04 -4.87,-1.32 -30.84,11.62 -56.89,28.22 -26.67,17.2 -50.15,27.74 -52.52,24.01 -7.71,-11.78 -41.2,9.56 -98,62.88 -49.92,46.72 -54.97,53.96 -84.76,134.15 -34.92,91.1 -66.95,220.21 -59.36,238.12 2.33,6.16 1.33,25.12 -3.92,42.15 -8.62,32.26 4.36,175.76 22.16,233.05 13.73,46.8 26.22,34.81 26.82,-24.55 -0.05,-27.55 3.52,-52.57 7.9,-56.76 3.74,-3.6 5.21,14.18 2.84,40.45 -2.98,25.65 -2.25,50.15 0.74,53.27 10.79,11.24 22.25,-10.56 21.66,-41.18 -0.55,-33.07 11.34,-75.67 24.45,-88.25 4.97,-3.58 4.8,4.99 -0.43,20.8 -11.03,30.99 -15.06,78.04 -8.47,84.91 2.4,2.5 20.18,1.03 39.24,-2.87l33.81 -7.27 6.17 -32.31c7,-42.71 46.31,-79.24 132.87,-121.54 94,-47.04 148.32,-99.18 161.74,-156.44 10.09,-44.48 -0.52,-94.28 -30.21,-138.95 -15.46,-22.36 -17.28,-23.01 -48.85,-5.9 -18.58,10.64 -61.16,27.51 -95.65,37.83 -34.49,10.31 -89.4,31.84 -122.77,47.06 -53.74,24 -56.82,24.55 -30.09,4.89 16.78,-12.5 71.82,-40.15 121.82,-60.55 131.51,-55.45 156.34,-72.08 175.69,-120.65 12.89,-31.57 13.22,-47.47 0.59,-88.13 -9.24,-27.12 -19.65,-56.72 -23.77,-64.76 -17.08,-32.79 8.21,-12.69 29.49,24.48 25.44,42.76 30.29,105.29 12.08,157.56 -7.85,24.32 -5.08,38.46 13.77,74.34 63.03,120.65 9.95,231.58 -149.04,313.41 -76.07,38.23 -124.04,79.48 -129.56,109.97 -4.08,19.5 -3.48,20.12 33.56,34.96 98.97,39.37 150.67,174.47 104.62,271.47l-10.87 22.43 32.89 8.02c17.66,4.64 45.53,18.68 61.81,30.64 78.96,59.77 46.03,202.94 -55.79,243.09 -16.65,6.39 -28.44,14.11 -25.45,17.23 16.78,17.49 363.48,154.96 424.41,168.45 11.59,2.08 11.14,-5.89 -0.44,-37.95 -8.74,-21.61 -14.38,-44.98 -12.43,-50.45 1.34,-6.1 -13.51,-27.82 -33.29,-48.43 -39.56,-41.21 -51.19,-70.82 -48.91,-122.19 2.17,-46.48 23.3,-91.96 60.76,-127.91 41.83,-40.16 76.3,-49.24 130.47,-34.06 125.36,35.62 170.95,200.6 79.17,288.7 -20.61,19.78 -74.85,38.25 -112.19,38.1 -37.96,0.44 -47.47,16.78 -34.24,58.06 12.66,39.43 40.63,48.57 146.59,45.23 164.77,-5.8 192.86,-2.78 211.37,20.25 20.27,26.12 13.3,67.6 -19.94,106.71 -28.87,34.91 -52.25,40.55 -101.47,23.02 -15.2,-4.6 -48.74,-10.8 -74.42,-12.55 -25.67,-1.75 -58.03,-5.47 -72.04,-8.81l-25.6 -5.43 2.79 42.91c3.74,56.39 -9.87,93.45 -47.96,130 -39.33,37.76 -81.21,50.37 -129.34,38.98 -102.36,-22.91 -153.52,-124.95 -109.41,-216.48 10.24,-21.82 19.18,-40.01 19.23,-42.45 0.65,-1.82 -58.94,-21.41 -76.62,-24.83 -14.63,-2.75 -13.61,67.05 2.7,256.53 35.16,405.31 9.15,569.43 -107.03,683.36 -33.12,32.98 -56.07,47.81 -100.5,65.27 -30.86,12.83 -61.15,27.51 -66.15,32.31 -17.48,16.78 -71.7,34.03 -114.58,35.6 -44.1,1.55 -164.32,-16.22 -173.91,-26.21 -3,-3.12 -37.83,-5.67 -76.99,-6.47 -54.47,-0.51 -84.34,-6.63 -123.12,-25.78 -43.03,-21.09 -56.44,-23.81 -79.89,-14.5 -41.33,15.68 -57.64,34.94 -66.41,74.54 -8.8,40.83 15.75,127.64 45.66,161.3 26.32,29.93 18.28,34.05 -53.77,25.22 -92.8,-11.7 -187.64,-73.01 -227.74,-147.28 -35.41,-64.39 -8.93,-161.78 51.05,-191.77 26.6,-13.53 31.65,-20.77 50.38,-68.75 11.64,-30.36 38.54,-88.58 59.6,-130.38 34.39,-65.4 47.6,-82.88 95,-125.98 30.57,-28.15 63.77,-64.8 73.91,-81.73 47.57,-81.66 150,-151.18 228.46,-156.92 19.01,-1.45 41.81,-8.94 49.92,-16.73 26.23,-25.17 69.93,-37.13 147.72,-39.82 113.93,-3.79 144.7,-11.73 190.13,-48.13 49.77,-39.38 84.52,-91.92 118.08,-176.93 30.32,-75.89 38.37,-80.01 11.12,-4.67 -42.92,122.76 -108.38,210.79 -175.63,236.96 -16.66,6.39 -29.05,13.48 -26.65,15.98 2.4,2.5 -9.24,2.87 -26.35,1.3 -41.53,-4.52 -149.39,1.84 -156.89,9.03 -3.12,3 15.04,13.16 41.19,21.65 25.52,9.1 46.74,18.71 46.1,20.53 -0.05,2.45 -26.85,-4.22 -59.66,-15.91 -32.82,-11.69 -67.58,-17.91 -78.04,-15.06 -10.47,2.84 -15.44,6.41 -11.19,8.33 3.65,1.3 37.66,14.24 75.34,27.25 63.18,23.33 129.11,62.02 157.22,93.81 6.6,6.87 -13.4,-2.72 -44.85,-21.73 -53.19,-32.91 -121.86,-56.97 -181.7,-64.31 -39.08,-4.48 -32.61,8.51 11.17,22.87 42.52,15.56 80.13,32.25 77.01,35.24 -1.25,1.2 -31.64,-9.22 -68.1,-22.2 -69.87,-25.3 -144.32,-36.63 -144.59,-23.16 -0.1,4.9 10.19,10.62 23.6,13.34 46.94,8.92 32.14,14.74 -27.77,11.06 -72.15,-3.93 -95.77,13.95 -26.75,20.87 42.75,4.55 108.5,21.82 102.26,27.81 -1.25,1.2 -24.42,-2.95 -51.84,-9.02 -49.32,-12.64 -115.48,-10.32 -129.84,3.46 -4.37,4.2 8.99,9.37 30.4,10.42l37.28 2.6 -41.63 0.37c-40.44,1.62 -61.49,13.43 -82.4,47.89 -9.51,16.33 -5.24,17.04 52.32,15.76 44.71,-0.92 88.01,6.71 145.15,26.24 108.2,36.49 112.32,44.53 9.46,16.11 -93.72,-26.41 -140.17,-29.81 -194.32,-16.23 -43.7,11.96 -43.78,15.63 0.15,22.65 17.08,2.8 31.04,8.6 31.59,11.67 -0.07,3.67 -21.48,2.62 -47.1,-1.58 -45.75,-7.67 -67.28,-2.6 -93.5,22.57 -10.62,10.19 -5.14,12.13 32.81,11.69 23.88,-0.13 45.88,1.55 47.68,3.43 3.59,3.74 -20.95,6.91 -78.52,8.18 -18.38,0.85 -29.47,4.29 -25.87,8.04 3,3.12 16.4,5.85 29.27,5.5 37.36,-1.07 26.72,10.34 -11.89,12.61 -19.01,1.45 -38.68,5.94 -43.06,10.13 -17.48,16.79 -5.97,22.53 36.99,17.29 45.4,-5.19 106.46,2.18 163.65,19.26 17.63,5.87 30.49,5.52 27.54,-0.04 -2.34,-4.95 -15.65,-12.57 -30.29,-15.31 -14.6,-3.98 -23.07,-9.04 -19.32,-12.64 3.74,-3.6 26.34,-1.3 50.69,5.32 23.72,7.22 46.95,8.92 51.95,4.12 10.61,-10.19 5.82,-15.19 -24.6,-24.38 -13.39,-3.95 -27.92,-11.59 -32.72,-16.59 -14.4,-13.76 41.09,-3.44 65.23,12.97 19.93,13.26 54.27,10.29 53.95,-3.79 0.7,-4.28 -12.01,-11.27 -26.6,-16.47 -15.81,-5.22 -27.29,-12.18 -27.82,-16.48 0.7,-4.27 20.78,1.65 45.05,11.94 53.39,23.13 81.67,17.59 45.46,-7.64 -16.88,-12.58 -19.25,-16.31 -8.29,-13.64 7.91,2 20.03,8.37 25.42,13.99 10.19,10.62 50.64,7.77 69.87,-4.69 4.97,-3.57 24.68,-9.29 43.73,-13.18 40.58,-8.97 45.68,-18.66 19.13,-37.56 -14.48,-10.09 -12.03,-10.04 9.79,0.2 16.38,7.07 34.69,9.89 41.51,5.75 14.89,-9.49 11.89,-12.62 -23.8,-33.55 -14.5,-8.86 -27.16,-18.3 -26.49,-21.35 0.05,-2.45 17.03,5.25 37.61,16.69 24.79,14.58 42.45,19.23 51.74,13.91 10.57,-7.74 9.42,-11.44 -7.49,-22.8 -11.46,-8.19 -28.39,-18.34 -36.86,-23.4 -15.73,-8.9 -15.73,-8.9 3.75,-3.6 10.36,2.05 29.14,11.62 41.82,19.83 25.95,18.29 43.95,5.8 28.6,-21.45l-11.24 -19.2 17.48 13.21c13.86,10.69 21.23,9.62 36.81,-4.14 30.57,-28.15 30.7,-34.27 1.81,-58.11 -34.94,-27.65 -28.1,-33.02 11.21,-9.57 30.84,18.38 59.14,11.61 38.16,-10.24 -8.39,-8.74 -7.14,-9.94 3.82,-7.26 7.92,2 16.58,-2.72 20.41,-9.99 5.12,-10.91 2.15,-15.26 -16.03,-24.2 -12.74,-5.77 -23,-12.72 -22.33,-15.76 0.05,-2.45 10.99,1.45 24.32,7.84 27.27,13.41 40.26,6.95 45.76,-22.32 3.42,-17.68 1.02,-20.18 -28.72,-32.42 -17.58,-8.31 -28.47,-14.66 -24.15,-16.41 4.92,-1.12 20.13,3.48 34.69,9.9 29.11,12.84 34.06,10.49 46.48,-27.82 5.82,-15.19 12.81,-27.9 16.48,-27.82 9.79,0.2 -26.23,85.15 -64.37,154.15 -17.78,31.47 -32.62,68.5 -32.89,81.96 -0.41,19.58 -1.68,22 -6.35,10.89 -5.24,-12.96 -12.06,-8.82 -57.64,34.93 -34.34,32.96 -70.38,59.16 -109.96,79.16l-58.17 30.64 -2.24 50.14c-3.38,105.21 -50.92,244.41 -97.12,288.76 -11.86,11.38 -19.46,23.48 -17.06,25.97 7.19,7.49 88.9,22.63 136.6,24.83 149.19,7.96 234.26,-110.88 238.82,-333.6 1.18,-57.51 3.21,-96.64 4.25,-88.05 14.73,117.82 7.76,189.3 -29.29,294.43l-22.1 63.21 32.69 -12.19c18.5,-6.96 50.17,-28.96 73.9,-51.74 96.15,-92.29 129.63,-262.38 108.64,-552.95 -4.26,-60.68 -11.8,-111.03 -15.44,-112.33 -3.65,-1.3 -9.04,-36.91 -11.22,-80.41 -4.98,-85.19 -8.98,-99.35 -20.62,-68.98 -10.94,26.1 -6.27,7.21 12.42,-68.3 9.22,-31.64 11.56,-56.69 6.05,-56.19 -4.3,0.53 -13.41,-2.72 -18.83,-7.11 -15.66,-12.57 -271.1,-152.46 -278.45,-152.61 -3.67,-0.07 -4.39,5.42 -2.07,11.59 3.55,6.19 6.14,28.89 6.94,49.72 2.59,52.69 -22.96,104.81 -70.89,143.61 -33.61,27.47 -43.48,30.94 -81.39,28.94 -29.94,-2.45 -48.17,-8.94 -62.55,-23.93 -16.18,-16.85 -28.97,-20.18 -68.83,-16.71 -34.31,1.75 -61.75,-3.1 -87.8,-16.49 -69.05,-35.69 -98.14,-79.75 -93.84,-140.26 1.87,-31.79 -0.48,-36.73 -24.07,-50.07 -78.04,-45.06 -88.42,-165.86 -22.41,-250.81 38.31,-47.57 38.26,-45.12 -7.09,-72.37 -21.75,-13.91 -70,-49.18 -106.73,-78.7 -54.79,-44.58 -67.5,-51.58 -73.22,-41.29 -3.79,6.04 -13.41,27.27 -22.35,45.45 -8.95,18.18 -23.48,40.53 -31.62,49.54 -16.86,16.18 -59.15,168.35 -62.08,221.54 -3.8,66.03 -33.33,192.74 -58.33,247.93 -48.76,109.18 -148.85,184.87 -230.64,173.39 -25.65,-2.97 -29.97,-1.22 -57.59,32.49 -58.37,70.42 -136.01,95.77 -212.58,68.49 -24.3,-9.07 -34.14,-6.82 -50.37,8.76 -29.94,27.54 -85.36,43.55 -142.85,41.15 -61.76,-3.11 -93.77,6.03 -123.12,34.2 -33.1,31.77 -46.11,69.45 -46.24,135.55 -0.67,33.04 -3.6,56.25 -6.59,53.12 -16.78,-17.48 -31.76,-123.07 -29.96,-211.17 1.23,-89.96 14.72,-150.89 46.54,-210.23 3.82,-7.26 -3.79,-53.94 -16.87,-102.56 -13.69,-49.25 -25.32,-108.86 -24.82,-133.33 0.63,-90.58 45.66,-167.39 116.06,-197.78 21.01,-9.37 60.67,-33.04 87.39,-52.69 27.35,-20.25 65.18,-44.57 85.56,-53.34 42.63,-19.32 127.36,-32.28 162.7,-24.21 15.24,3.38 33.69,-1.14 51.08,-13.03 51.52,-35.06 101.42,-50.57 163.27,-52.36 33.69,-1.14 63.11,-2.99 64.36,-4.19 1.87,-1.79 -3.27,-19.65 -10.19,-40.6 -11.01,-30.22 -15.18,-35.81 -24.44,-31.72 -29.05,13.48 -102.37,7.08 -141.13,-13.29 -58.13,-30.58 -93.24,-79.65 -116.61,-163.98 -1.15,-3.7 -16.56,1.49 -33.89,10.93 -66.85,36.58 -151.59,19.54 -210.32,-41.64 -17.38,-18.11 -35.86,-42.36 -41.1,-55.32 -15.78,-36.44 -13.95,-125.77 2.58,-156.04 11.46,-21.79 11.64,-30.36 0.1,-34.88 -7.89,-3.22 -31.49,-16.56 -52.66,-28.63 -50.22,-28.57 -75.67,-71.33 -78.11,-131.37 -2.62,-51.46 13.44,-88.47 54.03,-127.43 36.84,-35.36 73.22,-48.69 114.08,-41.12 15.86,2.77 29.94,2.45 29.39,-0.63 0.08,-3.67 -41.07,-56.54 -92.44,-118.8 -89.59,-108.34 -93.19,-112.09 -121.24,-117.56 -15.85,-2.77 -48.99,1.45 -73.64,9.51 -60.37,18.35 -106.59,63.93 -175.53,172.08 -44.91,70.7 -59.97,88.75 -85.36,103.53 -24.15,13.59 -38.56,29.82 -68.94,78.17 -66.43,105.75 -157.01,165.11 -261.8,170.92 -44.76,3.37 -65.68,9.06 -93.03,29.31 -55.92,40.48 -129.01,53.06 -192.24,32.18 -29.79,-9.79 -75.57,-16.24 -101.92,-14.94 -26.97,1.89 -72.72,-5.78 -101.89,-16.17 -131.88,-46.16 -221.19,-19.22 -290.69,87.09 -10.11,15.7 -20.13,26.52 -22.53,24.02 -5.39,-5.62 42.94,-213.97 61.8,-268.06 8.47,-24.92 24.48,-59.48 35.24,-77.01 10.77,-17.53 20.56,-47.32 22.76,-65.03 9.07,-84.28 58.57,-170.19 145.98,-254.09 26.85,-25.78 46.36,-51.69 52.23,-69.32 5.22,-15.81 29.79,-50.2 54.85,-77.84 63.88,-70.92 117.05,-96.76 204.01,-98.66 48.99,-1.44 82.18,-8.11 120.49,-25.69 28.45,-14.11 54.42,-27.04 56.3,-28.84 1.87,-1.79 -21.48,-27.37 -52.1,-56.77 -62.45,-58.81 -84.35,-95.37 -91.14,-152.44l-4.76 -36.21 -52.6 -32.3c-85.82,-53.17 -130.1,-133.04 -134.03,-239.63 -1.17,-32.46 -6.92,-50.94 -21.3,-65.93 -26.97,-28.09 -44.75,-86.61 -41.77,-142.25 1.38,-37.31 -3.14,-55.76 -24.49,-89.26 -25.47,-41.53 -48.97,-59.76 -130.08,-104.27 -28.47,-14.66 -10.59,-21.03 65.35,-23.14 105.94,-2.12 137.43,14.44 264.74,134.57 121.31,113.89 135.27,119.68 246.9,108.51 46.63,-5.17 79.61,-2.05 114.85,10.92 55.89,20.73 141.42,28.6 180.21,17.76 44.35,-13.78 117.75,-11.05 162.12,3.94 49.85,16.93 118.65,64.86 138.22,95.26 9.47,16.11 28.82,27.52 70.15,41.83 123.96,44.16 181.39,168.98 148.79,326.24 -5.39,24.37 -7.04,45.14 -4.6,45.2 2.45,0.05 19.53,-27.15 37.97,-60.44 17.8,-32.68 51.97,-87.07 74.67,-119.66 28.4,-41.66 51.43,-90.15 73.53,-153.36l31.9 -93 59.91 -56.31c54.33,-52.14 68.59,-61.03 167.41,-104.3 58.69,-26.34 122.4,-58.71 141.03,-71.79 40.41,-30.39 70.78,-78.73 70.23,-111.8 -1.17,-32.47 20.26,-92.62 35.78,-102.71 8.06,-5.35 8.44,6.29 -0.13,36.11 -17.79,61.46 -13.59,125.82 12.8,212.05 12.63,40.66 24.46,90.48 25.26,111.31 0.8,20.82 9.89,55.29 19.82,78.14 24.55,56.81 21.15,103.26 -11.82,158.9 -20.93,35.69 -25.55,52.12 -19.83,71.82 21.2,70.83 -14.6,174.76 -81.43,240.11 -71.18,68.32 -133.24,79.91 -268.54,51.43 -125.54,-27.06 -158.41,-6.31 -131.44,81.78 20.07,65.91 9.83,117.72 -32.78,165.82 -39.49,45.1 -98.67,65.92 -148.59,52.66 -41.41,-10.64 -40.96,-2.68 0.59,60.61 33.24,50.87 66.78,87.06 73.64,80.47 2.5,-2.4 11.42,-19.36 20.36,-37.53 44.03,-87.86 130.62,-131.38 207.75,-102.26 57.11,20.76 117.5,91.16 135.12,157.02 6.22,25.22 12.51,46.78 13.11,47.4 1.2,1.25 14.21,-6.45 29.72,-16.53 39.71,-26.12 101.97,-47.5 141.15,-47.92 105.32,-1.52 199.98,98.36 193.51,205.35 -1.2,28.74 3.42,42.3 21.4,61.03 30.56,31.84 48.56,79.34 48.18,127.69 -0.1,34.89 2.25,39.84 22.28,48.2 120.22,47.76 88.08,271.74 -40.1,284.42l-28.22 3.09 8.24 16.09c8.81,17.93 77.31,80.54 159.82,146.5 115.64,91.74 146.81,94.21 87.38,7.3 -76.06,-111.73 -97,-254.78 -55.41,-372.68 25.95,-71.7 75.35,-122.71 153.84,-159.67 100.12,-46.92 117.96,-110.82 60.28,-223.41 -26.47,-52.57 -34.46,-80.89 -34.88,-120.07 -1.24,-58.79 26.48,-127.39 68.94,-168.14 35.59,-34.16 104.24,-68.87 128.01,-64.1 14.04,2.12 30.12,-6.12 65.61,-35.38 82.19,-68.1 157.69,-78.18 325.9,-42.91 127.39,26.48 120.69,24.51 121.09,34.92l0.03 0.05zm-133.18 -12.52c-40.66,12.63 -93.3,42.78 -148.07,86.95l-51.03 40.58 40.62 -40.18c21.88,-22.2 58.56,-50.22 82.06,-61.98 50.12,-26.52 54.05,-38.69 10.54,-36.52 -27.57,1.28 -38.11,7.8 -79.94,47.95 -33.09,31.76 -46.75,41.28 -44.7,30.91 1.99,-7.91 16.48,-27.82 33.34,-44 30.59,-29.36 30.82,-40.38 0.77,-37.93 -13.48,0.95 -27.22,14.13 -70.53,66.5 -28.89,36.14 -59.04,73.47 -65.98,83.73 -10.74,16.31 -11.31,14.46 -2.27,-8.61 5.82,-15.19 27.3,-47.8 48,-72.47 41.38,-48.12 38.77,-69.6 -4.19,-34.36 -54.77,44.17 -135.29,210.24 -141.24,291.52 -3.52,52.57 6.89,52.17 21.43,-0.17 5.29,-19.48 11.69,-32.81 13.48,-30.94 1.8,1.87 -4.97,33.56 -15.51,70.08 -17.18,62.08 -22.36,105.43 -12.37,95.84 2.5,-2.4 7.07,-16.38 9.82,-31.01 3.97,-14.61 7.79,-21.88 8.89,-15.74 1.1,6.15 -2.35,25.05 -9.44,42.66 -6.47,17 -9.27,34.08 -6.27,37.21 8.39,8.74 7.76,9.33 36.87,-66.58 14.23,-37.66 27.72,-68.6 30.17,-68.55 2.45,0.05 -17.16,60.86 -43.74,133.16 -30.5,84.45 -46.56,121.46 -44.91,100.69 1.6,-18.33 -7.84,-65.66 -20.47,-106.31 -17.78,-58.51 -21.44,-88.59 -15.48,-141.11 3.83,-37.26 8.75,-68.37 10.62,-70.17 1.25,-1.2 1.8,31.87 -0.3,74.67 -2.1,72.8 25.26,201.29 40.24,186.9 3.12,-2.99 1.63,-19.55 -3.54,-36.18 -22.9,-77.6 -22.04,-209.18 2.57,-334.77 6.19,-33.54 9.27,-64.08 5.07,-68.45 -13.19,-13.74 -34.49,10.31 -36.34,40.87l-3.07 30.54 -1.29 -26.34c-2,-22.08 -4.37,-25.8 -16.06,-22.98 -8.59,1.05 -24.1,11.14 -35.34,21.92 -16.23,15.58 -17.66,25.35 -9.79,59.79 5.64,23.37 11.25,77.97 13.4,122.69 1.99,52.07 12.4,111.66 29.08,164.03 25.92,79.49 19.72,83.04 -9.32,6.54 -18,-47.5 -27.16,-108.29 -30.92,-193.44 -1.7,-36.76 -6.94,-79.72 -10.91,-95.1 -8.61,-27.72 -8.61,-27.72 -23.67,-9.66 -12.54,14.43 -12.14,24.84 0.77,52.04 8.81,17.94 16.7,51.15 17.47,73.2l1.65 39.21 -12.66 -39.44c-6.89,-22.17 -19.28,-45.08 -27.72,-51.37 -14.46,-11.31 -15.11,-9.49 -15.26,27.85 -0.58,28.14 10.38,60.81 34.5,108.43 21.18,42.06 35.03,82.74 36.38,106.64 0.17,21.43 6.44,44.21 12.43,50.45 8.99,9.37 8.34,11.19 -2.62,8.51 -10.96,-2.67 -17.81,2.7 -29.84,22.65 -12.69,21.78 -11.67,31.6 4.76,66.21 11.16,22.87 26.2,66.03 34.16,95.58 7.94,30.76 17.13,60.33 21.89,66.55 4.17,5.59 10.16,41.83 13.68,79.24 10.01,109.16 15.53,138.65 28.99,138.93 7.34,0.15 8.39,-21.25 1.2,-58.74 -14.3,-78.64 -13.72,-196.77 1.37,-276.03 14.51,-81.11 95.49,-299.2 147.74,-399.74 62.47,-121.14 173.01,-228.44 282.29,-274.56 23.45,-9.31 -4.99,-25.2 -31.47,-17.78l0.01 -0.01zm-164.14 183.95c-44.63,57.23 -108.17,171.01 -113.09,202.12 -2.8,17.09 3.42,12.32 45.85,-27.21 35.59,-34.16 66.01,-54.96 111.14,-76.69 34.61,-16.43 62.46,-31.16 62.48,-32.38 -0.58,-1.85 -4.54,-17.24 -9.71,-33.87 -5.15,-17.85 -3.82,-52.71 3.5,-81.33l12.66 -50.55 -35.36 23.16c-21.73,14.85 -51.07,43.02 -77.47,76.76l0 -0.01zm-1028.74 -1145.5c-1.25,1.2 -14.59,24.79 -29.87,53.86 -39.44,72.64 -113.24,149.48 -196.43,206.54 -37.86,25.55 -68.96,49.4 -68.4,52.47 -0.8,9.16 30.39,10.41 83.18,2.92 26.4,-3.74 90.48,-24.46 141.13,-46.68 88.91,-37.35 92.63,-39.73 96.17,-63.53 2.73,-13.41 0.23,-41.01 -4.86,-61.31 -4.49,-19.68 -7.81,-36.88 -5.94,-38.68 4.99,-4.79 28.12,61.79 28.29,83.22 0.37,11.63 3.29,18.43 7.04,14.83 10.62,-10.19 5.77,-42.73 -18.35,-120.35 -20.65,-67.75 -27.59,-87.48 -31.96,-83.29l0 0zm868.42 1023.47c-17.45,15.55 -29.5,35.51 -35.49,59.25 -13.96,54.19 -2.28,51.38 31.36,-7.31 15.91,-29.67 31.8,-58.11 35.59,-64.15 10.77,-17.53 -3.42,-12.32 -31.47,12.21l0.01 0zm-951.14 -959.67c-25.47,18.45 -78.27,85.93 -84.27,109.68 -5.24,17.03 75.88,-58.44 101.08,-93.42 20.18,-28.97 12.99,-36.47 -16.81,-16.26l0 0zm48.86 214.62c-76.57,32.71 -151.59,49.54 -242.86,53.18 -47.8,2.69 -57.04,5.56 -100,40.8 -92.13,75.24 -220.28,235.43 -213.56,266.17 5.56,27.05 174.13,105.18 218.26,102.41 11.03,-1 58.61,7.32 106.75,17.49 96.9,20.96 152.14,13.52 211.78,-29.33 39.13,-27.97 83.39,-96.84 93.56,-144.99 6.79,-32.91 1.9,-93 -9.48,-104.87 -3,-3.12 -32.55,4.85 -66.48,18.23 -80.84,32.01 -205.01,57.62 -260.03,54.05l-44.63 -2.75 40.44 -1.62c97.39,-3.52 259.33,-49.78 315.24,-90.26 35.39,-24.37 65.69,-69.05 71.93,-105.03 6.4,-43.33 -5.61,-54.59 -15.61,-15.01 -5.29,19.48 -21.2,49.14 -36.27,67.2l-27.59 32.48 20.43 -41.2c11.49,-23.02 23.1,-52.17 25.82,-65.58 2.73,-13.41 9.72,-26.12 15.89,-28.44 10.52,-5.29 0,-29.99 -20.45,-47.55 -4.2,-4.37 -42.38,7.09 -83.14,24.62l0 0zm-158.07 -142.18c-20.93,35.68 -29.02,42.25 -24.87,19.08 3.62,-27.48 -2.47,-28.82 -26.82,-5.45 -21.86,20.98 -77.38,131.85 -65.77,132.71 3.07,-0.55 30.94,-16.51 61.36,-37.31 49.65,-33.26 55.92,-40.48 70.06,-73.24 8.99,-20.62 19.88,-44.27 24.35,-53.36 14.68,-29.7 -20.56,-12.66 -38.31,17.58l0 -0.01zm-124 47.04c-21.87,22.2 -59.54,127.93 -48.7,136.72 12.63,10.66 36.41,-14.55 41.3,-44.45 3.4,-16.45 13.17,-45.02 22.13,-64.43 19.23,-42.45 12.74,-54.21 -14.73,-27.85l0 0.01zm-65.43 56.81c-19.56,28.37 -41.96,106.26 -35.52,120.47 10.01,19.18 30.27,-13.46 41.76,-66.48 6.72,-29.24 13.99,-55.42 17.11,-58.41 3.12,-3 2.62,-8.52 -0.98,-12.26 -4.19,-4.37 -12.28,2.2 -22.37,16.67l0 0.01zm2030.98 2120.9c-83.88,-28.65 -169.17,41.22 -170.6,140.96 -2.26,80.14 52.96,133.91 139.24,135.07 55.66,1.75 100.19,-20.6 121.2,-59.95 19.1,-36.34 20.51,-104.87 2.83,-138.28 -15.31,-29.69 -58.03,-65.46 -92.67,-77.8zm190.49 412.17c-231.03,13.02 -320.68,-2.89 -562.91,-100.28 -174.24,-70.29 -368.47,-180.16 -428.43,-241.37 -16.78,-17.49 -16.76,-18.71 3.37,-15.24 24.4,4.17 16.06,-7.01 -17.28,-23l-23.64 -10.89 2.99 33.11c1.95,24.53 8.42,37.51 24.1,48.85 21.72,15.14 21.72,15.14 -1.4,8.54 -34.09,-9.27 -24.73,11.73 12.28,27.79 45.51,19.91 45.38,26.03 -0.77,7.95 -63.13,-25.78 -37.36,1.07 46.14,48.07 42.98,23.53 129.48,73.66 192.96,112.29 63.51,37.42 145.24,81.33 179.8,97.34 35.19,15.41 80.07,35.91 99.47,44.88 29.11,12.84 40.13,13.06 67.35,-1.07 57.54,-30.04 117.95,-20.84 162.9,25.98 20.4,20.01 35.56,27.05 65.48,30.72 22,1.68 42.7,7 46.9,11.37 9.58,9.99 20.17,1.02 16.81,-13.74 -1.1,-6.14 -13.24,-11.29 -26.68,-12.78 -44,-3.35 -54.84,-12.14 -13.25,-10.07 26.29,1.16 42.27,-2.19 46.15,-11.91 3.19,-6.67 5.49,0.72 4.52,18.45 -1.93,34.24 3.96,45.38 19.95,42.04 6.14,-1.1 34.81,3.77 64.65,11.12 29.84,7.34 57.96,9.14 62.33,4.95 14.37,-13.79 50.03,-81.61 52.2,-98.1 3.7,-31.14 -20,-39.58 -95.99,-35.01l0 0.01zm-2298.2 -2403.04c-20.55,47.33 -17.18,62.09 8.42,37.52 15.61,-14.99 25.2,-64.98 15.01,-75.6 -2.4,-2.5 -13.14,13.81 -23.43,38.08zm1499.88 1662.58c-112.5,-65.96 -263.87,32.54 -274.19,178.01 -4.28,59.29 5.46,91.93 36.62,124.4 70.12,73.05 174.19,72.73 250.99,-0.98 72.42,-69.52 87.04,-155.53 42.34,-244.59 -14.73,-27.85 -23.72,-37.21 -55.76,-56.84l0 0zm-409.33 -426.45c-1.33,4.87 5.64,23.38 15.08,40.71 10.04,17.96 14.63,32.74 10.96,32.67 -3.67,-0.08 -13.19,-13.74 -20.2,-29.8 -15.86,-32.76 -29.19,-39.16 -46.05,-22.98 -6.87,6.6 -7.1,17.61 -1.18,27.53 9.49,14.88 8.89,14.26 -6.74,0.47 -22.2,-21.88 -30.99,-11.04 -22.6,27.69 3.92,17.83 4.29,29.47 0.7,25.73 -3,-3.12 -7.02,-16.06 -8.62,-27.72 -3.09,-28.22 -8.51,-32.62 -23.49,-18.24 -13.12,12.59 -6.43,44.55 23.98,113.73 11.17,22.88 15.13,38.26 10.34,33.27 -4.79,-4.99 -18.93,-32.22 -29.37,-60.59 -11.66,-28.39 -23.41,-51.89 -26.46,-52.57 -20.21,0.2 31.71,125.52 68.21,166.06 10.19,10.61 20.85,27.97 24.32,37.83 15.63,43.78 -68.79,-77.92 -110.54,-161.41 -6.47,-12.98 -11.94,-14.93 -18.81,-8.34 -5.62,5.39 -9.46,13.88 -7.74,19.43 1.12,4.92 -2.75,14.63 -9.62,21.23 -6.24,5.99 -12.96,35.23 -14.81,65.8 -4.18,54.39 -4.18,54.39 38.27,103.62 25.1,29.89 56.36,57.46 76.32,69.5 43.57,24.15 63.28,18.44 35.73,-11.51l-19.15 -21.2 24.79 14.58c39.93,22.86 49.52,2.85 15.99,-33.34l-27.55 -29.94 39.23 27.13c47.7,32.19 77.76,28.52 35.59,-4.17 -20.5,-15.11 -22.87,-18.83 -9.51,-13.66 14.58,5.19 12.24,0.25 -10.49,-25.93 -26.92,-30.54 -27.52,-31.17 -3.37,-14.76l24.72 18.26 -17.78 -28.52c-8.86,-15.48 -15.86,-32.76 -14.51,-38.85 1.35,-6.1 5,-4.8 7.92,1.99 9.91,24.08 59.78,99.78 65.29,99.28 3.05,0.67 2.75,-14.64 -0.54,-33.07 -8.39,-38.73 -2.32,-36.16 14.53,7.65 16.85,43.8 19.15,21.2 4.72,-51.32 -13.88,-69.45 -6.44,-74.2 10.57,-7.74 5.64,23.37 12.58,43.1 15.65,42.55 19.58,0.4 -15.69,-160.08 -50.38,-229.95 -19.4,-38.96 -60.07,-85.09 -63.42,-71.08l0.02 -0.02zm538.62 718.62c-29.72,-13.47 -58.36,10.43 -114.64,98.04l-12.01 18.73 3.7 -31.15c1.57,-17.1 -1.2,-31.23 -5.47,-31.94 -17.13,-0.35 -30.44,22.03 -34.19,55.61 -4.5,40.31 -13.02,37.69 -13.41,-2.72 -0.1,-25.1 -1.3,-26.35 -11.91,-16.16 -6.25,6 -12.66,20.55 -12.91,32.79 -1.7,23.23 -13.21,17.48 -12.74,-5.77 0.15,-7.34 -2.77,-14.13 -7.04,-14.83 -4.3,0.52 -7.59,12.08 -7.9,26.77 -0.57,28.14 4.82,33.76 89.48,84.46 35.06,21.53 50.89,25.53 82.83,20.06 106.87,-17.4 159.44,-133.85 91.72,-204.4 -11.99,-12.49 -28.24,-25.68 -35.51,-29.5l0 0.01zm-1075.82 -1058.32c-128.61,-56.5 -284.95,45.58 -294.7,192.9 -2.43,28.72 3.39,43.53 26.61,75.22 15.49,21.13 31.39,51.45 34.11,68.03 5.55,28.27 6.15,28.9 39.56,41.21 115.5,39.1 293.82,-90.08 294.52,-214.32 0.34,-75.9 -37,-136.03 -100.1,-163.03l0 -0.01zm-797.59 -805.94c20.62,68.98 6.06,62.55 -16.98,-7.7 -23.6,-73.32 -32.51,-86.36 -28.55,-40.98 2.88,39.24 -0.77,37.94 -17.03,-5.24 -24.42,-62.94 -37.41,-56.47 -25.37,13.56 9.81,58.96 8.81,137.9 -2.1,102.79 -3.97,-15.38 -9.27,4.09 -17.16,60.85 -6.43,44.55 -15.92,89.66 -20.39,98.75 -8.91,16.95 -0.4,49.57 17.58,68.3 5.99,6.25 11.19,-8.34 14.36,-43.77 8.4,-81.24 18.44,-63.29 11.81,21.05 -4.18,54.39 -0.58,88.13 14.47,130.06 10.99,31.44 22.08,57.99 24.52,58.04 2.45,0.05 10.87,-52.42 18.89,-115.3 15.15,-111.7 28.81,-181.2 33.3,-161.52 0.5,5.52 -3.35,44 -10.32,85.48 -5.75,41.5 -8.94,78.16 -5.95,81.28 5.99,6.25 6.02,5.02 30.2,-99.76 28.28,-125.52 21.29,-232.78 -18.86,-274.61 -12.59,-13.11 -12.69,-8.22 -2.43,28.72l0.01 0zm238.2 264.41c-29.17,-10.39 -72.2,-31.47 -95.74,-47.26 -22.95,-15.16 -43.53,-26.6 -45.4,-24.8 -1.87,1.8 -13.34,23.6 -25.48,48.44 -49.92,106.71 -77.36,220.61 -56.98,241.84 16.18,16.86 71.13,24.11 127.62,15.47 25.15,-2.54 37.36,-1.07 31.74,4.32 -6.25,6 -8.22,12.69 -5.23,15.81 6.6,6.87 -15.26,57.84 -24.42,57.04 -3.67,-0.08 -1.68,-7.99 4.04,-18.28 22.88,-41.16 16.26,-46.8 -48.64,-45.68l-62.46 1.17 1.72 35.54c0.2,20.2 5.89,41.13 11.88,47.37 6,6.24 35.24,12.96 65.21,14.19 59.91,3.68 92.67,-12.18 132.91,-64 22.03,-29.54 37.99,-91.65 26,-104.14 -2.99,-3.12 -18.45,4.52 -34.01,17.06l-29.25 23.27 28.75 -28.79c26.27,-27.62 27.6,-32.49 17.11,-58.41 -13.91,-38.24 -10.34,-63.26 15.26,-87.83 11.87,-11.39 20.63,-21 19.43,-22.25 -0.59,-0.62 -24.89,-9.69 -54.06,-20.08zm1974.01 2092.79c-36.06,-2.57 -70.62,11.41 -102.46,41.98 -90.53,86.9 -22.27,220.51 111.29,214.68 34.31,-1.75 47.27,-6.99 71,-29.77 31.84,-30.56 49.4,-81.01 40.29,-114.25 -14.23,-52.32 -76.11,-109.28 -120.12,-112.64zm-745.64 -771.82c-34.32,1.75 -33.02,-1.9 4.64,-17.66 10.49,-4.07 10.57,-7.74 0.3,-14.68 -7.84,-5.67 -21.95,-4.12 -37.46,5.96 -14.26,8.89 -31.54,15.88 -39.48,15.11 -11.61,-0.85 -11.56,-3.3 2.67,-10.96 26.65,-15.99 9.04,-23.08 -25.49,-10.32 -81.44,31.39 -134.17,125.18 -111.8,198.48 6.27,22.78 15.09,40.71 19.38,40.18 3.67,0.08 5,-4.79 2.65,-9.73 -2.32,-6.17 -5.67,-22.16 -5.99,-36.24 -1.37,-22.68 -0.17,-21.43 7.74,10.56 6.81,25.85 12.71,36.99 22.5,37.19 8.56,0.18 9.96,-8.37 4.84,-27.44 -5.19,-15.41 -5.29,-40.51 -1.91,-55.75l6.09 -28.64 1.6 41.66c3.72,57.61 22.72,86.15 62.35,93.7 34.76,6.22 44.71,-0.92 14.31,-11.34 -13.98,-4.57 -17.53,-10.76 -16.45,-33.39 1.9,-33.01 8.79,-40.83 15.63,-16.2 6.25,24 11.24,19.2 22.51,-22.8 11.31,-44.45 23.52,-42.98 18.92,2.23 -5.94,51.3 6.44,44.2 18.61,-11.86 6.67,-26.8 19.64,-62.03 29.78,-78.96 37.96,-60.44 37.98,-61.66 -15.93,-59.09l-0.01 -0.01zm-1664.57 -1750.42c-4.92,1.12 -1,18.96 7.14,39.93 16.38,37.06 17.8,57.29 5.56,57.04 -3.67,-0.07 -14.18,-24.77 -23.95,-56.19 -17.17,-57.89 -45.76,-96.43 -77.98,-107.49 -26.15,-8.49 -32.52,3.62 -13.34,23.6 9.59,9.99 17.8,27.29 19.4,38.96 2.05,19.63 1.45,19 -8.51,-2.62 -18.15,-40.16 -59.63,-77.13 -84.13,-76.4 -22.05,0.77 -22.08,1.99 2.34,34.93 38.06,54.65 34.26,60.69 -11.28,13.24 -42.56,-44.33 -71.77,-52.27 -37.74,-10.57 10.14,13.07 18.38,29.15 18.23,36.49 -0.18,8.57 -8.02,2.89 -25.29,-20.11 -25,-34.79 -46.13,-49.29 -55.49,-40.31 -3.12,3 11.76,23.5 33.34,45.98 26.37,27.47 49.52,62.83 70.66,106.11 38.73,81.59 69.49,103.65 46.45,33.39 -8.66,-25.27 -10.79,-41.23 -5.99,-36.23 4.79,4.99 14.11,28.44 19.75,51.82 10.16,41.83 42.87,88.41 48.16,68.93 1.35,-6.1 -3.06,-29.44 -9.91,-54.07 -7.46,-24.03 -9.59,-39.98 -4.76,-36.21 11.38,11.86 23.34,55.56 20.94,83.06 -0.95,16.5 5.47,31.94 19.25,46.3l20.98 21.85 2.98 -25.64 2.35 -25.05 1.22 30.02c1.82,30.64 24.02,82.51 36.26,82.76 3.67,0.07 6.79,-32.91 6.42,-74.54 -0.4,-40.41 0.93,-75.27 2.8,-77.07 9.37,-8.99 17.68,63.41 15.8,125.19 -3.15,64.21 4.79,94.97 19.77,80.59 9.99,-9.59 11.23,-249.5 1.49,-282.15 -6.81,-25.84 -28.06,-64.23 -47.74,-89.73 -3.6,-3.74 -10.26,-6.94 -15.19,-5.82l0.01 0.01zm1099.01 1211.2c-5.12,10.92 -36.44,45.78 -69.56,78.76 -32.49,32.39 -60.06,63.66 -59.54,67.95 -0.3,14.69 28.07,4.25 54.3,-20.92 16.23,-15.59 23.65,-19.11 22.24,-10.57 -2.59,7.3 -18.82,22.88 -37.46,35.96 -36.58,23.12 -48.77,50.42 -19.88,44.28 11.07,-2.22 12.86,-0.35 7.24,5.04 -4.37,4.2 -2.69,12.19 3.33,17.21 20.45,17.56 19.75,21.82 -4.2,25.62 -12.91,2.8 -24.05,8.69 -24.15,13.58 -0.1,4.9 -6.27,7.22 -14.18,5.22 -7.92,-2 -14.06,-0.9 -14.14,2.77 -0.92,15.29 63.23,20.88 100.2,9.4 72.1,-23.62 128.67,-95.92 124.45,-159.05 -2.29,-37.39 -23.14,-95.35 -42.32,-115.33 -14.99,-15.61 -18.06,-15.06 -26.33,0.07l0 0.01zm76.43 183.37c-5.67,7.84 -27.6,32.49 -49.48,54.68 -39.41,41.43 -45.9,59.66 -17.51,48 12.34,-4.64 12.29,-2.2 -0.82,10.39 -23.75,24 -5.7,39.06 25.29,20.1l24.78 -14.18 -17.64 24.12c-21.38,27.72 -15.71,49.87 9.07,35.69 11.76,-6.49 16.03,-5.79 13.4,2.72 -5.34,21.93 23.36,25.58 45.18,5.82l21.81 -18.52 -18.26 24.72c-10.74,16.31 -26.9,28.22 -42.31,33.41 -30.82,10.39 -28.72,27.57 2.6,22.7 35.61,-5.39 79.42,-52.24 88.83,-93.67 12.82,-57.89 0.21,-99.77 -40.02,-137.93 -31.24,-28.8 -36.08,-31.34 -44.93,-18.06l0.01 0.01zm-582.51 -578.13c-60.16,-21.43 -121.22,1.2 -165.95,63.32 -51.68,72.4 -47.51,167.97 11.8,231.01 49.69,54.27 72.74,64.54 127.33,58.92 41.11,-4.67 55.92,-10.48 78.39,-32.06 15.61,-14.98 28.02,-23.3 28.55,-19 -0.7,4.27 -10.77,17.53 -23.23,28.29 -26.17,22.73 -20.35,37.54 8.14,20.98 13.02,-7.69 22.53,-24.02 30.45,-52.02 6.6,-23.12 20.11,-55.29 30.87,-72.82 14.56,-23.57 16.11,-39.45 8.75,-68.37 -19.27,-75.07 -70.07,-135.49 -135.09,-158.24l-0.01 -0.01zm821.21 878.05c-19.86,-16.94 -43.93,-37.02 -53.59,-43.34 -16.91,-11.36 -17.53,-10.76 -17.94,8.82 -1.43,39.76 101.09,115.31 130.26,95.71 11.16,-7.12 11.24,-10.79 -3.9,-19.06 -9.66,-6.31 -34.36,-25.8 -54.84,-42.13l0.01 0zm395.67 435.96c-9.99,9.59 -3.8,36.03 9.06,35.69 8.57,0.17 12.89,-31.57 5.7,-39.06 -3,-3.12 -9.76,-1.42 -14.76,3.37zm-2131.54 -2201.92c-32.24,-9.84 -30.72,5.49 2.25,39.84 17.98,18.73 50.22,58.56 72.24,89 60.13,82.64 81.81,70.23 30.99,-18.95 -19.47,-35.29 -85.43,-102.75 -105.48,-109.89zm1754.57 1839.18c-4.92,1.12 -20.68,-6.55 -33.94,-16.61 -13.88,-9.46 -27.84,-15.26 -30.34,-12.86 -8.12,7.79 19.95,72.02 39.72,92.62l17.98 18.74 14.79 -34.59c14.14,-32.77 10.84,-51.2 -8.21,-47.3l0 0zm-1580.25 -1593.83c-98.79,-77.92 -271.62,-156.75 -329.29,-150.59 -8.59,1.05 -20.15,-2.25 -24.35,-6.62 -4.79,-4.99 -37.06,-13.61 -72.44,-19.23 -35.39,-5.63 -87.16,-18.31 -116.35,-27.48 -63.23,-20.88 -186.17,-85.23 -233.14,-122.91 -18.68,-14.46 -36.21,-25.23 -38.7,-22.83 -5.62,5.39 -3.53,52.57 3.31,77.19 5.2,15.41 8.17,19.75 13.16,14.96 3.75,-3.6 10.42,-0.4 13.94,7.02 4.12,8.04 16.58,27.27 27.89,42.81 18.43,26.69 20.25,27.34 18.21,7.72 -2.02,-20.86 -0.8,-20.83 20.18,1.02 20.97,21.86 21.55,23.7 3.06,29.45 -17.23,4.54 -23.87,0.12 -46.57,-27.28 -31.66,-37.98 -38.53,-31.39 -10.02,10.82 17.23,25.45 29.92,33.66 89.48,54.47 86.87,31.77 184.12,35.6 266.06,9.73 32.67,-10.96 51.1,-14.25 39.96,-8.36 -80.47,43.65 -206.73,52.08 -292.36,19.11 -29.15,-11.62 -61.31,-25.13 -70.4,-29.6 -15.16,-7.04 -16.44,-4.62 -13.49,30.94 11,150.19 167.33,258.07 386.32,265 85.03,2.35 140.93,-6.91 224.21,-38.87 27.77,-11.06 40.06,-13.26 27.65,-4.94 -96.1,59.85 -272.07,74 -405.27,32.71 -24.32,-7.84 -47.5,-11.99 -50,-9.59 -2.5,2.39 3.07,29.44 13.48,59.03 19.58,60.39 71.37,131.84 119.64,165.88 47.05,34.02 48.02,16.29 1.3,-33.63 -25.15,-27.45 -47.17,-57.89 -53.51,-77l-10.99 -31.45 17.85 24.86c9.52,13.66 42.41,51.67 71.72,84.71l53.89 58.64 46.85 -16.18c53.64,-19.1 130.16,-19.37 181.23,-2.4 39.51,13.66 60.38,10.42 122.15,-16.48 22.87,-11.16 38.88,-15.73 35.14,-12.13 -3.78,4.82 -27.28,16.58 -51.97,27.09 -24.08,9.92 -43.88,20.53 -43.91,21.75 -0.07,3.67 162.94,113.51 227,154 29.02,17.73 38.16,19.76 42.68,8.22 3.22,-7.89 10.76,-17.53 16.36,-21.7 5.59,-4.17 24.27,-19.7 41.08,-33.44l32.34 -25.04 -29.66 -75.9c-38.4,-97.5 -77.83,-174.82 -124.18,-243.09 -47.51,-70.76 -73.88,-98.23 -139.53,-150.38l-0.01 -0.01zm1761.74 1847.89c-90.93,-43.48 -218.3,18.79 -257.21,125.72 -20.11,55.3 -4.87,118.65 35.53,148.25 33.78,23.95 105.05,40.71 135.85,31.55 30.16,-8.56 34.16,-24.4 4.72,-21.33 -18.41,2.08 -18.38,0.85 7.07,-16.38 17.38,-11.88 24.3,-20.92 19.5,-25.91 -3.59,-3.75 -10.33,-3.28 -15.33,1.52 -4.99,4.79 -12.41,8.31 -16.66,6.39 -4.27,-0.7 3.28,-10.34 16.36,-21.7 37.39,-32.29 38.02,-32.89 35.17,-13.36 -2.05,10.36 -1.65,20.78 0.75,23.27 6.59,6.87 32.31,-23.82 32.62,-38.5 0.22,-11.01 2.1,-12.81 7.49,-7.19 7.79,8.11 30.17,-8.57 30.47,-23.25 -0.53,-4.3 5.17,-13.36 11.44,-20.58 8.77,-9.61 11.21,-9.57 12.81,2.1 0.45,7.97 -2.82,18.31 -7.19,22.5 -9.37,8.99 -8.2,41.46 1.59,41.66 18.96,0.99 37.67,-105.74 23.64,-137.86 -9.96,-21.62 -54.36,-65.38 -78.61,-76.89l-0.01 -0.01zm-1945.33 -2029.16c-12.74,-5.77 -9.84,2.25 11.61,30.84 30.39,40.41 55.71,59.29 59.71,43.46 3.27,-10.34 -47.67,-63.41 -71.32,-74.3l0 0zm-71.05 -27.78c-25.39,-15.21 -61.68,-36.76 -80.43,-47.55 -18.73,-12.02 -39.4,-18.56 -44.98,-15.61 -7.41,3.52 -6.26,7.21 4.65,12.33 8.49,3.85 38.61,27.72 67.45,54.02 52.28,46.98 118.34,79.55 122.98,61.89 3.35,-14 -18.27,-34.04 -69.67,-65.09l0 0.01zm1331.46 1398.38c-6.8,2.92 -10.07,13.26 -7.23,23.72 6.82,25.85 22.47,38.41 33.09,28.22 4.99,-4.79 3.97,-14.61 -2.62,-21.48 -6.59,-6.86 -8.87,-15.48 -5.74,-18.48 9.36,-8.99 -2.7,-17.81 -17.51,-11.99l0.01 0.01zm191.03 236.51c-14.21,6.44 -12.72,22.99 1.89,26.97 4.87,1.32 15.36,-2.75 21.6,-8.74 13.74,-13.19 -3.74,-26.4 -23.49,-18.23zm-159.29 -172.2c-17.21,3.32 -16.99,22.29 0.72,24.49 8.54,1.4 17.75,-0.25 20.88,-3.25 7.49,-7.19 -9.32,-23.44 -21.6,-21.25l0 0.01zm408.57 463.15c-30.24,-17.75 -92.92,-65.56 -139.22,-106.29l-84.8 -73.35 26.39 56.24c14.68,30.29 24,53.74 20.4,50 -4.22,-3.15 -6.09,-1.35 -6.24,5.99 0.4,10.41 158.05,143.41 216.6,183.17 29.59,19.58 40.88,6.35 10.72,-15.08 -55.49,-40.31 -84.36,-65.39 -76.42,-64.61 4.3,-0.53 31.49,16.55 59.83,37.33 28.35,20.79 54.97,36.02 59.91,33.67 7.42,-3.52 -8.31,-42.4 -27.96,-69.12 -1.78,-3.1 -28.37,-19.56 -59.21,-37.94l0 -0.01zm-379.49 -389.11l-29.39 0.63 14.98 15.61c15.58,16.23 57.11,20.75 57.42,6.07 0.92,-15.28 -13.61,-22.93 -43.01,-22.31zm-107.08 -121.55c-13.58,5.84 -3.24,39.11 13.81,43.13 10.96,2.67 14.06,0.9 15.61,-14.98 2.25,-20.16 -13.96,-35.79 -29.42,-28.15zm891.81 927.84c-1.87,1.8 -6.57,21.9 -9.47,43.88 -9.27,64.08 -23.38,95.62 -60.84,131.58 -36.22,34.76 -36.29,38.43 -1.73,54.44 49.1,23.65 125.27,-19.47 147.4,-83.9 10.34,-26.72 8.07,-35.33 -9.86,-56.51 -20.92,-24.3 -28.87,-25.07 -32.34,-4.95 -0.13,6.12 0.07,-3.67 1.65,-20.77 2.27,-21.38 -2.3,-37.39 -13.68,-49.25 -9.59,-9.99 -19.25,-16.31 -21.13,-14.51l0 -0.01zm-1597.9 -1628.46c-38.26,15.13 -57.62,33.7 -46.83,44.94 4.79,5 8.29,13.64 6.34,19.11 -1.95,5.47 -4.97,3.57 -7.89,-3.22 -7.57,-19.13 -33.66,-30.07 -33.96,-15.39 -0.15,7.34 56.41,85.01 124.97,173.95 68.6,87.71 146.71,189.08 173.53,224.52 66.17,86.44 71.59,90.84 84.7,78.25 9.99,-9.59 5.82,-15.18 -32.61,-51.47 -52.87,-48.82 -72.9,-87.18 -74.79,-144.15 -1.07,-37.36 -5.14,-47.85 -44.54,-96.4 -66.27,-81.55 -93.47,-128.62 -104.55,-185.16 -6.76,-28.3 -11.79,-52.27 -12.36,-54.12 -0.57,-1.85 -15.36,2.74 -32.01,9.14zm-723.25 -759.74c-11.56,-3.3 -5.02,6.01 22.53,35.96 35.36,36.84 60.18,50.2 72.67,38.22 5.61,-5.4 -75.72,-68.89 -95.2,-74.18zm2234.19 2330.11c-10.69,13.86 -8.99,20.63 20.88,56.74 23.87,29.87 34.71,38.66 38.53,31.4 6.42,-14.56 -11.51,-65.74 -30.68,-85.71 -14.39,-14.99 -19.28,-15.09 -28.73,-2.43zm-777.28 -811.03c-5.54,1.72 -10.58,8.96 -10.74,16.3 -0.22,11.01 3.4,13.54 14.46,11.32 7.99,-1.67 17.23,-4.55 20.35,-7.54 6.87,-6.59 -11.78,-22.28 -24.07,-20.08l0 0zm154.94 205.16c-17.78,1.47 -17.8,2.7 -2.65,9.74 9.72,3.87 24.85,12.14 33.29,18.43 18.73,12.02 29.84,7.35 22.23,-9.34 -5.87,-12.36 -27.75,-20.15 -52.87,-18.83l0 0zm-223.49 -265.33c-22.5,-7.19 -33.71,2.37 -19.93,16.73 15.58,16.24 38.16,19.76 41.48,6.97 3.35,-14 1.55,-15.88 -21.55,-23.7l0 0zm-194.3 -166.19c-52.22,-20.66 -123.32,-15.99 -161.21,10.78 -82.62,58.9 -99.55,168.74 -36.03,234.92 83.33,85.57 215.97,65.02 273.24,-41.53 12.74,-24.23 23.72,-52.77 25.2,-64.98 4.15,-53.17 -39.88,-115.28 -101.21,-139.18l0.01 -0.01zm316.86 338.86c-6.12,-0.12 -6.12,-0.12 6.86,53.4 12.43,50.44 27,56.86 57.59,27.5l18.11 -17.38 -39.14 -32.02c-21.08,-16.96 -40.97,-31.45 -43.42,-31.5l0 0zm-1580.42 -1645.25c-17,-6.47 -33.46,-9.87 -36.58,-6.87 -6.25,5.99 33.31,47.2 59.3,63.04 18.76,10.78 18.78,9.56 2.75,-14.64l-17.23 -25.45 25.22 23.78c13.81,13.14 31.91,25.75 39.83,27.75 26.8,6.67 -39.28,-54.67 -73.29,-67.61l0 0zm2247.4 2402.62c-47.25,35.75 -82.99,47.27 -145.42,47.21 -45.9,-0.33 -49,1.44 -53.09,22.17 -10.27,53.05 56.38,116.23 131.47,125.73 63.51,7.42 135.14,-22.94 154.99,-65.99 12.79,-26.67 -5.64,-23.38 -37.48,7.19 -19.98,19.17 -41.68,32.81 -54.57,34.38 -19.63,2.05 -19.6,0.82 2.07,-11.59 38.39,-21.25 77.25,-65.74 74.58,-84.78 -0.42,-9.19 2.18,-16.48 7.07,-16.38 15.91,0.33 3.9,-40.93 -18.88,-64.65l-21.57 -22.48 -39.16 29.19 -0.01 0zm-578.94 -633.14c-10.33,-3.28 -29.84,-7.35 -43.9,-8.25l-25.07 -1.12 -16.96 51.07c-11.09,33.43 -26.33,60.05 -44.43,77.43 -24.35,23.38 -26.3,28.84 -18.29,55.94 6.32,20.33 19.4,38.96 44.05,60.89 31.27,27.57 33.64,31.29 16.55,28.49 -24.99,-4.8 -45.34,-27.25 -64.67,-69.88 -16.98,-37.69 -16.38,-37.06 -36.91,-20.96 -19.88,14.28 -8.12,67.78 20.05,97.13 55.76,56.84 181.8,59.42 239.87,3.68 40.58,-38.95 51.5,-123.81 22.81,-187.45 -14,-33.34 -60.28,-75.3 -93.09,-86.99l-0.01 0.02zm-270.73 -289.57c-10.87,-7.56 -20.55,-12.66 -21.8,-11.46 -0.62,0.6 -8.35,18.8 -16.73,40.06 -18.06,44.92 -71.21,99.53 -111.3,114.02 -23.42,8.09 -28.44,14.11 -40.11,45.69 -51.93,144.62 43.73,285.53 183.01,269.4 47.25,-5.76 116.56,-42.29 141.71,-74.83 33.99,-45.82 49.43,-112.23 38.29,-166.32 -9.56,-41.21 -16.62,-54.82 -50.19,-89.79 -32.96,-34.34 -48.07,-43.83 -87.62,-55.04 -26.77,-7.9 -40.11,-14.29 -30.92,-14.72 9.82,-1.02 28.7,3.65 42.66,9.45 57.63,25.05 33.84,-8.49 -47,-66.46l0 0zm-1594.21 -1599.62c-40.82,-38.79 -89.55,-80.79 -110.07,-94.68 -35.01,-23.98 -129.28,-53.46 -129.54,-41.22 -0.07,3.67 11.44,9.42 26.08,12.16 14.6,3.98 26.12,9.72 26.64,14.02 -0.7,4.27 -6.82,4.14 -14.71,0.92 -7.26,-3.82 -15.83,-4 -18.95,-1 -8.74,8.39 12.91,27.2 47.49,41.98 23.05,10.27 54.32,37.84 117.84,104.02 47.35,49.33 92.37,92.49 99.64,96.31 25.47,11.54 21.45,-1.4 -8.56,-30.17l-29.42 -28.14 29.59 19.58c16.93,10.14 47.7,32.19 70.02,47.95 22.33,15.76 49.57,30.4 60.56,31.85 18.31,2.82 14.13,-2.78 -36.31,-50.33 -31.83,-29.42 -90.07,-85.09 -130.3,-123.25zm861.29 983.53c-20.73,-4.1 -34.66,-11.11 -32.11,-15.96 5.12,-10.91 -40.13,-43.05 -48.87,-34.66 -3.13,3 -15.81,-5.23 -28.4,-18.34 -44.94,-46.82 -181.69,-124.3 -239,-135.27 -45.73,-8.89 -43.51,2.17 6.16,27.67 24.23,12.74 68.25,44.86 96.47,71.76l51.64 48.8 -55.36 -46.43c-55.98,-45.83 -138.24,-94.03 -176.63,-102.78 -10.96,-2.67 -36.11,-0.13 -55.81,5.59 -20.33,6.32 -56.52,9.86 -80.99,9.36 -51.99,-1.68 -68.7,7.16 -43.31,22.37 14.51,8.87 12.66,9.44 -9.24,2.87 -23.72,-7.22 -35.41,-4.39 -47.37,11.89 -1.9,3.02 -10.54,6.51 -19.73,6.94 -8.59,1.05 -17.88,6.37 -21.08,13.04 -2.57,6.06 -21.03,10.58 -40.61,10.18 -50.14,-2.25 -51.54,6.29 -1.7,23.23 40.11,14.28 217.59,105.45 227.75,117.29 2.38,3.72 -8.59,1.05 -23.8,-3.55l-28.6 -8.54 10.62 19.81c6.49,11.76 6.41,15.43 -0.21,9.78 -6.01,-5.02 -40.48,-25.92 -76.78,-46.25 -35.71,-19.71 -71.4,-40.64 -79.84,-46.94 -28.87,-25.07 -172.06,-56.77 -207.77,-46.49 -18.46,4.52 -51.48,32.62 -45.49,38.86 1.8,1.87 20.08,5.92 40.21,9.39 20.75,2.87 37.79,8.12 37.11,11.17 0.55,3.07 -21.48,2.62 -47.7,-2.21 -51.24,-8.39 -87.7,8.62 -66.73,30.47 9.57,11.21 9.57,11.21 -6.87,6.59 -18.25,-5.27 -29.44,3.07 -34.79,24.99 -3.29,11.57 0.33,14.09 21.7,16.36l26.28 2.38 -31.3 3.64c-31.89,3.02 -54.86,19.07 -60.83,41.6 -1.4,8.54 14.45,11.31 55.54,7.87 72.97,-6.46 148.61,6.1 239.17,37.95 39.51,13.66 73.59,22.93 77.34,19.34 3.12,-3 -21.68,-17.58 -55.67,-31.75 -33.99,-14.16 -61.23,-28.8 -61.18,-31.25 0.2,-9.79 51.3,5.95 107.06,32.8l53.34 25.58 -17.94 8.81c-10.51,5.3 -41.45,21.8 -69.92,37.13 -29.7,15.31 -39.56,18.78 -24.65,8.07 14.91,-10.72 32.89,-21.98 39.68,-24.9 6.8,-2.92 9.34,-7.77 6.34,-10.89 -11.38,-11.86 -184.42,-50.91 -234.56,-53.16 -75.85,-2.77 -190.8,21.19 -135.26,29.06 17.7,2.2 17.08,2.8 -8.74,8.39 -15.98,3.34 -32.67,10.96 -37.09,17.6 -6.32,9.66 -0.82,10.39 23.78,4.77 17.2,-3.32 33.76,-4.81 36.76,-1.69 2.99,3.12 -9.34,7.76 -26.53,9.86 -38.06,5.34 -80.11,26.52 -77.29,38.2 1.12,4.92 13.96,5.8 28.12,1.8 35.08,-9.68 26.34,-1.29 -16.86,16.18 -32.72,13.41 -52.09,33.21 -41.91,43.83 3,3.12 23.33,-3.2 46.18,-13.14 27.2,-12.91 72,-18.72 139.38,-21.01 54.49,-0.72 116.35,-2.52 137.2,-4.54l38.64 -3.5 -32.02 9.14c-17.85,5.14 -74.27,10.11 -125.71,11.51 -90.63,1.81 -156.41,15.77 -199.76,40.59 -33.47,20.12 -19.61,30.81 18.67,14.45 19.76,-8.16 35.74,-11.51 35.67,-7.83 -0.08,3.67 -16.19,13.13 -35.32,20.7 -86.41,34.95 -20.27,33.86 189.85,-4.68 40.53,-6.52 70.6,-10.18 68.11,-7.79 -13.12,12.59 -74.68,29.69 -137.91,38.81 -38.06,5.34 -74.35,13.77 -79.94,17.94 -4.99,4.8 -30.32,15.91 -55.59,24.58 -44.43,17.45 -83.14,54.61 -61.21,59.95 6.09,1.35 1.62,10.44 -8.99,20.63 -48.08,46.14 -34.97,63.55 19.1,23.65 21.15,-16.71 47.8,-32.69 57.67,-36.16 15.41,-5.2 15.38,-3.97 -0.73,5.5 -40.91,24.86 -123.17,96.63 -117.18,102.88 3.6,3.74 26.52,-9.87 52.05,-30.77 24.89,-20.3 67.68,-46.97 94.87,-59.87l49.45 -23.47 -37.93 29.21c-20.53,16.11 -41.59,27.92 -45.83,26 -12.12,-6.37 -140.04,142.81 -131.05,152.18 3,3.12 16.06,-7.02 29.25,-23.28 33.29,-41.55 380.84,-304.37 513.55,-388.57 62.64,-39.72 148.13,-89.39 191.4,-110.54 100.8,-49.96 278.24,-106.31 369.67,-117.3 66.87,-7.81 275.4,1.97 286.79,13.84 3,3.12 8.51,2.62 11.64,-0.38 10.61,-10.19 -8.72,-22.83 -46.5,-30.95l-0.02 0.01zm-1.9 33.02c-77.49,-12 -222.01,-8.83 -228.41,4.5 -2.57,6.07 -6.87,6.59 -9.19,0.42 -15.21,-34.59 -423.35,108.86 -460.54,161.35 -6.3,8.44 -14.99,14.38 -18.61,11.86 -16.36,-8.29 -293.15,177.01 -385.4,258.37 -26.2,23.95 -64.11,51.94 -83.29,61.95 -17.96,10.04 -33.49,21.35 -33.57,25.02 -0.67,3.05 21.33,4.73 48.27,4.05 26.95,-0.67 63.58,3.75 81.81,10.25 18.23,6.49 54.87,10.92 80.59,10.22 26.95,-0.68 44.03,2.12 38.41,7.52 -14.99,14.38 -85.96,12.92 -138.28,-2.84 -55.96,-17.06 -128.18,-17.31 -144.45,-0.5 -9.36,8.99 -8.16,10.24 8.45,6.29 49.79,-10.61 98.07,-6.56 156.43,13 132.53,44.34 187.4,25.26 269.44,-95.48 37.87,-55.54 78.45,-154.48 93.42,-227.63 5.42,-25.6 10.71,-45.07 12.51,-43.2 1.8,1.87 -2.47,31.17 -10.52,65.28 -25.78,123.12 -85.93,250.43 -144.62,306.76 -14.98,14.38 -23.85,28.9 -20.85,32.02 3.59,3.74 32.29,7.39 64.7,8.67 44.65,1.52 70.48,-4.07 102.65,-20.55 121.87,-63 214.25,-210.46 238.51,-378.9 8.57,-59.81 9.25,-62.86 6.47,-17.01 -7.25,114.93 -35.35,201.88 -91.44,280.92 -39.09,55.52 -41.19,68.33 -12.37,65.85 87.08,-8.01 195.67,-79.85 249.47,-166.28 39.89,-64.68 77.01,-173.48 91.85,-270.5 11.97,-76.27 12.59,-76.87 9.62,-21.23 -1.87,31.79 -13.59,95.82 -24.94,141.5l-21.9 83.41 24.27 -19.71c13.69,-10.73 45.16,-52.94 70.48,-94.04 72.21,-118.49 129.47,-165.06 213.51,-173.75 53.37,-5.64 40.13,-16.93 -32.49,-27.6l0.01 0.01zm276.5 306.81c-58.54,-10.99 -93.05,0.54 -131.28,44.45 -39.46,43.87 -48.98,90.2 -31.65,140.75 17.35,49.32 39.55,71.19 95.44,91.93l46.74 18.71 33.1 -31.77c18.73,-17.98 45.75,-52.31 60.31,-75.89 15.19,-24.17 33.47,-50.11 41.58,-57.9 7.5,-7.2 14.44,-17.46 13.91,-21.76 0.71,-4.27 -19.6,-29.17 -44.17,-54.76 -38.95,-40.59 -49.22,-47.53 -83.98,-53.76zm-1277.81 -1357.48c-37.95,-29.55 -48.47,-24.25 -24.12,12.36 19.57,30.4 115.94,107.05 134.3,107.42 13.46,0.28 -59.58,-79.56 -110.18,-119.78l0 0zm2039.19 2258.17c-5,4.8 -20.84,60.79 -36.23,124.74 -16.01,64.56 -30.49,114.45 -32.89,111.95 -2.4,-2.49 7.24,-54.94 20.76,-117.09l25.56 -112.1 -50.23 1.42c-44.72,2.14 -53.99,6.24 -88.9,37.35l-39.26 34.08 34.42 -36.63c23.18,-25.85 30.79,-39.15 24.12,-42.35 -5.44,-3.17 -15.28,-0.93 -23.35,4.42 -11.19,8.33 -19.08,5.12 -37.08,-12.4l-22.8 -22.5 26.1 10.94c31.56,12.89 17.88,-6.37 -16.68,-22.37 -15.76,-7.67 -21.88,-7.79 -19.63,2.04 1.65,9.22 -5.69,9.07 -23.27,0.75 -30.94,-13.48 -74.4,-13.76 -61.81,-0.65 4.79,5 -1.97,6.7 -15.38,3.97 -12.19,-2.7 -24.48,-0.5 -25.8,4.37 -0.73,5.5 -5.02,6.02 -8.62,2.27 -7.79,-8.12 -61.43,10.98 -79.54,28.36 -12.49,11.99 -12.49,11.99 34.16,35.59 58.13,30.58 68.92,41.81 20.35,22.46 -43.1,-17.41 -158.9,-41.82 -165.77,-35.23 -2.5,2.4 4.07,10.49 14.31,18.66 15.06,11.94 10.76,12.46 -22.05,0.77 -31.62,-10.44 -52.42,-10.87 -86.31,0.06 -40.66,12.64 -109.49,55.91 -101.7,64.03 1.8,1.87 35.22,14.19 74.72,27.85 39.51,13.66 75.92,29.09 81.32,34.71 4.79,5 -8.02,2.9 -29.27,-5.49 -62.53,-25.16 -147.92,-40.37 -176.86,-31.78 -38.18,11.46 -35.36,23.15 6.89,22.18 19.61,-0.83 49.57,0.4 67.88,3.22 20.15,2.25 10.31,4.5 -25.2,5 -32.47,1.17 -72.3,3.41 -89.48,5.51 -32.52,3.62 -65.44,26.82 -54.65,38.06 3,3.12 8.49,3.84 10.99,1.45 3.12,-3 14.81,-5.82 26.47,-7.42 18.41,-2.07 17.16,-0.87 -11.24,10.79 -46.9,18.62 -51.37,27.72 -15.9,29.67l31.16 2.47 -31.29 3.64c-30.07,3.67 -59.19,20.83 -50.2,30.19 2.99,3.12 25.07,1.13 49.67,-4.49 44.25,-8.89 205.75,-4.35 215.94,6.26 3,3.12 -49.05,3.89 -114.5,1.94 -155.41,-3.18 -167.77,2.69 -157.09,78.8l4.29 29.47 27.08 -6.79c25.22,-6.21 18.37,-0.85 -14.34,12.57 -8.02,2.89 -10.06,13.25 -4.27,29.29 8.68,24.05 9.29,24.67 51.72,15.13 7.99,-1.67 15.25,2.15 16.33,9.52 2.25,9.84 -0.86,11.61 -13.02,7.69 -18.85,-5.9 -46.3,19.25 -39.31,36.54 4.1,9.26 9.62,8.76 20.86,-2.02 8.11,-7.79 19.85,-13.06 24.72,-11.74 5.47,1.95 14.81,-5.82 20.51,-14.88 33.51,-52.57 220.8,-171.15 372.07,-234.77 43.23,-18.71 102.54,-45.65 131.01,-60.98 28.47,-15.33 46.35,-21.7 38.86,-14.5 -6.27,7.21 -51.5,33.83 -99.15,59.18 -47.65,25.34 -89.74,47.74 -94.08,50.71 -4.32,1.75 -19.75,8.16 -33.97,14.61 -14.18,5.21 -59.96,28.76 -101.42,50.56 -62.53,34.84 -88.66,55.11 -165.43,127.6l-91.13 86.28 -25.25 67.42c-13.61,37.07 -26.13,80.27 -28.28,95.53l-3.03 28.09 19.94 -16.73c11.21,-9.57 16.15,-11.91 11.71,-4.05 -13.94,22.98 1.29,26.35 23.15,5.37 26.2,-23.95 45.88,-28.44 127.94,-30.43 85.73,-1.92 82.56,3.53 -5.07,8.46 -75.37,3.97 -113,18.5 -138.23,54.71 -20.78,28.35 -7.49,37.19 18.73,12.02 29.34,-28.17 57.04,-35.56 137.25,-36.98 85.11,-1.31 109.21,-12.45 163.76,-75.61 50.15,-57.73 76.85,-136.14 82.75,-244.98 3.2,-66.66 5.33,-80.69 9.57,-48.77 10.78,101.22 -9.16,207.93 -50.29,273.8 -27.23,44.13 -19.56,58.36 34.86,61.31 102.11,5.16 186.13,-92.28 226.35,-262.85 24.1,-101.11 30.23,-160.98 24.34,-232.1 -3.97,-45.38 -7.97,-59.54 -17.81,-57.29 -9.21,1.65 -9.13,-2.02 0.86,-11.61 14.36,-13.79 14.96,-13.16 21.92,35.34 11.28,76.74 7.1,191.12 -9.71,264.84 -9.34,37.76 -14.29,70.1 -11.89,72.6 7.79,8.11 35.66,-7.84 95.43,-56.81l60.39 -49.57 -43.74 43.18c-26.25,26.39 -60.44,52.01 -84.56,64.37 -40.18,19.38 -67.1,48.82 -44.45,48.67 24.47,0.5 92,-39.12 132.56,-76.86l43.03 -38.9 -27.1 38.01c-20.8,29.56 -37.61,43.3 -78.5,66.94 -54.52,31.94 -63.93,43.38 -30.19,39.78 37.43,-4.74 98.32,-48.79 131.11,-95.86 46.01,-64.55 62.3,-112.57 86.43,-244.9 12.37,-65.86 29.96,-147.52 39.82,-180.98 16.56,-61.48 17.39,-71.87 3.03,-58.09l0 -0.01zm-723.06 -619.56c-97.3,28.61 -121.61,169.51 -43.15,253.75 26.95,29.32 86.95,58.1 98.19,47.31 12.49,-11.99 6.1,-28.64 -11.61,-30.85 -11.61,-0.85 -13.96,-5.79 -9.41,-18.55 3.32,-12.79 -2.6,-22.7 -23.63,-42.11 -25.82,-24.4 -54.78,-74.57 -42.55,-74.32 3.08,-0.55 11.39,11.86 19.06,26.1 16.5,30.94 53.28,58.01 63.9,47.82 4.99,-4.79 11.66,-1.59 16.38,7.07 5.92,9.92 3.32,17.21 -6.6,23.12 -10.51,5.3 -11.86,11.39 -5.27,18.26 25.17,26.22 56.22,-25.17 53.25,-89.5 -1.09,-36.14 -6.36,-47.87 -30.91,-74.7 -25.17,-26.22 -33.98,-44.15 -48.76,-99.54 -0.6,-0.63 -12.89,1.57 -28.9,6.14l0.01 0zm133.74 194.33c-3.35,14 -11.64,30.36 -18.51,36.95 -14.98,14.39 -12.31,33.42 4.82,33.77 18.36,0.37 42.68,-51.77 34.59,-75.2 -9.24,-27.12 -14.16,-25.99 -20.9,4.47l0 0.01zm13.6 82.91c-19.25,13.68 -30.32,15.91 -36.88,7.81 -5.37,-6.84 -15.19,-5.82 -27.62,3.72 -11.19,8.34 -16.89,17.41 -13.89,20.53 15.58,16.23 106.09,-9.45 116.98,-33.1 9.59,-20 -8.17,-19.76 -38.59,1.04zm1157.73 1542.33c-134.28,41.32 -172.66,62.57 -271.77,149.3 -81.64,71.17 -83.54,74.19 -68.38,81.23 9.12,3.25 46.67,22.38 84.23,41.52 101.77,52.27 190.32,62.04 246.79,24.64 31.64,-20.78 64.73,-82.54 87.19,-162.87 15.84,-55.99 30.72,-155.46 24.13,-162.33 -1.2,-1.25 -46.75,11.29 -102.19,28.51l0 0zm-290.04 25.28c-64.65,-11.12 -143.37,6.86 -138.35,30.83 1.67,7.99 -0.3,14.69 -4.57,13.99 -4.3,0.52 -13.69,10.73 -19.46,23.47 -8.91,16.96 -8.47,24.92 1.22,30.02 11.51,5.74 10.86,7.57 -2.59,7.29 -20.21,0.2 -28.35,9.22 -32.52,33.62 -3.45,18.9 -2.25,20.15 30.24,17.75 18.38,-0.84 49.52,2.85 67.15,8.73 32.84,10.46 50.02,8.36 36.84,-5.37 -3.59,-3.75 -21.23,-9.62 -38.91,-13.04 -25,-4.79 -28.02,-6.69 -13.28,-8.84 10.41,-0.4 31.16,2.48 45.75,7.67 32.81,11.69 45.9,0.33 19.93,-16.73 -13.31,-7.62 -15.66,-12.56 -8.89,-14.26 4.92,-1.12 13.44,1.5 18.23,6.5 13.19,13.74 43.58,-5.84 41.56,-26.7 -2.15,-14.73 -1.5,-16.56 9.42,-11.44 9.71,3.87 22.1,-3.22 46.47,-27.82 31.87,-31.78 31.92,-34.23 14.29,-40.1 -10.94,-3.9 -43.23,-11.3 -72.53,-15.57l0 0zm-109.99 170.36c-34.12,-8.04 -100.32,-3.28 -100.52,6.51 -0.75,6.72 115.32,17.67 130.13,11.85 11.71,-4.05 -1.58,-12.89 -29.62,-18.36l0.01 0zm14.75 56.62c-26.8,-6.67 -56.74,-9.12 -67.2,-6.28 -9.24,2.88 -18.38,0.85 -18.91,-3.44 -2.84,-10.47 -28.14,-0.58 -32.06,11.58 -0.73,5.5 -3.75,3.6 -6.67,-3.19 -3.52,-7.42 -12.06,-8.82 -23.82,-2.33 -45.21,25.4 -70.56,67.72 -69.09,115.5 0.53,34.28 45.14,97.02 92.19,131.04 42.83,30.87 154.56,74.78 162.75,63.32 2.52,-3.62 -6.84,-24.63 -20.47,-46.33 -30.82,-49.6 -36.53,-69.3 -32.41,-121.24 3.18,-35.44 8.27,-45.13 40.74,-76.3 24.35,-23.37 35.06,-38.45 30.27,-43.45 -3.6,-3.74 -28.52,-12.21 -55.32,-18.88l0 0z"/>
    <path class="fil0" d="M3024.64 1756.88c8.74,21.61 12.91,27.2 18.53,21.81 4.37,-4.2 5.49,0.72 2.84,10.46 -7.89,26.77 -12.69,21.77 -28.82,-27.52 -16.12,-49.3 -9.33,-52.22 7.45,-4.75z"/>
    <path class="fil0" d="M3035.16 1930.32c-1.42,9.77 -4.65,17.66 -7.69,16.98 -3.67,-0.07 -5.97,-7.46 -4.55,-17.23 1.43,-9.76 4.65,-17.65 7.7,-16.98 3.67,0.08 5.97,7.47 4.54,17.23z"/>
    <path class="fil0" d="M3376.24 1385.81c-12.46,10.76 -42.64,19.32 -32.65,9.73 5,-4.79 16.14,-10.68 24.13,-12.36 7.99,-1.67 12.26,-0.97 8.51,2.62l0.01 0.01z"/>
    <path class="fil0" d="M2270.59 378.9c-4.03,17.06 -13.71,11.96 -11.49,-6.97 0.82,-10.38 4.57,-13.98 8.17,-10.24 3.59,3.75 5.26,11.74 3.32,17.21z"/>
    <path class="fil0" d="M2249.62 595.77c-15.93,30.89 -32.22,48.92 -31.26,32.41 1.6,-18.33 27.59,-62.48 36.74,-60.46 4.27,0.7 2.17,13.51 -5.47,28.04l-0.01 0.01z"/>
    <path class="fil0" d="M2181.22 618.24c0.53,4.29 -8.29,16.36 -19.51,25.92l-19.95 17.95 17.06 -25.97c17.09,-27.19 23.3,-31.96 22.4,-17.9l0 0z"/>
    <path class="fil0" d="M2279.3 790.41c-7.72,18.2 -30.94,46.5 -53.42,68.07l-40.53 36.51 40.13 -46.93c21.95,-25.87 42.78,-56.66 46.08,-68.22 4.52,-11.54 10.22,-20.6 13.89,-20.53 4.29,-0.52 1.55,14.11 -6.15,31.09l0 0.01z"/>
    <path class="fil0" d="M1928.84 567.77c-10.58,8.97 -27.34,20.25 -38.48,26.15 -16.08,8.24 -13.54,3.4 12.09,-22.4 16.88,-17.4 34.26,-29.29 37.86,-25.54 2.99,3.12 -1.5,13.43 -11.47,21.79z"/>
    <path class="fil0" d="M1913.73 618.27c-18.11,17.38 -20.58,18.55 -16.61,3.95 2.67,-10.97 10.17,-18.16 21.86,-20.98 14.13,-2.77 12.86,-0.35 -5.25,17.03z"/>
    <path class="fil0" d="M2150.08 883.25c-9.99,9.59 -25.5,19.68 -33.49,21.35 -12.28,2.2 -12.86,0.35 -2.27,-8.61 7.47,-5.97 22.36,-15.46 33.49,-21.35 19.78,-9.39 19.78,-9.39 2.27,8.61z"/>
    <path class="fil0" d="M2068.42 895.66c-8.04,4.12 -14.76,3.37 -14.69,-0.3 0.08,-3.67 6.87,-6.59 15.44,-6.42 11.61,0.85 11.59,2.08 -0.75,6.72z"/>
    <path class="fil0" d="M1796.37 789.7c-9.99,9.59 -14.94,11.94 -10.49,4.07 4.42,-6.64 13.16,-15.03 18.73,-17.98 5.54,-1.72 2.38,3.72 -8.24,13.91z"/>
    <path class="fil0" d="M1762.78 785.95c-11.86,11.39 -18.06,14.93 -13.61,7.07 4.42,-6.64 14.41,-16.23 21.85,-20.98 7.42,-3.51 3.62,2.53 -8.24,13.91z"/>
    <path class="fil0" d="M3896.82 2596.79c-3.98,14.61 -13.77,14.41 -23.83,-2.32 -7.11,-11.16 -7.09,-12.39 9.39,-10.21 12.21,1.47 16.44,4.62 14.44,12.54l0 -0.01z"/>
    <path class="fil0" d="M3968.78 2759.25c-11.86,11.39 -18.06,14.93 -13.61,7.07 4.42,-6.64 14.41,-16.24 21.85,-20.98 7.42,-3.52 3.62,2.52 -8.24,13.91z"/>
    <path class="fil0" d="M3897.43 2746.16c-3.74,3.59 -10.51,5.29 -15.98,3.34 -5.47,-1.94 -3.57,-4.97 3.22,-7.89 15.43,-6.41 21.5,-3.84 12.76,4.55l0 0z"/>
    <path class="fil0" d="M4120.55 3059.84c-1.25,1.2 -8.57,-0.18 -15.83,-4 -6.67,-3.19 -8.45,-6.29 -2.9,-8.01 9.84,-2.25 23.73,7.22 18.73,12.01l0 0z"/>
    <path class="fil0" d="M3559.28 2938.78c-13.38,-3.95 -26.72,-10.35 -29.71,-13.47 -3.6,-3.74 4.34,-2.97 17.73,0.98 13.38,3.94 26.11,9.72 29.71,13.46 3,3.13 -4.34,2.98 -17.73,-0.97z"/>
    <path class="fil0" d="M3468.51 2887.95c-4.92,1.13 -14.64,-2.75 -20.03,-8.37 -8.99,-9.36 -7.74,-10.56 5.04,-7.24 20.11,4.7 27.9,12.81 14.99,15.61z"/>
    <path class="fil0" d="M3303.35 2254.72c-1.34,6.09 -8.77,9.61 -16.08,8.24 -20.7,-5.32 -25.45,-12.76 -11.19,-21.65 14.89,-9.49 31.87,-1.8 27.28,13.41l-0.01 0z"/>
    <path class="fil0" d="M3354.69 2408.18c-20.09,54.07 -58.3,96.74 -102.06,111.15 -25.27,8.67 -23.99,6.25 23.93,-32.56 42.96,-35.24 53.02,-48.5 67.84,-84.31 23.83,-57.66 31.07,-52.61 10.29,5.72z"/>
    <path class="fil0" d="M3205.21 2234.96c-6.24,5.99 -18.61,11.86 -26.6,13.53 -12.28,2.2 -11.61,-0.85 1.5,-13.44 9.37,-8.99 21.13,-15.48 26.6,-13.53 4.87,1.32 4.75,7.44 -1.5,13.44z"/>
    <path class="fil0" d="M3197.2 2506.56c-3.75,3.6 -22.78,6.27 -42.36,5.87 -27.52,-1.17 -41.47,-6.97 -60.05,-26.32 -13.19,-13.74 -22.65,-29.85 -21.3,-35.94 1.97,-6.7 5.61,-5.39 11.51,5.74 9.99,20.41 57.88,42.81 93.37,43.54 14.69,0.3 22.57,3.52 18.83,7.11z"/>
    <path class="fil0" d="M3162.96 2474.65c-12.21,-1.48 -30.94,-13.49 -42.33,-25.35l-20.95 -23.08 25.97 17.06c13.89,9.47 33.24,20.88 41.7,25.95 16.99,7.7 16.36,8.3 -4.39,5.42l0 0z"/>
    <path class="fil0" d="M2921.66 1943.3c1.67,7.99 -0.9,14.06 -5.79,13.96 -4.9,-0.1 -9.04,-6.92 -8.89,-14.26 0.38,-18.36 10.79,-18.76 14.69,0.3l-0.01 0z"/>
    <path class="fil0" d="M2867.78 2033.4c-4.84,-2.55 -12.03,-10.04 -14.98,-15.61 -1.72,-5.55 2.52,-3.62 10.91,5.12 8.39,8.74 10.14,13.06 4.07,10.49z"/>
    <path class="fil0" d="M2817.18 2143.15c-12.03,-10.04 -31.21,-30.02 -41.95,-43.7 -11.33,-14.32 -1.7,-6.78 21.68,17.57 22.77,23.73 31.71,35.54 20.27,26.13z"/>
    <path class="fil0" d="M3471.4 2627.26c-3.75,3.59 -11.11,4.67 -15.98,3.34 -5.47,-1.95 -5.37,-6.84 -0.38,-11.63 5.62,-5.4 12.39,-7.09 15.98,-3.35 3,3.12 3.5,8.64 0.38,11.64z"/>
    <path class="fil0" d="M3374.2 2710.96c-4.85,-2.54 -12.04,-10.04 -14.99,-15.61 -1.72,-5.54 2.53,-3.62 10.91,5.12 8.39,8.74 10.14,13.06 4.08,10.49z"/>
    <path class="fil0" d="M2414.26 1523.41c-0.28,13.46 -10.77,17.53 -19.76,8.17 -4.79,-5 -6.49,-11.77 -3.37,-14.76 8.12,-7.79 23.33,-3.2 23.12,6.6l0.01 -0.01z"/>
    <path class="fil0" d="M2311.42 1463.77c-11.06,2.22 -34.39,5.42 -53.99,6.24l-34.31 1.74 27.72 -8.61c15.41,-5.19 39.33,-7.76 53.39,-6.86 26.27,2.37 26.27,2.37 7.19,7.49z"/>
    <path class="fil0" d="M2435.58 1648.1c-11.27,42.01 -104.78,124.57 -156.44,136.97l-25.23 6.22 19.21 -11.24c94.17,-55.61 118.52,-78.98 145.48,-139.64 7.04,-15.16 21,-9.37 16.98,7.69l0 0z"/>
    <path class="fil0" d="M2243.84 1505.84c-17.25,5.77 -31.99,7.92 -31.32,4.87 0.18,-8.57 51.97,-27.09 57.96,-20.85 3,3.13 -9.39,10.22 -26.64,15.99l0 -0.01z"/>
    <path class="fil0" d="M2212.81 1735.97c-12.49,11.99 -47.85,-24.85 -51.54,-53.69 -2.08,-18.41 -0.25,-17.76 29.14,11.61 24.57,25.6 29.27,35.49 22.4,42.08l0 0z"/>
    <path class="fil0" d="M2162.43 1744.73c-12.36,5.87 -40.65,-17.36 -40.35,-32.04 0.15,-7.34 8.66,-4.72 24.32,7.84 15.03,13.16 20.98,21.86 16.03,24.2z"/>
    <path class="fil0" d="M1520.73 948.71c-4,45.83 -8.15,69.01 -8.4,51.25 -1.74,-34.31 8.41,-141.22 12.6,-136.85 1.2,1.25 -0.82,40.38 -4.2,85.6z"/>
    <path class="fil0" d="M1807.74 1041.51c8.61,27.72 5.76,47.25 -5.62,35.39 -6,-6.25 -18.8,-68.33 -15.06,-71.92 5,-4.8 10.92,5.12 20.68,36.53l0 0z"/>
    <path class="fil0" d="M1773.82 1053.67c3.97,15.38 2.65,20.25 -3.97,14.61 -4.8,-5 -10.01,-19.18 -11.61,-30.85 -3.15,-25.77 7.66,-15.75 15.58,16.24l0 0z"/>
    <path class="fil0" d="M1736.74 1071.27c-1.32,4.87 -5.04,7.25 -8.64,3.5 -3,-3.12 -4.67,-11.12 -3.35,-15.98 1.95,-5.47 5.05,-7.25 8.65,-3.5 2.99,3.12 5.29,10.52 3.34,15.98z"/>
    <path class="fil0" d="M1793.02 1162.4c-3.84,8.5 -8.34,18.81 -9.64,22.45 -1.92,4.25 -4.99,4.8 -8.59,1.05 -6.59,-6.86 8.77,-39.6 19.16,-38.78 3.67,0.08 3.52,7.42 -0.93,15.28z"/>
    <path class="fil0" d="M3837.89 3172.8c-8.74,8.39 -13.06,10.14 -10.49,4.07 2.55,-4.84 10.04,-12.04 15.61,-14.98 5.55,-1.73 3.62,2.52 -5.12,10.91z"/>
    <path class="fil0" d="M2513 1812.51c-0.6,29.36 -7.34,29.84 -9.19,0.42 -0.94,-13.49 -1.89,-26.97 -2.47,-28.82 0.05,-2.45 2.47,-1.17 6.07,2.58 3.6,3.74 6.42,15.43 5.59,25.82z"/>
    <path class="fil0" d="M1966.35 1396.72c-7.82,23.1 -43.41,57.26 -63.66,59.9 -11.66,1.6 -9.14,-2.02 9.49,-15.1 13.66,-9.52 32.42,-28.72 40.66,-42.63 15.88,-28.44 22.02,-29.54 13.51,-2.17z"/>
    <path class="fil0" d="M1872.59 1371.54c-0.27,13.46 -10.76,17.53 -19.75,8.16 -4.79,-4.99 -6.49,-11.76 -3.37,-14.75 8.12,-7.8 23.33,-3.2 23.12,6.59l0 0z"/>
    <path class="fil0" d="M1955.1 1467.49c-3.12,3 -13.61,7.07 -21.6,8.74 -7.99,1.67 -12.24,-0.25 -9.12,-3.25 3.75,-3.59 13.61,-7.06 21.61,-8.74 7.99,-1.67 12.86,-0.34 9.11,3.25z"/>
    <path class="fil0" d="M1878.68 1582.84c-5.52,0.49 -18.81,-8.35 -30.79,-20.83 -26.97,-28.1 -20.85,-27.98 14.11,-1.55 15.06,11.94 22.23,20.65 16.68,22.38z"/>
    <path class="fil0" d="M1320.93 811.8c-4.3,0.52 -24.85,-12.15 -45.93,-29.1 -19.85,-16.94 -51.24,-38.39 -69.42,-47.33 -17.56,-9.54 -30.22,-18.98 -27.1,-21.98 3.12,-3 8.02,-2.89 11.61,0.85 3,3.12 9.12,3.25 12.24,0.25 3.75,-3.59 -2.12,-15.96 -12.91,-27.19l-18.55 -20.58 22.97 13.94c32.04,19.63 137.55,128.29 127.08,131.14l0.01 0z"/>
    <path class="fil0" d="M1455.17 1011.64c2.92,6.8 14.01,33.34 25.14,57.44 10.51,24.7 18.05,45.06 15.6,45 -2.44,-0.05 -17.75,-29.74 -34.13,-66.8 -16.38,-37.06 -25.64,-62.96 -20.85,-57.96 4.8,4.99 11.32,15.53 14.24,22.32z"/>
    <path class="fil0" d="M1246.53 798.03c-1.34,6.1 -13.43,-1.5 -30.78,-20.83 -21.58,-22.48 -23.9,-28.64 -11.17,-22.87 24.28,10.29 45.25,32.14 41.95,43.7z"/>
    <path class="fil0" d="M1033.4 594.73c-34.49,-19.68 -79.29,-43.86 -98.67,-54.05 -20,-9.59 -36.3,-20.33 -36.26,-22.77 -0.45,-7.97 104.41,42.53 145.47,70.31 62.18,42.28 57.23,44.63 -10.54,6.51z"/>
    <path class="fil0" d="M1148.54 740.94c-6.86,6.59 -10.53,6.51 -7.34,-0.15 2.58,-6.07 8.79,-10.84 12.46,-10.77 4.3,-0.52 2.35,4.95 -5.12,10.92z"/>
    <path class="fil0" d="M1203.58 803.27c-1.33,4.87 -8.04,4.13 -15.24,-3.37 -7.19,-7.49 -7.66,-14.23 -2.74,-15.36 5.54,-1.72 12.23,0.25 15.23,3.37 3,3.13 4.69,9.9 2.75,15.36z"/>
    <path class="fil0" d="M978.34 593.6c-7.92,-1.99 -20,-9.59 -26.6,-16.46l-11.99 -12.49 17.61 7.1c9.71,3.87 21.8,11.46 26.59,16.46 8.42,7.52 7.79,8.12 -5.61,5.39z"/>
    <path class="fil0" d="M1357.89 1039.03c-1.32,4.87 -6.84,5.37 -11.63,0.38 -4.8,-5 -7.67,-14.24 -6.34,-19.11 1.95,-5.47 6.84,-5.37 11.63,-0.37 4.8,4.99 8.29,13.63 6.34,19.1z"/>
    <path class="fil0" d="M1284.63 970.2c-6.87,6.59 -10.54,6.51 -7.34,-0.15 2.57,-6.07 8.79,-10.84 12.46,-10.77 4.3,-0.52 2.34,4.95 -5.12,10.92z"/>
    <path class="fil0" d="M1356.89 1087.98c-4.92,1.12 -15.23,-3.37 -21.23,-9.62 -5.99,-6.24 -10.06,-16.73 -8.74,-21.6 1.35,-6.09 10.45,-1.62 21.23,9.62 10.79,11.24 14.88,20.5 8.74,21.6z"/>
    <path class="fil0" d="M1409.83 1163.13c-1.25,1.2 -13.44,-1.5 -27.4,-7.29 -33.43,-11.1 -77.38,-46.89 -89.72,-72.23 -7.61,-16.69 -5.19,-15.41 18.2,7.72 15.61,15.01 44.53,37.64 64.51,48.45 20.57,11.44 35.66,22.15 34.41,23.35l0 0z"/>
    <path class="fil0" d="M685.14 713.08l19.6 29.18 -21.6 -21.26c-12.01,-11.27 -23.3,-28.02 -24.97,-36.01 -2.72,-16.58 -1.52,-15.33 26.97,28.09z"/>
    <path class="fil0" d="M888.66 937.6c-3.33,12.79 -11.12,4.67 -14.99,-15.61 -2.79,-12.91 -1.54,-14.11 7.45,-4.74 5.39,5.62 9.48,14.89 7.54,20.35z"/>
    <path class="fil0" d="M818.98 902.51c5.89,11.14 21.35,33.49 35.71,49.7 23.35,25.58 23.92,27.42 5.12,19.08 -24.87,-10.91 -56.41,-55.02 -60.13,-82.64 -2,-22.07 4.02,-17.05 19.3,13.86z"/>
    <path class="fil0" d="M653.92 743.05c-11.69,2.82 -104.58,-93.96 -113.87,-118.63 -4.05,-11.72 16.4,5.84 58.36,49.55 42.57,43.1 61.65,67.98 55.51,69.08z"/>
    <path class="fil0" d="M2929.61 2511.49c-2.5,2.4 -13.51,2.18 -25.07,-1.12 -18.88,-4.67 -18.26,-5.27 -0.4,-10.41 17.85,-5.14 35.46,1.95 25.47,11.54l0 -0.01z"/>
    <path class="fil0" d="M2792.77 2707.62c-0.72,5.5 -6.29,8.45 -11.16,7.12 -5.5,-0.72 -8.45,-6.29 -7.12,-11.16 0.72,-5.5 6.29,-8.44 11.16,-7.12 5.5,0.72 8.44,6.29 7.12,11.16z"/>
    <path class="fil0" d="M3202.27 2916.78c-7.67,15.75 -17.84,33.91 -24.08,39.9 -6.84,5.37 -5.45,-3.17 2.23,-18.93 7.66,-15.76 16.66,-36.39 20.5,-44.88 3.22,-7.89 8.22,-12.68 10.02,-10.81 2.4,2.5 -1.6,18.33 -8.67,34.72l0 0z"/>
    <path class="fil0" d="M1573.47 1272.37c-4.84,-2.54 -12.03,-10.04 -14.98,-15.61 -1.72,-5.54 2.52,-3.62 10.91,5.12 8.39,8.74 10.14,13.06 4.07,10.49z"/>
    <path class="fil0" d="M1649.68 1406.76c11.88,17.38 -0.12,6.12 -31.21,-30.02 -28.09,-33.01 -50.77,-61.64 -50.72,-64.08 0.17,-8.57 62.38,62.48 81.93,94.1l0 0z"/>
    <path class="fil0" d="M2017.87 1720.35c-37.03,-14.84 -43.03,-21.08 -16.18,-16.86 11.58,2.08 26.74,9.12 33.34,15.99 8.96,10.59 4.07,10.49 -17.16,0.87l0 0z"/>
    <path class="fil0" d="M1921.49 1823.66c-7.49,7.19 -27.62,3.72 -27.44,-4.85 0.05,-2.45 7.44,-4.75 17.2,-3.33 10.39,0.83 13.99,4.58 10.24,8.17l0 0.01z"/>
    <path class="fil0" d="M1972.67 1954.47c-5.59,4.17 -17.33,9.44 -27.14,10.46 -25.15,2.54 -73.25,-10.07 -65.76,-17.26 3.75,-3.6 14.14,-2.77 23.21,2.92 9.09,4.47 30.49,5.52 47.7,2.2 17.23,-4.54 26.99,-3.12 22,1.67l-0.01 0.01z"/>
    <path class="fil0" d="M1921.38 1918.53c-10.41,0.4 -31.64,-9.22 -46.07,-21.75 -22.88,-18.83 -23.48,-19.46 -3.52,-7.42 12.71,6.99 33.31,17.21 46.07,21.76 21.28,7.16 21.88,7.79 3.52,7.41z"/>
    <path class="fil0" d="M3040.89 2876.13c0.53,4.3 -10.14,16.93 -22.63,28.92l-23.07 20.95 20.18 -28.97c21.43,-30.16 25.8,-34.36 25.52,-20.9l0 0z"/>
    <path class="fil0" d="M2899.16 2922.2c-14.83,7.04 -29.89,-4.9 -19.28,-15.09 5.62,-5.39 14.19,-5.21 19.58,0.41 5.39,5.61 5.27,11.73 -0.3,14.68l0 0z"/>
    <path class="fil0" d="M2509.13 2300.89c-0.3,14.68 -1.8,28.12 -3.67,29.92 -2.5,2.39 -4.09,-9.27 -4.37,-25.8 -0.05,-27.55 1.35,-36.09 5.55,-31.72 1.2,1.25 2.17,13.51 2.49,27.59l0 0.01z"/>
    <path class="fil0" d="M2426.67 2202.49c-7.92,-2 -18.23,-6.5 -21.23,-9.62 -3.59,-3.74 1.33,-4.87 9.24,-2.87 7.92,2 17.63,5.87 21.23,9.62 3,3.12 -1.32,4.87 -9.24,2.87z"/>
    <path class="fil0" d="M2395.26 2450.97c-35.11,10.91 -66.78,2.92 -99.86,-25.31 -18.03,-16.28 -33.54,-36.18 -35.78,-46.03 -3.35,-15.98 -1.53,-15.33 11.53,4.53 20.75,32.86 65.55,57.04 107.73,59.74 26.3,1.15 30.54,3.07 16.38,7.07z"/>
    <path class="fil0" d="M2250.15 2004.84c-6.12,-0.13 -24.92,-8.47 -41.86,-18.61l-30.21 -18.98 26.24 3.59c26.27,2.38 69.05,35.7 45.82,33.99l0.01 0.01z"/>
    <path class="fil0" d="M2291.72 2156.88c-3.22,7.89 -9.47,13.88 -13.14,13.8 -3.07,0.55 -2.33,-6.16 0.9,-14.06 3.22,-7.89 9.46,-13.88 13.14,-13.8 3.07,-0.55 2.32,6.16 -0.9,14.06z"/>
    <path class="fil0" d="M2149.25 2149.68c-3.98,14.6 -36.26,7.21 -35.94,-8.7 0.13,-6.12 5.17,-13.36 10.71,-15.08 13.51,-2.18 28.52,12.21 25.23,23.78z"/>
    <path class="fil0" d="M2208.15 2262.28c-9.94,7.14 -21.73,14.86 -26.1,19.05 -13.11,12.59 -90.83,11.61 -119.94,-1.23 -48.55,-20.59 -51.32,-34.72 -3.95,-16.61 46.15,18.08 81.06,16.96 137.15,-2.09 22.81,-7.49 26.48,-7.41 12.84,0.87l0 0.01z"/>
    <path class="fil0" d="M2016.66 2167.77c-3.2,6.67 -11.21,9.57 -17.88,6.37 -6.67,-3.2 -7.77,-9.34 -2.77,-14.13 12.49,-11.99 27.67,-6.17 20.65,7.77l0 -0.01z"/>
    <path class="fil0" d="M2049.65 2230.88c-8.45,-6.29 -20.43,-18.78 -26.97,-28.09 -5.95,-8.7 1.3,-3.65 16.28,11.96 14.99,15.61 19.73,23.05 10.69,16.14l0 -0.01z"/>
    <path class="fil0" d="M1349.02 1233.5c-56.99,3.11 -116.75,-7.9 -105.51,-18.69 5.62,-5.39 14.19,-5.22 18.98,-0.22 4.79,4.99 12.11,6.37 15.23,3.37 3.75,-3.6 16.56,-1.5 28.07,4.25 15.16,7.04 23.75,5.99 28.22,-3.1 4.47,-9.09 8.17,-10.24 11.67,-1.6 2.32,6.17 11.98,12.49 19.92,13.27 9.17,0.8 1.17,2.47 -16.58,2.72z"/>
    <path class="fil0" d="M1260.07 1183.32c-10.24,-8.16 -23.43,-21.9 -29.97,-31.21 -5.94,-8.7 2.5,-2.4 19.28,15.08 16.18,16.86 21.53,24.93 10.69,16.14l0 -0.01z"/>
    <path class="fil0" d="M1200.7 1212.71l13.66 20.48 -24.44 -1.73c-20.78,-1.65 -23.21,-2.92 -12.09,-7.59 12.33,-4.64 10.02,-10.81 -9.69,-35.08 -20.9,-25.53 -20.87,-26.75 -2.79,-12.91 11.46,8.19 27.64,25.05 35.36,36.83l-0.01 0z"/>
    <path class="fil0" d="M1092.8 1161.53c-30.69,-25.72 -75.39,-54.79 -106.93,-68.91 -66.73,-29.52 -64.16,-35.59 3.24,-9.11 40.68,16.13 62.41,31.27 103.81,71.9l52.82 51.28 -52.94 -45.16z"/>
    <path class="fil0" d="M1076.19 1195.47c-19.98,-10.82 -60.26,-46.53 -51.1,-45.73 2.45,0.05 19.33,12.63 37.98,28.32 22.88,18.83 27.05,24.43 13.12,17.41z"/>
    <path class="fil0" d="M1030.13 1202.48c-2.44,-0.05 -14.53,-7.64 -26.62,-15.23 -16.3,-10.74 -18.08,-13.84 -6.49,-11.77 14.01,3.35 44.73,27.85 33.11,27z"/>
    <path class="fil0" d="M992.65 1239.67c-2.5,2.4 -45.45,-22.35 -81.66,-47.58 -19.3,-13.86 -17.46,-14.44 15.36,-2.75 32.19,12.29 73.79,43.14 66.3,50.33z"/>
    <path class="fil0" d="M949.97 1261.44c-14.66,-1.53 -120.39,-69.19 -120.24,-76.53 0.22,-11.01 92.27,37.39 112.05,58 10.79,11.24 14.28,19.88 8.19,18.53l0 0z"/>
    <path class="fil0" d="M783.49 1290.47c-30.24,-17.76 -56.81,-35.44 -59.8,-38.56 -11.96,-13.71 54.61,23.15 83.53,45.78 22.88,18.83 17.41,16.88 -23.72,-7.22l-0.01 0z"/>
    <path class="fil0" d="M786.86 1365.22c-9.37,8.99 -10.57,7.74 -7.89,-3.22 2.69,-12.19 -3.93,-17.83 -42.7,-36.99 -25.45,-12.76 -42.39,-22.9 -38.69,-24.05 9.22,-1.65 80.12,33.47 92.1,45.95 4.2,4.38 2.8,12.92 -2.82,18.31l0 0z"/>
    <path class="fil0" d="M546 1260.51c-1.25,1.2 -8.57,-0.17 -15.83,-3.99 -6.67,-3.2 -8.44,-6.3 -2.89,-8.02 9.83,-2.25 23.72,7.22 18.72,12.02l0 -0.01z"/>
    <path class="fil0" d="M566.47 1426.81c-34.27,-0.7 -70.33,-3.28 -80.66,-6.55 -10.34,-3.27 9.31,-6.54 44.2,-6.44 33.66,0.08 70.32,3.28 80.66,6.55 10.34,3.28 -9.91,5.92 -44.2,6.44z"/>
    <path class="fil0" d="M585.74 1471.89c-8.74,8.39 -13.06,10.13 -10.49,4.07 2.55,-4.85 10.04,-12.04 15.61,-14.99 5.54,-1.72 3.62,2.53 -5.12,10.92z"/>
    <path class="fil0" d="M508.16 1374.81c-56.26,-2.37 -146.07,-10.95 -123.99,-12.94 14.7,-0.93 41.63,-0.38 60.58,0.63 34.21,3.15 85.43,12.76 63.41,12.31z"/>
    <path class="fil0" d="M517.52 1455.8c-30,0 -56.29,-1.15 -57.49,-2.4 -5.4,-5.62 87.7,-8.61 99.22,-2.87 7.26,3.82 -11.14,5.89 -41.73,5.27z"/>
    <path class="fil0" d="M537.39 1501.5c-32.32,23.83 -106.71,40.05 -189.37,41.42 -77.77,1.47 -60.31,-14.09 21.2,-19.15 66.18,-3.55 153.44,-20.12 180.66,-34.25 8.04,-4.12 2.42,1.27 -12.49,11.98z"/>
    <path class="fil0" d="M345.58 1452.89c-9.82,1.02 -17.11,-1.57 -17.06,-4.02 0.18,-8.57 20.43,-11.21 27.62,-3.72 3.59,3.74 -0.15,7.34 -10.57,7.74l0.01 0z"/>
    <path class="fil0" d="M237.43 1652.67c-3.12,3 -13.61,7.07 -21.61,8.74 -7.99,1.67 -12.23,-0.25 -9.11,-3.25 3.74,-3.59 13.61,-7.06 21.6,-8.74 7.99,-1.67 12.86,-0.34 9.12,3.25z"/>
    <path class="fil0" d="M162.03 1687.85c-6.86,6.59 -10.53,6.52 -7.34,-0.15 2.58,-6.07 8.79,-10.84 12.46,-10.76 4.3,-0.53 2.35,4.94 -5.12,10.91z"/>
    <path class="fil0" d="M1350.78 1326.57c-6.87,6.59 -10.54,6.52 -7.34,-0.15 2.58,-6.07 8.79,-10.84 12.46,-10.76 4.3,-0.53 2.35,4.94 -5.12,10.91z"/>
    <path class="fil0" d="M1288.02 1372.42c-16.85,16.18 -24.92,21.52 -16.13,10.69 8.17,-10.24 21.9,-23.43 31.22,-29.97 8.69,-5.94 2.39,2.5 -15.09,19.28l0 0z"/>
    <path class="fil0" d="M1254.43 1368.67c-18.73,17.98 -28.04,24.52 -19.25,13.68 8.17,-10.24 23.15,-24.62 34.34,-32.96 10.56,-7.74 3.65,1.3 -15.09,19.28z"/>
    <path class="fil0" d="M1142.58 1360.87c-22.18,6.89 -42.93,4.02 -34.19,-4.37 3.12,-3 16.61,-3.94 30.07,-3.67 25.05,2.35 25.05,2.35 4.12,8.04z"/>
    <path class="fil0" d="M1125.5 1328.08c-9.99,9.59 -86.81,24.54 -78.04,14.93 4.37,-4.2 25.32,-11.11 46.2,-14.35 20.88,-3.25 34.96,-3.57 31.84,-0.57l0 -0.01z"/>
    <path class="fil0" d="M856.68 1422.96c-43.2,17.48 -54.22,17.25 -24.47,-0.5 13.01,-7.69 31.48,-13.43 41.28,-13.23 14.68,0.3 12.18,2.7 -16.81,13.73l0 0z"/>
    <path class="fil0" d="M1081.78 1639.97c-4.73,21.32 -104.45,108.65 -135.29,120.26l-31.44 10.99 26.05 -16.61c14.26,-8.89 52.27,-41.78 84.11,-72.34 31.22,-29.97 58.04,-54.52 58.65,-53.89 0.59,0.62 -0.13,6.12 -2.08,11.59l0 0z"/>
    <path class="fil0" d="M906.87 1452.76c-3.12,2.99 -33.93,13.38 -69.67,24.89 -49.92,16.73 -58.51,17.77 -38.64,3.49 31.64,-20.77 100.7,-45.07 107.89,-37.58 2.99,3.12 3.52,7.42 0.42,9.19l0 0.01z"/>
    <path class="fil0" d="M996.37 1595.98c-2.5,2.4 -12.36,5.87 -20.36,7.54 -12.91,2.8 -14.11,1.55 -4.74,-7.44 5.62,-5.39 14.89,-9.49 20.36,-7.54 4.86,1.32 7.86,4.45 4.74,7.44z"/>
    <path class="fil0" d="M1027.88 1641.31c0.35,12.86 -55.14,62.53 -72.35,65.85 -11.06,2.22 -2.87,-9.24 27.1,-38.01 41.83,-40.15 46.18,-43.12 45.25,-27.84z"/>
    <path class="fil0" d="M977.19 1635.99c-9.99,9.59 -14.94,11.94 -10.49,4.07 4.41,-6.64 13.16,-15.03 18.73,-17.98 5.54,-1.72 2.37,3.72 -8.24,13.91z"/>
    <path class="fil0" d="M578.32 1565.39c-52.62,28.91 -78.55,39.4 -61.69,23.21 16.24,-15.58 107.82,-63.89 112.01,-59.52 3,3.12 -19.97,19.17 -50.32,36.31z"/>
    <path class="fil0" d="M776.94 1789.81c-44.23,37.66 -123.32,73.99 -163.16,76.24 -25.74,1.92 -25.74,1.92 7.5,-7.2 36.31,-9.66 97.54,-40.85 157.71,-79.4l37.21 -23.72 -39.26 34.08z"/>
    <path class="fil0" d="M589.23 1600.5c-8.74,8.39 -13.06,10.14 -10.49,4.07 2.54,-4.84 10.04,-12.04 15.61,-14.98 5.54,-1.72 3.62,2.52 -5.12,10.91z"/>
    <path class="fil0" d="M728.17 1780.25c-21.26,21.6 -71.3,44.44 -88.96,39.8 -6.09,-1.35 7.57,-10.87 30.39,-19.58 22.85,-9.94 50.05,-22.85 59.96,-28.77 14.91,-10.71 14.86,-8.26 -1.4,8.54l0.01 0.01z"/>
    <path class="fil0" d="M706.66 1754.1c-6.86,6.59 -19.85,13.05 -27.84,14.73 -12.29,2.2 -13.49,0.95 -2.87,-9.24 6.86,-6.59 19.85,-13.06 27.84,-14.74 12.29,-2.19 13.49,-0.94 2.87,9.25z"/>
    <path class="fil0" d="M413.61 1747.48c-1.25,1.2 -11.04,1 -21.41,-1.05 -17.1,-1.58 -17.08,-2.8 0.71,-4.27 17.78,-1.47 25.69,0.53 20.7,5.32z"/>
    <path class="fil0" d="M413.25 1794.6c-24.05,8.69 -155.98,-5.03 -145.36,-15.22 2.5,-2.39 23.9,-1.34 47.67,3.43 22.55,4.75 59.84,7.35 81.89,6.58 34.34,-2.97 36.76,-1.7 15.8,5.22l0 -0.01z"/>
    <path class="fil0" d="M332.07 1753.77c-25.77,3.14 -47.83,3.92 -49.02,2.67 -5.4,-5.62 33.88,-10.93 63.23,-9.11 28.12,1.8 26.27,2.38 -14.21,6.45l0 -0.01z"/>
    <path class="fil0" d="M1623.19 1654.11c-32.17,16.49 -42.58,16.88 -25.09,0.1 16.23,-15.58 38.46,-24.92 44.45,-18.67 3,3.12 -5.74,11.51 -19.36,18.57z"/>
    <path class="fil0" d="M1721.08 1806.09c-17.61,22.9 -32.54,34.83 -41.11,34.65 -9.79,-0.2 -2.85,-10.46 25.25,-37.43 21.23,-20.37 39.91,-35.91 41.11,-34.66 1.2,1.25 -10.16,18.16 -25.25,37.44z"/>
    <path class="fil0" d="M2235.1 2530.33c-11.86,11.38 -17.36,10.66 -34.73,-7.45 -11.39,-11.86 -17.31,-21.77 -12.39,-22.9 3.7,-1.15 12.16,3.92 18.16,10.17 16.78,17.48 31.61,10.44 19.15,-8.79 -9.49,-14.89 -8.88,-14.26 6.15,-1.1 14.4,13.76 14.9,19.28 3.67,30.07l-0.01 0z"/>
    <path class="fil0" d="M2265.32 2609.29c-3.12,3 -9.24,2.87 -12.84,-0.87 -3,-3.13 -1.07,-7.37 3.85,-8.5 5.54,-1.72 11.04,-0.99 12.83,0.88 1.2,1.25 -0.1,4.9 -3.84,8.49z"/>
    <path class="fil0" d="M2224.78 2585.81c-9.99,9.59 -14.93,11.94 -10.49,4.07 4.42,-6.64 13.16,-15.03 18.74,-17.98 5.54,-1.72 2.37,3.72 -8.25,13.91z"/>
    <path class="fil0" d="M2169.17 2581.61c-25.6,24.58 -131.99,78.71 -220.2,111.79 -51.19,19.16 -107.98,42.48 -126.54,51.89 -17.96,10.04 -33.94,13.38 -34.46,9.09 -1.13,-4.92 -23,-12.72 -49.2,-18.76 -26.22,-4.83 -46.87,-12.59 -47.42,-15.67 0.07,-3.67 22.7,-2.59 50.12,3.48 107.88,22.41 136.38,5.85 56.96,-31.89 -15.75,-7.66 -15.75,-7.66 5.6,-4.17 12.21,1.48 31.04,8.59 41.9,16.16 19.96,12.04 48.85,5.9 53.52,-12.98 1.32,-4.87 5.04,-7.25 8.64,-3.5 9.59,9.99 61.99,-7.91 59.16,-19.6 -3.37,-14.75 -86.22,-63.58 -139.69,-83.04 -26.15,-8.49 -46.75,-18.71 -46.67,-22.38 0.27,-13.46 114.35,35.39 160.77,70.01 31.96,23.3 52.57,33.52 57.56,28.72 8.12,-7.79 -6.29,-21.55 -43.82,-41.91 -8.5,-3.84 -8.45,-6.29 0.12,-6.11 7.34,0.15 25.52,9.09 41.83,19.83 38.63,26.5 63.38,13.54 34.64,-17.66l-19.16 -21.2 29.67 15.91c33.29,18.43 44.28,19.88 47.6,7.09 1.97,-6.69 -14.26,-21.1 -42.65,-39.43 -25.38,-16.44 -45.86,-32.77 -45.8,-35.22 0.15,-7.34 78.81,37.12 93.79,52.73 12.59,13.11 52.64,-0.15 65.93,-21.3 4.45,-7.87 10.64,-11.41 13.64,-8.29 3,3.12 0.4,10.41 -5.85,16.41l0.01 0z"/>
    <path class="fil0" d="M2101.74 2526.37c-7.91,-2 -18.23,-6.5 -21.22,-9.62 -3.6,-3.74 1.32,-4.87 9.24,-2.87 7.91,2 17.63,5.87 21.23,9.62 2.99,3.12 -1.33,4.87 -9.25,2.87z"/>
    <path class="fil0" d="M2340.61 2907.7c-6.86,6.59 -10.53,6.52 -7.34,-0.15 2.58,-6.07 8.79,-10.84 12.46,-10.76 4.3,-0.53 2.35,4.94 -5.12,10.91z"/>
    <path class="fil0" d="M2156.92 2761.32c-5.62,5.39 -15.49,8.86 -20.36,7.54 -12.78,-3.32 -4.66,-11.11 15.61,-14.98 12.92,-2.8 14.11,-1.55 4.75,7.44z"/>
    <path class="fil0" d="M2111.12 2756.1c-6.87,6.59 -10.54,6.51 -7.34,-0.15 2.57,-6.07 8.79,-10.84 12.46,-10.77 4.29,-0.52 2.34,4.95 -5.12,10.92z"/>
    <path class="fil0" d="M1937.16 2672.35c-1.87,1.8 -21.87,-7.79 -45.5,-19.91 -22.4,-12.09 -47.22,-25.45 -53.89,-28.64 -7.87,-4.45 -8.44,-6.3 0.75,-6.72 6.12,0.12 30.99,11.04 54.59,24.38 47.19,26.67 47.79,27.3 44.05,30.89l0 0z"/>
    <path class="fil0" d="M1909.68 2818.69c-14.36,13.79 -144.37,85.8 -139.91,76.71 6.35,-10.89 107.99,-72.47 130.77,-78.73 7.99,-1.68 12.26,-0.98 9.14,2.02l0 0z"/>
    <path class="fil0" d="M2097.66 3054.53c-10.24,21.82 -87.96,80.83 -118.13,89.39 -35.08,9.69 -30.69,4.27 25.65,-27.02 27.25,-15.36 54,-36.23 68.46,-54.91 22,-28.32 36.18,-33.54 24.02,-7.47l0 0.01z"/>
    <path class="fil0" d="M2019.55 3073.13c-13.11,12.58 -31.72,24.44 -40.31,25.49 -11.06,2.22 -5.42,-4.39 20.06,-22.85 43.5,-32.16 52.09,-33.21 20.25,-2.64z"/>
    <path class="fil0" d="M1997.32 3022.48c-4.99,4.79 -14.23,7.66 -19.1,6.34 -5.47,-1.95 -5.37,-6.84 -0.38,-11.64 4.99,-4.79 13.64,-8.28 19.11,-6.34 4.86,1.33 5.37,6.85 0.37,11.64z"/>
    <path class="fil0" d="M1994.72 3059.76c-6.87,6.59 -10.54,6.52 -7.34,-0.15 2.58,-6.07 8.79,-10.84 12.46,-10.76 4.3,-0.53 2.35,4.94 -5.12,10.91z"/>
    <path class="fil0" d="M1695.16 2802.67c-47.12,-0.36 -55.06,-1.13 -48.82,-7.12 6.24,-5.99 84.58,-5.61 90.58,0.63 3.59,3.74 -15.44,6.42 -41.76,6.49l0 0z"/>
    <path class="fil0" d="M1661.07 2853.39c-19.1,6.34 -41.08,3.44 -34.21,-3.15 8.74,-8.39 40.68,-13.86 46.67,-7.62 3.6,3.75 -0.78,7.95 -12.46,10.77z"/>
    <path class="fil0" d="M1563.92 2814.67c-3.74,3.6 -10.51,5.29 -15.98,3.35 -5.47,-1.95 -3.57,-4.97 3.22,-7.89 15.44,-6.42 21.5,-3.85 12.76,4.54l0 0z"/>
    <path class="fil0" d="M1594.01 2899.76c-22.05,0.77 -39.78,-0.2 -39.73,-2.65 -1.07,-7.37 55.34,-12.34 68.68,-5.94 5.44,3.17 -7.5,7.19 -28.95,8.59z"/>
    <path class="fil0" d="M3058.81 3704.68c-22.17,6.88 -40.63,11.41 -41.18,8.33 0.73,-5.49 75.27,-29.06 79.47,-24.69 1.8,1.88 -15.49,8.87 -38.29,16.36z"/>
    <path class="fil0" d="M3083.36 3731.5c-3.12,2.99 -16.06,7.01 -27.72,8.61 -11.04,1 -17.73,-0.98 -13.99,-4.57 3.13,-3 16.06,-7.02 27.73,-8.62 11.04,-0.99 17.73,0.98 13.98,4.58z"/>
    <path class="fil0" d="M2999.56 3967.89c-11.86,11.38 -63.44,18.89 -92.1,14.02 -65.26,-11.74 -63.23,-20.88 2.82,-18.3 36.71,0.75 69.8,-1.02 73.54,-4.62 3.75,-3.59 9.27,-4.09 12.87,-0.34 2.99,3.12 4.74,7.44 2.87,9.24z"/>
    <path class="fil0" d="M2865.7 3928.42c-17.75,0.25 -40.35,-2.05 -50.06,-5.92 -15.21,-4.6 -13.34,-6.4 13.61,-7.07 17.75,-0.25 40.35,2.05 50.07,5.92 15.2,4.6 13.33,6.4 -13.62,7.07z"/>
    <path class="fil0" d="M2845.73 3887.62c-3.12,2.99 -11.69,2.82 -18.95,-1 -11.52,-5.75 -11.49,-6.97 3.21,-7.89 19.01,-1.45 23.85,1.1 15.74,8.89l0 0z"/>
    <path class="fil0" d="M2803.28 3748.41c-1.25,1.2 -24.44,-1.73 -51.29,-5.95 -27.45,-4.85 -68.43,-6.3 -90.53,-3.08 -44.8,5.82 -47.7,-2.2 -2.84,-10.46 34.41,-6.64 155.28,9.3 144.66,19.49z"/>
    <path class="fil0" d="M2556.38 4058.59c-2.2,17.7 -3.43,17.68 -4.9,-0.1 -1.02,-9.82 -0.83,-19.61 0.42,-20.81 5,-4.79 6.67,3.2 4.47,20.9l0.01 0.01z"/>
    <path class="fil0" d="M3478.86 1605.2c-3.82,7.27 -20.73,25.9 -36.34,40.88 -29.92,26.32 -29.92,26.32 2.73,-13.41 35.76,-42.73 43.86,-49.29 33.61,-27.46l0 -0.01z"/>
    <path class="fil0" d="M3497.83 1754.94c-0.72,5.5 -6.17,2.32 -10.89,-6.34 -10.04,-17.96 -7.46,-24.02 4.52,-11.54 4.8,5 7.69,13.02 6.37,17.88l0 0z"/>
    <path class="fil0" d="M3491.9 1894.99c-28.97,39.81 -79.89,75.49 -142.2,99.31 -80.19,30.19 -73.28,21.15 10.09,-14.48 58.63,-23.9 73.52,-33.39 107.36,-71.87 43.21,-47.47 52.5,-52.79 24.75,-12.96l0 0z"/>
    <path class="fil0" d="M3215.01 1756.5c-6.87,6.59 -10.54,6.51 -7.34,-0.16 2.57,-6.06 8.79,-10.83 12.46,-10.76 4.3,-0.52 2.34,4.95 -5.12,10.92z"/>
    <path class="fil0" d="M3184.04 1774.23c-6.87,6.59 -10.54,6.51 -7.34,-0.16 2.57,-6.06 8.79,-10.83 12.46,-10.76 4.3,-0.52 2.34,4.95 -5.12,10.92z"/>
    <path class="fil0" d="M3155.21 1836.68c-8.74,8.39 -13.06,10.14 -10.49,4.07 2.55,-4.84 10.04,-12.04 15.61,-14.98 5.55,-1.72 3.62,2.52 -5.12,10.91z"/>
    <path class="fil0" d="M3270.68 2026.96c-6.87,6.59 -10.54,6.52 -7.34,-0.15 2.58,-6.07 8.79,-10.84 12.46,-10.76 4.3,-0.53 2.35,4.94 -5.12,10.91z"/>
    <path class="fil0" d="M3197.03 2036.47c-9.99,9.59 -14.93,11.94 -10.49,4.07 4.42,-6.64 13.16,-15.03 18.74,-17.98 5.54,-1.72 2.37,3.72 -8.25,13.91z"/>
    <path class="fil0" d="M3515.19 3149.05c-3.27,10.34 -7.7,16.98 -8.9,15.73 -1.79,-1.87 -0.37,-11.64 2.9,-21.98 3.28,-10.33 7.7,-16.98 8.9,-15.73 1.8,1.88 0.37,11.64 -2.9,21.98z"/>
    <path class="fil0" d="M3501.95 3197.75c-3.27,10.34 -7.7,16.98 -8.9,15.73 -1.79,-1.87 -0.37,-11.64 2.9,-21.98 3.28,-10.33 7.7,-16.98 8.9,-15.73 1.8,1.88 0.37,11.64 -2.9,21.98z"/>
    <path class="fil0" d="M3560.61 3561.31c-4.12,21.95 -7.29,27.4 -8.27,15.13 -1.47,-17.78 7.27,-56.16 12.07,-51.17 1.2,1.25 -0.98,17.73 -3.8,36.04l0 0z"/>
    <path class="fil0" d="M3367.21 3351.07c-13.39,-3.94 -26.72,-10.34 -29.72,-13.46 -3.59,-3.75 4.34,-2.97 17.73,0.98 13.38,3.94 26.12,9.71 29.72,13.46 3,3.12 -4.34,2.97 -17.73,-0.98z"/>
    <path class="fil0" d="M3339.36 3365.81c-7.92,-2 -18.23,-6.5 -21.23,-9.62 -3.59,-3.74 1.33,-4.87 9.24,-2.87 7.92,2 17.63,5.87 21.23,9.62 3,3.12 -1.32,4.87 -9.24,2.87z"/>
    <path class="fil0" d="M3275.08 3366.33c-2.45,-0.05 -14.61,-3.98 -26.75,-9.12 -21.25,-8.39 -21.25,-8.39 -1.72,-5.54 17.71,2.2 44.35,16.21 28.47,14.66l0 0z"/>
    <path class="fil0" d="M3364.44 3665.64c-3.12,3 -13.56,4.62 -23.93,2.57 -17.11,-1.58 -16.48,-2.17 3.22,-7.89 21.55,-6.29 30.07,-3.67 20.7,5.32l0.01 0z"/>
    <path class="fil0" d="M3491.04 3850.02c-15.78,23.55 -43.31,52.37 -68.18,71.45 -11.19,8.34 0.15,-7.34 25.22,-36.21 47.01,-53.52 63.19,-66.65 42.96,-35.24z"/>
    <path class="fil0" d="M3106.47 3589.35c-13.38,-3.94 -32.19,-12.29 -43.08,-18.63l-19.35 -11.41 23.72 7.22c13.39,3.94 32.19,12.29 43.08,18.63l19.35 11.41 -23.72 -7.22z"/>
    <path class="fil0" d="M2892.46 3518.86c-9.19,0.43 -19.56,-1.62 -22.56,-4.74 -3.59,-3.75 1.38,-7.32 10.57,-7.75 9.19,-0.42 19.55,1.63 22.55,4.75 3.6,3.75 -1.37,7.32 -10.56,7.74z"/>
    <path class="fil0" d="M3298.64 3979.52c-14.39,15.01 -100.1,45.7 -115.94,41.7 -5.46,-1.95 10.02,-10.81 37.14,-20.05 25.9,-9.26 57.34,-20.25 69.07,-25.52 18.51,-6.97 20.33,-6.32 9.72,3.87l0.01 0z"/>
   </g>
  </g>
 </g>
</svg>
