<?xml version="1.0" standalone="no"?>
<!DOCTYPE svg PUBLIC "-//W3C//DTD SVG 20010904//EN"
 "http://www.w3.org/TR/2001/REC-SVG-20010904/DTD/svg10.dtd">
<svg version="1.0" xmlns="http://www.w3.org/2000/svg"
 width="1227.000000pt" height="395.000000pt" viewBox="0 0 1227.000000 395.000000"
 preserveAspectRatio="xMidYMid meet">

<g transform="translate(0.000000,395.000000) scale(0.100000,-0.100000)"
fill="#000000" stroke="none">
<path d="M5225 3666 c-114 -31 -151 -56 -205 -139 -46 -71 -54 -104 -48 -195
10 -124 87 -279 209 -415 28 -32 50 -59 48 -61 -2 -2 -44 -9 -94 -15 -230 -30
-556 -120 -739 -205 -44 -20 -80 -36 -81 -36 -1 0 -2 30 -2 68 2 83 -23 136
-95 204 -101 96 -217 134 -388 125 -236 -12 -460 -126 -681 -349 -48 -49 -90
-97 -93 -106 -5 -14 -25 -21 -84 -31 -42 -7 -89 -19 -104 -27 -22 -12 -32 -12
-65 0 -103 36 -457 46 -618 16 -31 -5 -132 -5 -265 2 -374 18 -485 4 -729 -92
-165 -65 -251 -119 -411 -260 -259 -226 -370 -402 -358 -570 l5 -65 -51 -37
c-65 -48 -164 -144 -188 -183 -23 -38 -23 -61 2 -108 27 -50 25 -83 -6 -129
-71 -102 -23 -233 154 -419 168 -176 352 -267 712 -352 214 -51 537 -68 710
-39 225 38 527 188 656 324 65 69 127 160 171 254 54 115 57 244 8 366 -5 13
5 20 50 37 30 12 67 28 81 37 13 9 26 15 27 13 2 -2 24 -33 49 -69 53 -75 168
-189 216 -214 17 -9 32 -19 32 -22 0 -4 -11 -19 -25 -35 -33 -40 -45 -87 -52
-196 -5 -86 -4 -95 24 -155 42 -88 130 -180 271 -278 140 -99 199 -127 356
-175 203 -61 343 -85 526 -92 194 -7 260 3 468 72 217 73 320 131 437 249 77
78 138 187 158 281 l11 53 55 12 c48 11 203 62 252 84 12 5 29 -12 69 -66 151
-205 379 -372 564 -413 121 -27 239 -17 331 29 91 45 134 82 184 157 64 96 85
178 85 334 0 154 -15 248 -59 370 -57 157 -166 355 -262 473 -19 24 -34 45
-32 47 2 2 27 -1 54 -6 28 -6 74 -9 103 -7 l53 3 23 -67 c54 -154 170 -255
371 -324 72 -25 95 -28 225 -29 136 0 145 -2 148 -20 8 -45 56 -158 91 -212
48 -74 152 -171 238 -222 220 -130 575 -209 814 -181 278 32 521 147 687 325
104 111 172 262 172 381 0 86 -90 156 -260 202 -159 44 -214 47 -657 44 -233
-2 -423 -1 -423 1 0 2 34 30 75 62 87 68 144 132 213 239 56 85 85 153 112
266 48 199 32 295 -66 406 -135 152 -144 159 -231 183 -175 47 -303 45 -513
-5 -205 -50 -485 -208 -662 -372 -36 -34 -70 -62 -75 -62 -5 0 -28 20 -52 44
l-43 43 83 27 c205 66 318 191 322 354 2 58 -2 74 -27 117 -58 100 -266 283
-398 351 -189 96 -882 338 -1108 385 -123 26 -382 35 -455 15z m360 -27 c114
-14 265 -56 572 -158 417 -138 644 -236 770 -334 86 -66 195 -170 226 -214 28
-40 51 -103 39 -103 -4 0 -36 25 -72 56 -100 85 -195 140 -357 205 -220 90
-268 100 -468 106 -139 3 -188 9 -270 30 -148 38 -264 77 -345 118 -89 45
-343 146 -425 170 -33 9 -92 19 -133 22 -71 6 -72 6 -55 26 38 41 147 81 248
90 49 4 184 -3 270 -14z m-390 -143 c71 -19 217 -78 389 -158 141 -66 255
-112 263 -105 1 2 -23 14 -55 27 -72 29 -252 119 -252 125 0 7 84 -28 180 -74
169 -82 323 -119 555 -131 110 -6 197 -16 245 -28 98 -26 378 -136 410 -162
24 -20 23 -20 -30 1 -187 74 -402 123 -630 144 -74 6 -231 29 -280 40 l-25 6
25 -11 c43 -19 140 -38 275 -55 261 -32 333 -46 485 -96 169 -55 275 -101 342
-147 48 -33 98 -80 98 -93 0 -5 -15 -16 -32 -26 -29 -16 -60 -18 -228 -18
-180 1 -208 3 -360 34 -231 46 -570 127 -665 158 -289 94 -620 262 -794 401
-85 69 -124 148 -83 171 24 15 108 13 167 -3z m15 -268 c135 -90 405 -221 590
-288 256 -92 779 -209 1038 -232 136 -12 277 -2 324 23 33 18 32 2 -3 -57 -67
-111 -174 -182 -354 -231 -93 -26 -113 -28 -290 -27 -223 0 -353 18 -525 71
-332 102 -615 254 -755 405 -151 161 -232 312 -242 446 l-6 76 59 -58 c32 -32
106 -90 164 -128z m-1237 -263 c76 -16 162 -59 222 -110 51 -44 26 -46 -40 -4
-118 75 -278 60 -513 -47 -98 -45 -189 -110 -293 -211 l-85 -83 -92 6 c-51 4
-92 11 -92 16 0 16 163 179 229 227 138 103 281 171 420 201 107 22 157 24
244 5z m129 -113 c16 -15 16 -20 2 -48 -8 -17 -50 -69 -92 -116 -42 -46 -117
-130 -167 -186 -61 -70 -95 -100 -105 -96 -30 11 -276 73 -317 79 -24 4 -43
10 -43 15 0 9 158 142 212 177 21 14 36 28 34 31 -10 9 -151 -87 -218 -147
-60 -56 -98 -75 -98 -52 0 13 125 126 195 176 81 58 196 119 275 145 146 50
285 59 322 22z m1148 -21 c0 -5 -26 -12 -57 -15 -170 -18 -510 -103 -558 -141
-18 -14 -17 -14 15 -1 91 37 387 106 538 126 88 12 94 12 115 -7 12 -11 42
-33 66 -49 l43 -28 -38 -18 c-36 -16 -26 -17 27 -2 25 7 69 -3 69 -16 0 -5
-26 -17 -57 -26 -82 -23 -254 -86 -250 -90 2 -2 77 19 167 47 89 27 170 49
178 47 19 -4 -165 -75 -393 -152 -387 -131 -595 -220 -776 -332 l-88 -55 -58
47 c-32 25 -89 65 -128 89 -38 23 -70 47 -70 52 0 15 174 163 257 219 178 119
551 247 858 294 141 22 140 22 140 11z m-1078 -15 c16 -12 13 -17 -29 -62 -25
-27 -84 -94 -131 -149 -47 -55 -106 -121 -131 -147 -25 -27 -40 -48 -33 -48
14 0 114 98 254 251 59 64 117 119 128 122 35 9 60 -44 60 -125 l0 -67 -77
-57 c-43 -31 -115 -93 -160 -137 l-83 -81 -36 13 c-20 7 -61 24 -91 37 l-55
24 33 38 c54 61 150 171 215 244 34 38 73 89 85 114 26 49 27 49 51 30z m3884
-57 c132 -23 244 -78 244 -119 0 -20 -68 -76 -153 -125 -47 -28 -134 -64 -211
-90 -72 -23 -147 -50 -166 -60 -39 -20 -190 -144 -190 -156 0 -4 -39 -36 -87
-71 -49 -34 -108 -78 -132 -96 -64 -48 -137 -83 -291 -137 -156 -54 -289 -114
-309 -138 -7 -9 -20 -17 -27 -17 -28 0 -12 20 44 53 49 30 694 359 726 370 6
2 8 7 4 11 -3 4 -39 -7 -80 -24 -60 -27 -460 -223 -524 -259 -11 -5 -65 -35
-121 -66 -132 -73 -148 -71 -139 19 4 33 18 84 30 111 55 119 278 372 442 500
175 137 382 240 554 274 151 30 292 37 386 20z m-2483 -134 c17 -12 5 -18
-125 -59 -121 -38 -323 -96 -337 -96 -17 0 23 17 130 55 68 24 165 60 214 79
104 41 95 39 118 21z m2757 -36 c0 -5 -7 -9 -15 -9 -15 0 -20 12 -9 23 8 8 24
-1 24 -14z m-2650 -19 c33 -17 60 -32 60 -35 0 -3 -8 -24 -17 -47 -64 -166
-301 -372 -590 -517 -156 -78 -403 -166 -519 -185 l-41 -7 -70 83 c-39 46
-103 116 -143 156 -40 40 -71 74 -69 75 7 4 241 114 459 214 136 63 247 106
330 130 194 54 410 121 465 142 65 26 66 26 135 -9z m2701 -20 c52 -29 65
-145 26 -240 -77 -187 -286 -394 -534 -529 -237 -129 -542 -214 -768 -215
-140 -1 -219 14 -307 58 -76 38 -85 62 -39 105 41 38 92 61 306 138 218 79
249 94 351 172 148 115 229 168 320 214 51 26 133 71 183 102 51 30 93 55 95
55 2 0 64 34 137 75 137 77 183 90 230 65z m-2498 -49 c37 -13 67 -26 67 -30
0 -4 -14 -17 -30 -29 -17 -13 -47 -45 -69 -71 l-38 -49 -6 81 c-4 45 -10 93
-13 106 -6 19 -4 23 7 19 8 -3 44 -15 82 -27z m-96 -86 c5 -64 -21 -219 -50
-287 -14 -34 -20 -38 -52 -38 -51 0 -103 -25 -115 -55 -8 -20 -16 -25 -46 -25
-67 0 -91 -43 -161 -283 -2 -10 -28 -33 -56 -51 l-52 -33 -166 5 c-154 4 -264
-5 -396 -33 -18 -4 -28 7 -62 66 -23 40 -40 73 -39 74 2 2 56 17 121 34 440
117 825 352 986 601 23 35 41 67 41 71 0 4 5 20 11 36 l11 28 10 -25 c5 -14
12 -52 15 -85z m-3828 59 l53 -7 -123 -42 c-230 -77 -396 -180 -559 -345 -117
-118 -175 -205 -185 -281 -8 -56 0 -52 -138 -69 -48 -6 -125 -22 -171 -35 -80
-23 -348 -136 -374 -157 -24 -21 -15 124 13 199 61 162 337 446 554 572 135
79 363 154 516 170 91 10 314 7 414 -5z m681 6 c52 -5 116 -15 143 -21 l48
-11 -7 -37 c-11 -62 -31 -99 -82 -154 -51 -54 -74 -92 -101 -165 -15 -40 -22
-46 -86 -73 -38 -16 -146 -57 -240 -90 -93 -34 -172 -63 -175 -66 -20 -22 255
59 389 114 45 19 85 33 87 30 22 -22 -196 -117 -401 -175 -215 -61 -447 -99
-430 -72 3 6 19 10 35 10 30 0 247 54 257 64 11 11 -31 6 -122 -14 -163 -37
-228 -43 -400 -41 -98 1 -216 -4 -278 -12 -59 -8 -110 -11 -112 -7 -3 4 2 30
10 57 42 141 276 369 505 491 253 135 640 205 960 172z m607 -5 c260 -30 398
-65 595 -150 177 -76 249 -119 385 -232 140 -116 315 -315 382 -433 l31 -56
-120 -37 c-65 -21 -143 -48 -172 -61 l-52 -23 -69 45 c-79 51 -196 106 -247
117 -19 4 -33 5 -30 2 3 -3 63 -35 133 -71 70 -35 141 -75 159 -87 30 -22 31
-23 10 -32 -17 -8 -45 4 -148 58 -70 36 -161 80 -203 96 -71 28 -155 74 -341
187 -41 25 -193 124 -338 220 -262 173 -367 232 -409 232 -27 0 -28 5 -5 47
l17 32 34 -34 c18 -19 70 -55 115 -81 208 -119 461 -273 556 -339 141 -97 285
-185 302 -185 7 0 2 9 -12 21 -71 57 -423 282 -616 395 -228 132 -284 169
-321 213 -22 25 -30 72 -17 106 10 25 63 48 129 55 95 11 122 11 252 -5z
m2773 -23 c0 -4 -25 -32 -56 -62 -55 -54 -134 -162 -134 -184 0 -6 16 12 35
39 48 68 175 195 194 195 9 0 34 -5 57 -10 152 -35 465 -50 595 -28 l70 11 50
-49 c27 -26 49 -53 49 -59 0 -6 -18 -33 -41 -60 -62 -75 -154 -205 -177 -250
-24 -47 -42 -138 -42 -208 l0 -50 -115 5 -116 4 -77 76 c-42 41 -107 96 -144
122 -120 84 -279 146 -376 146 -38 0 -43 2 -37 18 3 9 13 42 22 73 19 69 110
200 171 246 42 31 72 42 72 25z m1830 -113 c-66 -42 -170 -92 -177 -85 -8 8
98 78 154 101 87 36 96 30 23 -16z m595 -41 c-11 -83 -53 -225 -87 -292 -71
-141 -156 -243 -282 -339 -77 -59 -80 -60 -165 -68 -246 -25 -460 -86 -512
-145 -9 -11 -19 -43 -21 -72 -3 -29 -8 -56 -12 -60 -14 -13 -229 -5 -298 11
-38 9 -103 33 -145 53 -141 67 -257 210 -278 343 -6 39 -5 43 10 38 9 -4 25
-7 36 -7 17 0 19 -7 18 -48 -3 -62 11 -85 63 -111 77 -36 160 -53 289 -58 109
-5 145 -2 265 22 184 35 345 90 516 176 291 146 516 363 584 563 9 25 18 46
21 46 3 0 2 -24 -2 -52z m-3710 32 c-3 -5 -10 -10 -14 -10 -14 0 -258 -119
-354 -172 -93 -51 -97 -53 -97 -39 0 15 432 230 463 231 5 0 5 -4 2 -10z
m-1821 -149 c30 -16 159 -99 287 -184 325 -214 582 -366 704 -416 44 -18 109
-50 145 -70 36 -21 84 -46 108 -56 23 -10 42 -21 42 -26 0 -4 -24 -24 -52 -45
-29 -21 -64 -47 -78 -60 -21 -19 -44 -23 -160 -33 -143 -12 -330 -42 -418 -68
l-54 -15 -104 52 c-57 29 -141 78 -185 109 -165 118 -336 297 -394 410 -69
137 -82 376 -23 425 33 26 113 16 182 -23z m3024 -147 c152 -50 255 -118 377
-245 169 -177 291 -386 383 -659 33 -98 35 -113 35 -235 1 -149 -21 -266 -55
-302 -31 -33 -43 -29 -79 25 -40 58 -148 188 -184 222 -80 74 -294 375 -432
607 -171 288 -231 382 -306 482 -47 61 -75 107 -70 112 35 35 219 31 331 -7z
m-3278 -41 c0 -45 40 -174 77 -248 29 -57 62 -96 172 -205 148 -147 264 -233
406 -302 l86 -41 -98 -48 c-54 -26 -120 -63 -147 -83 l-49 -35 -58 46 c-63 49
-129 117 -196 202 -52 66 -55 59 -7 -17 39 -62 147 -178 206 -222 31 -22 35
-30 24 -39 -11 -9 -33 7 -108 78 -109 103 -181 202 -243 334 -54 115 -75 193
-86 327 -9 112 -2 280 12 280 5 0 9 -12 9 -27z m2981 -56 c71 -90 197 -284
269 -411 129 -229 386 -596 512 -732 57 -61 116 -130 132 -155 17 -24 41 -56
55 -71 24 -27 24 -28 6 -48 -23 -26 -35 -25 -35 0 0 47 -47 115 -170 250 -93
102 -200 238 -299 379 -35 50 -66 90 -68 87 -8 -8 111 -192 184 -284 41 -51
121 -145 178 -208 103 -114 163 -209 151 -239 -3 -9 -27 -25 -53 -37 -40 -18
-60 -20 -157 -16 -166 8 -282 54 -447 179 -233 177 -433 508 -479 792 -14 87
-8 366 10 439 15 61 49 112 78 116 42 6 79 -44 397 -537 60 -93 111 -168 113
-167 15 16 -375 632 -444 700 -14 15 -12 37 4 36 4 -1 32 -33 63 -73z m-3038
-139 c4 -94 13 -169 26 -218 13 -47 17 -78 11 -85 -12 -14 -114 -65 -153 -76
-28 -8 -35 -3 -97 55 -37 35 -89 78 -115 96 -60 41 -187 100 -293 135 -46 15
-81 29 -80 31 2 1 57 12 123 24 208 36 382 88 494 145 36 19 69 34 72 35 3 0
9 -64 12 -142z m-878 -62 c427 -75 693 -246 828 -533 31 -65 32 -73 32 -189
l0 -122 -47 -93 c-50 -98 -108 -177 -168 -225 -34 -28 -34 -28 -18 -4 92 133
117 214 100 328 -10 65 -10 86 3 127 28 94 15 149 -61 265 -134 205 -462 399
-743 440 -44 7 -81 14 -81 16 0 8 79 3 155 -10z m-97 -31 c330 -56 659 -259
765 -474 39 -78 49 -151 25 -184 -21 -27 -113 -33 -408 -25 -490 14 -980 51
-1135 87 -75 17 -259 47 -405 65 -19 2 21 3 90 1 162 -4 81 10 -140 24 -85 6
-166 13 -180 16 -22 5 -21 3 5 -9 17 -9 57 -16 90 -17 l60 -2 -65 -9 c-80 -12
-113 -1 -128 41 -10 28 -7 35 32 89 122 165 418 324 721 387 177 37 490 41
673 10z m3722 -54 c0 -25 -11 -32 -40 -24 l-23 6 24 18 c31 24 39 24 39 0z
m-46 -48 l28 -9 3 -129 c4 -193 39 -324 144 -532 l51 -103 -23 -14 c-27 -17
-200 -73 -242 -78 -28 -3 -30 -1 -27 27 2 21 -9 48 -37 91 -34 52 -39 66 -34
100 5 36 2 43 -34 75 -46 42 -168 110 -238 134 -27 9 -127 36 -221 60 -163 41
-222 50 -499 73 l-90 8 94 62 c182 121 379 193 671 246 43 8 423 -1 454 -11z
m105 -268 c27 -99 102 -271 158 -363 210 -348 498 -551 784 -555 125 -1 206
26 284 96 30 27 55 46 55 42 0 -17 -65 -98 -105 -130 -84 -69 -284 -111 -406
-86 -111 23 -304 138 -412 245 -34 33 -100 115 -146 181 -110 158 -184 313
-222 461 -26 104 -29 131 -28 258 l2 141 8 -109 c5 -60 17 -141 28 -181z
m3586 240 c99 -16 217 -50 282 -83 65 -34 62 -42 -14 -42 -37 0 -128 -7 -201
-14 -73 -8 -168 -13 -210 -11 -42 2 -63 1 -47 -1 17 -3 34 -9 38 -13 14 -14
-66 -21 -124 -12 -98 15 -918 22 -1073 8 -50 -4 -87 -5 -85 -2 3 2 57 12 120
21 135 19 265 21 564 10 123 -5 264 -5 320 0 90 8 67 9 -225 18 -480 13 -490
13 -680 -11 -233 -30 -250 -31 -250 -18 0 5 15 20 34 33 121 83 371 119 891
130 380 9 539 5 660 -13z m-6305 -172 c17 -37 28 -73 25 -80 -5 -13 -120 -73
-140 -73 -5 0 -29 30 -53 65 -37 58 -40 66 -25 72 51 17 134 57 144 69 6 8 13
14 15 14 2 0 17 -30 34 -67z m6674 7 c5 -5 0 -23 -13 -44 -40 -64 -120 -93
-546 -198 l-130 -32 -280 2 c-493 4 -718 37 -920 133 -160 77 -98 101 295 118
197 8 879 -2 987 -15 33 -4 78 0 122 10 38 9 139 21 223 26 84 6 160 12 168
14 23 6 83 -3 94 -14z m-1837 -6 c-3 -3 -12 -4 -19 -1 -8 3 -5 6 6 6 11 1 17
-2 13 -5z m-72 -14 c-28 -12 -67 -12 -60 0 3 6 23 10 43 9 30 0 33 -2 17 -9z
m1889 -146 c-85 -267 -352 -470 -724 -550 -145 -31 -410 -12 -590 42 -301 91
-477 217 -570 408 -22 45 -42 94 -46 109 l-7 29 53 -27 c70 -35 221 -81 328
-99 157 -27 273 -36 528 -43 306 -8 357 -2 671 77 231 59 324 92 358 130 10
11 20 18 23 16 2 -3 -8 -44 -24 -92z m-4854 -3 c125 -24 346 -82 424 -113 59
-23 182 -93 214 -121 27 -25 29 -54 3 -62 -11 -3 -57 -1 -102 5 -46 5 -122 10
-169 9 l-85 -1 60 -13 60 -12 -47 -2 c-47 -1 -257 -24 -382 -42 -38 -5 -90 -6
-117 -3 -107 14 -919 -30 -1121 -61 -126 -20 -160 -30 -183 -55 -23 -25 -35
-17 -35 23 0 32 1 33 66 45 78 15 205 27 439 42 94 7 224 18 290 26 66 7 156
14 200 14 44 1 98 5 120 9 72 13 -146 21 -305 10 -233 -16 -618 -50 -708 -63
-46 -7 -85 -9 -87 -6 -11 17 59 101 126 151 158 119 318 187 519 219 74 11
142 23 150 25 8 2 137 2 285 1 226 -3 289 -7 385 -25z m-3975 -101 c83 -10
340 -58 427 -81 124 -32 943 -83 1265 -77 l203 3 0 -27 c0 -36 -3 -44 -15 -39
-5 2 -199 7 -430 11 -586 11 -696 20 -1385 117 -102 15 -224 27 -273 27 -68 1
-86 4 -82 14 3 8 5 22 5 32 0 10 8 21 18 23 32 9 177 7 267 -3z m95 -124 c607
-95 731 -105 1322 -114 415 -7 427 -8 455 -28 25 -19 28 -27 27 -76 -1 -69
-27 -121 -105 -216 -154 -186 -390 -296 -669 -310 -274 -14 -528 23 -845 125
-315 100 -551 310 -611 543 l-16 64 28 24 c27 24 32 24 139 19 60 -3 184 -17
275 -31z m4535 -107 c12 -19 -3 -21 -52 -6 l-48 15 47 1 c26 1 50 -4 53 -10z
m-64 -32 c67 -16 126 -50 134 -78 8 -24 -32 -95 -79 -143 -55 -54 -114 -83
-277 -135 -264 -84 -683 -123 -944 -87 -241 33 -431 82 -628 162 -139 57 -177
76 -205 106 -46 50 -14 69 153 92 168 23 210 26 496 36 267 9 605 31 869 55
168 16 400 12 481 -8z m-2026 -187 c58 -51 90 -67 240 -122 337 -126 561 -171
835 -170 287 0 518 33 768 109 138 41 199 71 259 126 41 37 45 39 38 17 -14
-46 -89 -183 -126 -230 -77 -97 -224 -197 -383 -259 -224 -88 -373 -110 -605
-91 -164 13 -229 25 -381 70 -173 52 -255 88 -368 162 -208 137 -303 232 -331
333 -13 49 -14 95 -2 95 6 0 31 -18 56 -40z"/>
<path d="M5900 2884 c0 -13 104 -46 242 -78 214 -50 229 -44 23 8 -93 25 -191
51 -217 59 -27 8 -48 13 -48 11z"/>
<path d="M6355 2730 c11 -5 29 -9 40 -9 17 -1 17 1 5 9 -8 5 -26 9 -40 9 -23
0 -23 -1 -5 -9z"/>
<path d="M6605 2689 c112 -22 320 -33 400 -21 57 9 53 10 -60 11 -66 1 -174 8
-240 16 -166 20 -213 17 -100 -6z"/>
<path d="M7080 2634 c-77 -66 -148 -107 -225 -134 -68 -23 -213 -50 -272 -50
-24 0 -43 -4 -43 -10 0 -5 35 -7 88 -4 190 12 347 71 449 167 45 42 83 89 71
86 -2 0 -32 -25 -68 -55z"/>
<path d="M3742 2941 c-40 -11 -80 -25 -90 -31 -15 -10 -15 -11 3 -5 94 32 287
42 385 20 17 -4 14 -1 -10 10 -56 27 -200 29 -288 6z"/>
<path d="M4033 2754 c-48 -59 -56 -80 -17 -43 26 25 69 88 63 93 -2 2 -23 -21
-46 -50z"/>
<path d="M4425 2593 c-98 -40 -264 -153 -347 -235 -62 -62 -43 -64 25 -3 70
64 236 179 315 219 28 14 52 29 52 31 0 6 2 7 -45 -12z"/>
<path d="M5027 2399 c-54 -16 -165 -59 -245 -95 -161 -72 -424 -206 -417 -212
2 -3 107 44 232 103 294 139 336 157 468 195 61 18 112 34 114 36 15 13 -69
-2 -152 -27z"/>
<path d="M5440 2210 c-165 -120 -403 -252 -560 -311 -89 -33 -77 -38 22 -8
150 46 476 234 596 345 26 24 45 43 42 43 -3 0 -48 -31 -100 -69z"/>
<path d="M5068 2023 c-81 -42 -146 -79 -144 -81 13 -12 296 135 296 154 0 6 6
9 -152 -73z"/>
<path d="M4360 2045 c0 -5 33 -43 73 -84 40 -42 87 -94 104 -116 54 -67 37
-24 -19 49 -50 65 -158 168 -158 151z"/>
<path d="M8197 2075 c-124 -120 -237 -207 -354 -273 -46 -25 -81 -47 -79 -49
9 -9 198 93 266 145 76 56 221 197 260 252 12 17 20 30 18 30 -2 0 -52 -47
-111 -105z"/>
<path d="M5746 2300 c-5 -25 -19 -73 -32 -107 -23 -63 -17 -87 10 -35 18 34
39 143 34 168 -3 11 -8 0 -12 -26z"/>
<path d="M5671 2201 c-13 -34 -21 -64 -18 -67 7 -7 49 106 44 119 -2 6 -14
-17 -26 -52z"/>
<path d="M5311 1835 c-94 -64 -175 -105 -271 -136 -63 -21 -77 -28 -53 -29 75
-1 268 93 357 172 22 20 39 37 36 37 -3 0 -34 -20 -69 -44z"/>
<path d="M5344 1800 c-5 -5 -61 -37 -124 -70 -63 -34 -104 -58 -90 -54 41 11
196 93 215 114 18 20 17 28 -1 10z"/>
<path d="M5267 1702 c-31 -19 -55 -37 -53 -39 5 -6 75 31 106 56 39 32 11 23
-53 -17z"/>
<path d="M1317 2120 c-58 -51 -134 -147 -181 -227 -52 -89 -44 -91 12 -3 27
41 88 119 136 173 48 53 86 97 83 97 -2 0 -25 -18 -50 -40z"/>
<path d="M935 1769 c-125 -18 -355 -108 -420 -164 -26 -22 -18 -20 50 14 108
53 304 118 398 133 43 7 77 16 77 20 0 9 -24 9 -105 -3z"/>
<path d="M705 1736 c-74 -24 -137 -54 -170 -81 -11 -9 2 -5 30 8 28 14 90 39
140 56 49 18 91 34 94 36 10 11 -28 3 -94 -19z"/>
<path d="M2538 2045 c-32 -13 -130 -49 -219 -81 -89 -32 -157 -60 -152 -61 22
-8 433 146 433 161 0 8 4 9 -62 -19z"/>
<path d="M2941 2441 c-14 -4 -27 -13 -29 -20 -4 -11 0 -12 14 -6 11 5 84 11
164 15 105 3 134 7 105 12 -49 9 -221 9 -254 -1z"/>
<path d="M3363 2413 c9 -2 23 -2 30 0 6 3 -1 5 -18 5 -16 0 -22 -2 -12 -5z"/>
<path d="M3470 2400 c0 -5 5 -10 10 -10 6 0 10 5 10 10 0 6 -4 10 -10 10 -5 0
-10 -4 -10 -10z"/>
<path d="M5988 2333 c-51 -49 -114 -131 -105 -139 2 -3 12 8 22 23 10 15 48
58 83 96 75 77 75 89 0 20z"/>
<path d="M6200 2349 c69 -28 220 -50 345 -50 204 0 211 17 10 24 -94 3 -213
13 -265 21 -109 18 -125 19 -90 5z"/>
<path d="M6800 2315 c35 -37 46 -44 34 -22 -13 23 -47 57 -58 57 -5 0 5 -16
24 -35z"/>
<path d="M6237 2269 c16 -16 237 -49 322 -48 l86 2 -120 9 c-66 5 -160 18
-208 28 -49 10 -85 14 -80 9z"/>
<path d="M6525 2160 l-70 -6 78 -2 c46 -1 77 2 77 8 0 6 -3 9 -7 8 -5 -1 -39
-4 -78 -8z"/>
<path d="M5835 2114 c28 -8 75 -22 105 -31 83 -24 256 -108 319 -154 31 -22
84 -71 118 -107 78 -83 82 -70 8 20 -95 115 -276 220 -455 264 -105 26 -178
32 -95 8z"/>
<path d="M8386 2175 c-3 -9 -6 -22 -5 -28 0 -7 5 -1 10 12 5 13 8 26 5 28 -2
2 -6 -3 -10 -12z"/>
<path d="M8327 2076 c-10 -14 -13 -26 -8 -26 13 0 33 28 29 41 -2 6 -12 0 -21
-15z"/>
<path d="M8278 1942 c-71 -98 -184 -220 -249 -268 -28 -20 -48 -39 -45 -41 9
-10 130 84 186 143 76 80 179 228 168 239 -2 3 -29 -31 -60 -73z"/>
<path d="M8135 1856 c-79 -82 -145 -140 -195 -172 -93 -58 -107 -71 -55 -49
68 27 117 60 186 123 72 66 203 222 187 222 -2 0 -57 -56 -123 -124z"/>
<path d="M6925 1525 c54 -18 255 -19 320 -1 l50 14 -65 -6 c-85 -9 -232 -9
-295 0 l-50 7 40 -14z"/>
<path d="M7398 1509 c-18 -10 -25 -29 -10 -29 4 0 18 9 32 20 27 21 10 28 -22
9z"/>
<path d="M7350 1444 c0 -8 5 -12 10 -9 6 3 10 10 10 16 0 5 -4 9 -10 9 -5 0
-10 -7 -10 -16z"/>
<path d="M6961 1391 c67 -37 184 -61 293 -60 81 1 93 3 61 10 -22 4 -68 8
-101 8 -51 1 -186 29 -269 56 -11 3 -4 -3 16 -14z"/>
<path d="M6591 658 c18 -35 30 -48 40 -42 10 6 -30 64 -43 64 -5 0 -3 -10 3
-22z"/>
<path d="M2666 1850 c14 -103 50 -169 159 -293 80 -92 184 -180 295 -252 74
-48 190 -108 196 -102 3 2 -37 29 -88 60 -188 112 -360 258 -457 389 -24 32
-57 96 -77 150 -28 75 -33 84 -28 48z"/>
<path d="M2760 1410 c0 -5 5 -10 11 -10 5 0 7 5 4 10 -3 6 -8 10 -11 10 -2 0
-4 -4 -4 -10z"/>
<path d="M2917 1245 c27 -38 84 -92 146 -139 52 -39 89 -50 45 -13 -14 12 -68
58 -119 102 -55 47 -85 67 -72 50z"/>
<path d="M3045 1190 c3 -5 8 -10 11 -10 2 0 4 5 4 10 0 6 -5 10 -11 10 -5 0
-7 -4 -4 -10z"/>
<path d="M3090 1164 c0 -11 45 -43 60 -43 11 0 10 4 -5 15 -29 22 -55 36 -55
28z"/>
<path d="M5475 1904 c-23 -54 -38 -219 -32 -344 9 -191 22 -157 23 63 1 164 5
223 17 262 20 60 14 72 -8 19z"/>
<path d="M5481 1322 c-1 -26 34 -131 49 -146 10 -10 -7 55 -34 129 -11 29 -15
34 -15 17z"/>
<path d="M5875 685 c145 -134 440 -240 576 -208 l44 11 -42 1 c-205 6 -415 81
-564 203 -39 32 -74 58 -77 58 -4 -1 25 -30 63 -65z"/>
<path d="M2523 1502 c-45 -20 -81 -37 -79 -39 7 -7 104 29 141 52 55 34 35 30
-62 -13z"/>
<path d="M1990 1646 c0 -2 44 -29 98 -61 118 -70 212 -145 272 -219 59 -72 65
-64 7 11 -84 110 -176 179 -339 255 -21 9 -38 16 -38 14z"/>
<path d="M2483 1182 c8 -38 8 -71 -1 -122 -14 -85 -15 -130 -2 -150 7 -11 10
3 10 45 0 33 5 80 11 105 12 51 4 130 -15 156 -11 14 -11 8 -3 -34z"/>
<path d="M2562 995 c0 -54 2 -63 8 -42 5 16 5 47 0 70 -7 38 -8 36 -8 -28z"/>
<path d="M2518 980 c-11 -38 -10 -56 3 -43 6 6 9 23 7 39 l-3 29 -7 -25z"/>
<path d="M2490 829 c0 -17 4 -28 10 -24 6 3 10 17 10 31 0 13 -4 24 -10 24 -5
0 -10 -14 -10 -31z"/>
<path d="M685 1599 c-77 -28 -225 -107 -225 -119 0 -3 55 22 123 55 67 34 140
68 162 77 70 28 23 18 -60 -13z"/>
<path d="M2286 1335 c4 -8 12 -15 20 -15 8 0 11 6 8 15 -4 8 -12 15 -20 15 -8
0 -11 -6 -8 -15z"/>
<path d="M2365 1220 c44 -88 49 -95 39 -55 -10 42 -39 99 -60 115 -10 9 -2
-15 21 -60z"/>
<path d="M725 1170 c7 -12 69 -12 105 0 18 6 6 8 -43 9 -43 1 -66 -3 -62 -9z"/>
<path d="M970 1124 c84 -21 216 -34 430 -44 107 -5 260 -14 340 -20 98 -8 157
-8 180 -2 31 9 27 10 -40 12 -41 0 -124 5 -185 10 -60 5 -218 16 -350 25 -132
8 -276 19 -320 25 -105 13 -122 11 -55 -6z"/>
<path d="M1430 1130 c24 -8 248 -14 239 -6 -2 2 -62 6 -134 9 -71 3 -119 1
-105 -3z"/>
<path d="M4775 1564 c-114 -19 -239 -57 -353 -107 -102 -45 -192 -100 -192
-118 0 -6 14 -1 30 11 43 31 222 113 313 144 96 33 244 63 362 75 l90 8 -85 1
c-47 0 -121 -6 -165 -14z"/>
<path d="M5098 1573 c18 -2 45 -2 60 0 15 2 0 4 -33 4 -33 0 -45 -2 -27 -4z"/>
<path d="M5187 1024 c-8 -8 3 -34 14 -34 11 0 12 27 0 34 -4 3 -11 3 -14 0z"/>
<path d="M5222 921 c2 -7 7 -12 11 -12 12 1 9 15 -3 20 -7 2 -11 -2 -8 -8z"/>
<path d="M5250 880 c-12 -8 -12 -10 5 -9 11 0 29 4 40 9 18 8 18 9 -5 9 -14 0
-32 -4 -40 -9z"/>
<path d="M5322 851 c-63 -18 -88 -31 -60 -31 25 0 117 30 123 40 3 6 5 10 3 9
-2 0 -31 -9 -66 -18z"/>
<path d="M5410 831 c-30 -9 -64 -23 -75 -29 -19 -11 -19 -11 2 -12 27 0 130
38 138 51 8 12 0 11 -65 -10z"/>
<path d="M2560 1350 c-9 -6 -10 -10 -3 -10 6 0 15 5 18 10 8 12 4 12 -15 0z"/>
<path d="M2602 1338 c-24 -11 -42 -22 -39 -24 7 -7 73 22 81 35 9 13 11 14
-42 -11z"/>
<path d="M2627 1314 c-27 -14 -47 -28 -44 -30 6 -6 95 35 103 47 9 14 -8 10
-59 -17z"/>
<path d="M7571 1256 c15 -16 164 -58 249 -70 126 -19 289 -29 270 -18 -8 5
-60 13 -115 16 -134 10 -233 28 -390 73 -11 3 -17 3 -14 -1z"/>
<path d="M8835 1205 c-19 -8 -308 -35 -366 -35 -33 0 -59 -3 -59 -7 0 -5 71
-5 157 -2 148 6 256 22 278 41 9 8 7 9 -10 3z"/>
<path d="M7460 1195 c0 -29 73 -130 144 -201 87 -87 185 -150 301 -195 127
-49 122 -41 -21 30 -200 99 -291 176 -398 336 -14 22 -26 35 -26 30z"/>
<path d="M7730 965 c7 -8 17 -15 22 -15 6 0 5 7 -2 15 -7 8 -17 15 -22 15 -6
0 -5 -7 2 -15z"/>
<path d="M7824 901 c3 -4 33 -22 68 -39 140 -71 396 -109 604 -91 60 5 112 11
117 12 4 1 -80 2 -185 3 -247 0 -385 25 -556 100 -29 13 -51 20 -48 15z"/>
<path d="M8805 789 c-181 -58 -360 -76 -550 -54 -77 9 -149 18 -160 21 l-20 5
20 -12 c26 -16 232 -49 310 -49 92 0 292 36 391 71 49 17 91 33 93 35 9 9 -27
1 -84 -17z"/>
<path d="M4200 1244 c210 -27 281 -39 380 -60 134 -30 290 -76 374 -111 79
-33 83 -22 4 15 -155 74 -477 148 -680 156 -62 2 -97 2 -78 0z"/>
<path d="M4400 949 c-58 -5 -109 -11 -115 -14 -16 -8 366 5 415 14 62 12 -157
11 -300 0z"/>
<path d="M995 1006 c83 -16 367 -40 410 -34 17 2 -5 7 -50 11 -44 4 -134 11
-200 17 -252 22 -239 21 -160 6z"/>
<path d="M1506 971 c-8 -12 192 -21 409 -19 l190 1 -265 8 c-146 4 -280 10
-297 13 -18 2 -35 1 -37 -3z"/>
<path d="M240 865 c0 -15 18 -40 24 -34 3 3 -1 14 -9 25 -8 10 -14 15 -15 9z"/>
<path d="M314 760 c77 -116 278 -253 475 -324 113 -41 105 -26 -12 22 -154 64
-308 159 -401 250 -43 42 -71 66 -62 52z"/>
<path d="M940 386 c0 -8 109 -37 235 -64 106 -22 145 -25 335 -26 180 -1 227
2 290 18 70 17 138 45 115 46 -6 0 -53 -10 -105 -22 -79 -18 -127 -22 -285
-22 -191 0 -339 17 -506 60 -59 15 -79 17 -79 10z"/>
<path d="M3135 694 c30 -23 91 -53 162 -80 66 -25 89 -24 28 2 -19 7 -71 32
-116 54 -88 43 -106 49 -74 24z"/>
<path d="M3337 634 c53 -25 231 -74 268 -73 18 0 -238 81 -295 93 -14 3 -1 -6
27 -20z"/>
<path d="M3435 564 c159 -59 499 -116 670 -113 l60 2 -60 7 c-33 5 -105 13
-160 19 -95 10 -411 69 -485 91 -52 15 -71 11 -25 -6z"/>
<path d="M3660 550 c0 -5 9 -10 21 -10 11 0 17 5 14 10 -3 6 -13 10 -21 10 -8
0 -14 -4 -14 -10z"/>
<path d="M5037 539 c-51 -27 -232 -85 -310 -100 -69 -13 -102 -32 -41 -23 147
22 328 80 384 124 32 25 16 25 -33 -1z"/>
<path d="M5048 455 c-64 -80 -75 -105 -28 -60 32 31 95 123 89 129 -2 2 -30
-29 -61 -69z"/>
<path d="M4954 417 c-119 -87 -191 -132 -264 -165 -41 -18 -61 -31 -45 -27 77
16 235 109 340 200 55 48 39 44 -31 -8z"/>
<path d="M4810 261 c-136 -69 -253 -112 -370 -136 -148 -29 -163 -35 -77 -29
95 7 233 43 336 88 83 35 216 110 226 126 8 14 14 16 -115 -49z"/>
<path d="M4565 210 c-3 -5 -1 -10 4 -10 6 0 11 5 11 10 0 6 -2 10 -4 10 -3 0
-8 -4 -11 -10z"/>
<path d="M10855 1256 c-186 -27 -320 -90 -420 -198 l-63 -68 -178 0 c-196 0
-316 -15 -454 -56 -176 -53 -276 -98 -311 -142 -13 -17 -19 -41 -19 -73 0 -26
-4 -59 -10 -73 -7 -19 -4 -42 10 -88 65 -210 290 -402 567 -484 121 -35 347
-44 513 -20 195 29 276 52 405 116 107 52 130 69 196 137 41 43 81 88 89 100
l15 22 110 -19 c139 -24 219 -25 374 -1 136 21 221 55 279 112 43 42 47 63 28
153 -20 96 -61 178 -125 248 -105 114 -338 253 -501 297 -150 40 -370 56 -505
37z m381 -41 c277 -45 561 -214 661 -393 40 -72 73 -169 73 -216 0 -69 -127
-144 -290 -171 -126 -20 -299 -19 -394 1 l-75 17 14 26 c25 49 41 149 27 171
-7 11 -12 37 -12 58 0 40 -22 69 -81 106 -85 54 -585 172 -749 176 -8 1 11 25
45 56 79 73 212 139 330 164 113 23 323 26 451 5z m-636 -269 c146 -26 384
-84 477 -118 87 -31 161 -86 148 -109 -8 -12 -39 -10 -180 11 -82 13 -233 8
-322 -9 -274 -54 -273 -54 -423 -47 -138 6 -281 25 -470 61 -47 9 -151 19
-232 22 -82 3 -148 9 -148 13 0 48 286 155 495 186 125 18 527 12 655 -10z
m-665 -251 c289 -48 469 -56 620 -26 229 45 413 61 490 41 l30 -8 -30 -1
c-110 -4 -250 -26 -515 -82 -102 -22 -255 -11 -520 36 -230 40 -394 56 -486
46 -43 -5 -82 -7 -86 -5 -5 3 -8 15 -8 26 0 21 2 21 148 15 95 -4 220 -19 357
-42z m1292 -11 c-3 -3 -12 -4 -19 -1 -8 3 -5 6 6 6 11 1 17 -2 13 -5z m-1372
-29 c55 -8 168 -27 250 -42 214 -37 382 -38 520 -1 260 70 615 79 615 16 0
-29 -62 -118 -119 -171 -146 -135 -340 -197 -616 -197 -270 0 -546 57 -749
154 -73 35 -145 79 -211 131 -128 100 -135 111 -84 127 35 11 279 1 394 -17z
m-371 -93 c275 -217 547 -308 960 -319 339 -10 523 39 684 183 34 30 62 52 62
47 -1 -21 -105 -147 -157 -188 -105 -84 -263 -155 -407 -185 -173 -35 -314
-45 -454 -32 -156 14 -237 37 -367 101 -184 92 -308 220 -375 390 -11 28 -17
51 -14 51 3 0 34 -22 68 -48z"/>
<path d="M10493 1003 c15 -2 37 -2 50 0 12 2 0 4 -28 4 -27 0 -38 -2 -22 -4z"/>
<path d="M10655 984 c184 -28 302 -56 392 -94 51 -21 93 -37 93 -35 0 7 -91
52 -152 76 -58 23 -319 70 -383 68 -26 -1 -10 -6 50 -15z"/>
<path d="M11809 860 c95 -120 134 -224 106 -285 -8 -18 -7 -19 8 -6 45 36 5
169 -84 276 -56 68 -82 81 -30 15z"/>
<path d="M11238 780 c11 -19 22 -42 25 -50 4 -10 6 -8 6 7 1 12 -11 35 -25 50
l-26 28 20 -35z"/>
<path d="M11281 644 c0 -11 3 -14 6 -6 3 7 2 16 -1 19 -3 4 -6 -2 -5 -13z"/>
<path d="M11880 631 c0 -25 -35 -68 -72 -87 -16 -8 -28 -18 -25 -20 9 -10 64
25 91 56 26 31 35 70 16 70 -5 0 -10 -8 -10 -19z"/>
<path d="M11693 503 c9 -2 23 -2 30 0 6 3 -1 5 -18 5 -16 0 -22 -2 -12 -5z"/>
<path d="M11790 499 c-75 -30 -172 -42 -342 -43 -97 -1 -176 -2 -175 -3 1 0
42 -6 90 -12 138 -16 391 15 444 55 21 16 17 16 -17 3z"/>
<path d="M11095 494 c-82 -63 -229 -138 -316 -160 -34 -9 -109 -22 -168 -29
-77 -9 -93 -13 -56 -14 183 -4 375 59 525 174 49 38 100 86 89 84 -2 0 -35
-25 -74 -55z"/>
<path d="M9595 351 c33 -34 92 -82 130 -106 75 -47 247 -119 305 -129 19 -3 3
5 -35 18 -120 39 -282 129 -375 207 l-85 72 60 -62z"/>
<path d="M10010 154 c25 -8 65 -19 90 -24 25 -6 56 -13 70 -16 14 -3 22 -3 18
1 -8 8 -187 55 -208 54 -8 0 5 -7 30 -15z"/>
<path d="M10078 103 c7 -3 16 -2 19 1 4 3 -2 6 -13 5 -11 0 -14 -3 -6 -6z"/>
<path d="M10168 93 c7 -3 16 -2 19 1 4 3 -2 6 -13 5 -11 0 -14 -3 -6 -6z"/>
<path d="M10218 83 c6 -2 18 -2 25 0 6 3 1 5 -13 5 -14 0 -19 -2 -12 -5z"/>
</g>
</svg>
