<?xml version="1.0" standalone="no"?>
<!DOCTYPE svg PUBLIC "-//W3C//DTD SVG 20010904//EN"
 "http://www.w3.org/TR/2001/REC-SVG-20010904/DTD/svg10.dtd">
<svg version="1.0" xmlns="http://www.w3.org/2000/svg"
 width="740.000000pt" height="794.000000pt" viewBox="0 0 740.000000 794.000000"
 preserveAspectRatio="xMidYMid meet">

<g transform="translate(0.000000,794.000000) scale(0.100000,-0.100000)"
fill="#000000" stroke="none">
<path d="M3368 7176 c-51 -50 -71 -99 -59 -143 10 -38 37 -40 72 -7 33 31 42
66 37 143 l-3 55 -47 -48z"/>
<path d="M3980 7153 c0 -77 22 -125 65 -145 34 -15 50 1 50 51 0 43 -40 109
-87 142 l-28 20 0 -68z"/>
<path d="M3588 7168 c-101 -54 -158 -125 -158 -197 0 -35 24 -46 76 -37 49 10
90 50 113 110 21 58 42 156 32 156 -3 0 -32 -15 -63 -32z"/>
<path d="M3752 7148 c24 -128 71 -200 142 -214 56 -10 76 2 76 43 0 71 -64
144 -177 202 -23 11 -44 21 -46 21 -2 0 0 -23 5 -52z"/>
<path d="M3050 7098 c-34 -71 -39 -141 -15 -188 18 -34 18 -34 48 -19 39 20
57 51 57 101 0 47 -33 152 -51 163 -5 4 -23 -22 -39 -57z"/>
<path d="M4288 7113 c-27 -61 -35 -146 -17 -180 11 -21 55 -53 73 -53 14 0 36
64 36 107 0 44 -48 173 -65 173 -3 0 -16 -21 -27 -47z"/>
<path d="M2724 7011 c-38 -23 -51 -41 -30 -41 8 0 43 -23 77 -51 65 -55 93
-62 134 -35 48 31 23 97 -52 135 -33 17 -94 13 -129 -8z"/>
<path d="M4545 7018 c-72 -39 -97 -104 -52 -132 48 -30 62 -29 117 16 28 24
65 50 81 59 27 15 27 17 11 31 -43 38 -114 50 -157 26z"/>
<path d="M2951 7004 c0 -11 3 -14 6 -6 3 7 2 16 -1 19 -3 4 -6 -2 -5 -13z"/>
<path d="M4441 7004 c0 -11 3 -14 6 -6 3 7 2 16 -1 19 -3 4 -6 -2 -5 -13z"/>
<path d="M3222 6963 c-43 -103 -37 -159 24 -213 45 -39 69 -38 94 3 24 39 26
97 4 142 -17 37 -81 115 -94 115 -4 0 -17 -21 -28 -47z"/>
<path d="M4111 6975 c-70 -80 -89 -161 -51 -222 22 -37 43 -41 83 -14 47 31
62 60 60 121 -1 54 -35 150 -52 150 -5 0 -23 -16 -40 -35z"/>
<path d="M2550 6974 c-49 -21 -98 -60 -115 -94 -8 -16 -15 -54 -15 -85 0 -49
4 -60 33 -91 l33 -36 37 16 c57 23 71 65 56 166 -10 62 -10 85 0 106 6 15 10
28 9 29 -2 2 -19 -3 -38 -11z"/>
<path d="M4810 6985 c0 -3 5 -14 12 -25 10 -15 9 -38 0 -104 -11 -73 -10 -91
2 -121 19 -44 74 -72 105 -53 33 20 54 67 52 119 -2 87 -45 141 -145 179 -14
5 -26 7 -26 5z"/>
<path d="M2961 6970 c-1 -26 38 -160 58 -199 25 -48 81 -99 164 -151 87 -54
149 -126 177 -204 40 -110 76 -182 151 -297 104 -162 113 -198 97 -381 -10
-122 -23 -148 -74 -148 -48 0 -166 41 -272 94 -48 24 -131 58 -184 76 -53 17
-117 45 -143 62 -62 41 -120 126 -146 212 -46 154 -47 155 -105 187 -76 43
-113 92 -156 206 -21 54 -68 150 -104 213 -76 133 -76 132 6 -60 34 -80 72
-190 85 -244 26 -109 41 -136 105 -181 58 -41 69 -60 48 -81 -15 -15 -31 -16
-165 -6 -231 18 -329 49 -462 147 -63 46 -179 107 -231 120 -14 3 7 -11 45
-32 39 -21 115 -69 170 -108 182 -126 196 -135 262 -155 36 -11 129 -32 206
-46 185 -34 204 -44 270 -147 83 -127 140 -169 284 -208 253 -67 420 -218 468
-420 31 -133 5 -608 -40 -714 -24 -59 -70 -68 -176 -35 -124 38 -232 132 -500
435 -202 230 -232 258 -309 294 -54 25 -60 26 -270 26 -137 1 -230 5 -255 13
-71 21 -131 68 -221 174 -167 195 -240 254 -334 272 -35 7 -35 7 8 -13 63 -30
149 -117 267 -270 190 -246 185 -243 448 -281 306 -44 378 -83 503 -275 53
-82 179 -324 171 -331 -14 -14 -135 -25 -214 -20 -106 6 -142 -1 -332 -70
-193 -70 -210 -66 -535 123 -171 100 -356 188 -438 207 -89 22 -211 30 -278
18 l-55 -10 86 -1 c209 -3 501 -141 773 -366 47 -39 84 -74 83 -79 -2 -5 -52
-30 -113 -56 -60 -25 -173 -79 -251 -118 -183 -92 -263 -115 -410 -116 -80 -1
-105 -4 -90 -11 12 -5 90 -9 172 -9 147 -1 152 0 263 38 63 20 145 50 183 66
38 15 69 26 69 23 0 -11 -37 -74 -75 -128 -52 -73 -70 -116 -86 -198 -18 -94
-30 -110 -111 -152 -72 -38 -140 -98 -208 -185 l-35 -45 63 56 c37 33 106 79
171 113 116 60 152 92 172 153 6 21 27 70 47 108 123 247 269 383 442 415 287
52 456 74 555 74 108 1 112 0 255 -53 208 -76 280 -114 339 -175 59 -64 88
-118 140 -268 49 -143 55 -194 42 -333 -10 -99 -69 -476 -105 -679 -17 -91
-47 -140 -115 -190 -44 -32 -515 -326 -593 -370 l-37 -21 -88 23 c-127 32
-187 29 -350 -18 -76 -22 -153 -40 -171 -40 -80 0 -144 59 -214 197 -48 96
-70 122 -31 37 14 -31 31 -94 38 -141 15 -101 35 -133 96 -152 36 -12 40 -16
24 -22 -79 -31 -316 28 -397 99 -10 8 -18 10 -18 5 0 -17 117 -121 159 -143
49 -25 174 -40 327 -40 138 0 159 5 268 72 97 59 133 66 211 44 203 -57 137
-58 490 8 99 19 182 33 184 31 2 -2 -18 -29 -43 -59 -93 -108 -210 -178 -332
-199 -56 -10 -84 -8 -197 11 -170 28 -191 28 -316 -8 -79 -23 -124 -30 -190
-30 -82 0 -228 27 -272 50 -10 6 -19 8 -19 5 0 -7 140 -76 213 -105 50 -20 69
-22 135 -17 42 4 114 16 160 27 46 11 106 20 134 20 54 0 168 -27 168 -40 0
-4 -11 -15 -24 -23 -43 -29 -67 -80 -72 -159 l-6 -73 31 55 c65 116 122 143
331 161 146 12 195 31 280 104 141 123 297 187 275 113 -10 -33 -39 -62 -126
-129 -99 -75 -124 -106 -139 -171 -18 -77 -33 -95 -113 -132 -40 -18 -85 -48
-102 -65 -34 -37 -69 -47 -190 -57 -99 -8 -92 -14 45 -33 41 -6 84 -13 95 -16
15 -4 39 8 84 45 35 28 91 65 125 82 97 49 114 65 156 147 42 84 51 91 143
111 61 13 116 41 162 81 20 18 38 29 41 27 10 -11 -28 -144 -51 -180 -14 -21
-67 -71 -119 -112 -93 -74 -93 -75 -98 -126 -4 -38 -12 -58 -33 -80 -26 -27
-110 -62 -175 -73 -14 -2 -2 -5 25 -6 65 -1 213 17 237 30 24 13 45 55 53 111
4 28 16 55 29 67 19 18 95 51 116 51 13 0 40 -134 40 -198 0 -47 -5 -67 -26
-97 l-25 -38 43 25 c87 51 110 129 90 296 -11 81 -10 98 4 127 32 68 62 67 91
-3 11 -27 12 -49 2 -119 -12 -93 -6 -191 16 -232 13 -26 49 -57 92 -80 23 -11
22 -11 -2 25 -20 29 -25 49 -25 98 0 59 23 173 38 188 12 12 79 -11 110 -37
22 -19 32 -39 41 -85 20 -99 51 -116 231 -125 58 -2 96 -2 85 1 -169 44 -199
66 -213 158 -6 36 -16 62 -26 68 -45 25 -169 133 -191 166 -23 35 -60 170 -50
180 2 3 20 -9 40 -27 47 -41 103 -69 167 -82 86 -18 101 -31 140 -112 39 -81
55 -95 163 -150 39 -19 94 -56 124 -82 40 -34 60 -45 75 -41 21 6 96 19 191
32 l50 8 -80 7 c-155 15 -162 17 -219 67 -29 26 -77 55 -105 66 -61 22 -88 52
-97 112 -8 57 -36 97 -104 151 -118 94 -158 133 -163 158 -3 18 0 28 10 32 38
15 156 -49 263 -142 85 -73 134 -92 280 -104 209 -18 267 -46 330 -161 l30
-55 0 50 c0 76 -17 122 -61 166 -23 23 -39 42 -37 44 1 2 27 10 57 19 73 21
143 20 243 -4 46 -11 118 -23 160 -27 74 -6 82 -4 169 32 81 33 179 82 179 89
0 1 -33 -9 -72 -22 -53 -18 -103 -26 -184 -29 -103 -5 -120 -3 -221 26 -131
37 -150 38 -320 9 -114 -19 -140 -21 -199 -11 -107 19 -201 71 -294 165 -44
44 -80 84 -80 89 0 10 -13 12 260 -41 113 -22 221 -40 240 -40 19 0 81 11 138
25 57 14 116 25 131 25 45 0 106 -25 171 -72 l61 -43 136 -3 c159 -4 277 9
333 38 22 11 71 50 108 86 38 37 52 55 32 41 -61 -43 -100 -58 -197 -78 -100
-20 -155 -23 -188 -10 -17 7 -14 10 21 20 61 16 84 47 95 127 12 88 26 139 50
186 11 21 17 38 14 38 -3 0 -33 -57 -66 -126 -83 -170 -79 -168 -276 -126
-166 36 -269 41 -348 16 -27 -9 -79 -16 -115 -17 -77 -2 -52 -15 -428 216
-145 89 -284 181 -308 204 -57 55 -71 93 -95 248 -10 72 -28 180 -38 240 -38
214 -53 341 -54 445 -1 94 2 115 32 205 49 145 97 242 150 298 56 61 179 122
386 192 137 47 140 48 235 42 81 -5 223 -25 529 -77 170 -29 318 -165 439
-405 22 -44 45 -97 52 -118 19 -61 56 -94 169 -152 67 -34 132 -77 172 -112
l64 -58 -35 45 c-65 84 -135 146 -206 184 -83 43 -95 62 -119 179 -14 64 -27
93 -71 158 -50 74 -84 132 -84 143 0 3 32 -8 71 -24 162 -67 290 -102 395
-107 55 -3 127 -2 160 3 l59 8 -93 7 c-153 12 -231 34 -379 109 -120 61 -242
117 -357 164 l-39 16 24 26 c32 35 179 151 258 204 94 63 281 156 374 186 57
18 116 28 192 33 l110 7 -85 8 c-211 20 -357 -30 -739 -252 -190 -109 -264
-142 -323 -142 -25 0 -92 18 -158 41 -197 70 -241 79 -339 73 -74 -5 -205 7
-218 20 -8 7 118 249 172 331 65 98 142 177 199 204 63 29 148 49 303 71 262
37 267 40 460 295 104 138 193 227 255 256 43 20 43 20 8 13 -90 -17 -167 -77
-290 -224 -129 -154 -185 -201 -275 -225 -16 -5 -127 -9 -245 -9 -304 -1 -292
5 -570 -311 -269 -306 -384 -406 -509 -445 -106 -33 -152 -24 -177 35 -7 19
-23 107 -34 196 -24 193 -26 414 -5 512 43 202 203 350 460 423 157 45 208 82
292 211 66 103 87 114 271 148 239 43 246 46 482 211 47 32 117 76 155 97 39
21 59 35 45 32 -52 -13 -168 -74 -231 -120 -131 -96 -228 -128 -451 -146 -202
-17 -235 4 -131 83 72 54 87 81 112 193 11 52 47 154 85 243 36 84 66 156 66
160 -1 22 -134 -235 -165 -319 -40 -107 -85 -168 -144 -198 -56 -30 -81 -63
-100 -137 -35 -134 -90 -225 -168 -274 -25 -16 -89 -44 -142 -61 -53 -18 -136
-52 -186 -77 -112 -56 -217 -92 -267 -92 -61 0 -71 25 -76 190 -3 93 0 150 8
176 7 21 46 93 88 159 74 117 127 221 152 300 26 81 77 139 185 210 128 84
164 132 200 270 22 87 18 100 -9 22 -12 -37 -33 -79 -47 -93 -54 -57 -262
-170 -293 -158 -9 3 -32 41 -52 82 -19 42 -45 87 -57 101 -25 27 -76 51 -108
51 -18 0 -16 -5 18 -29 121 -88 149 -190 98 -365 -47 -163 -114 -261 -213
-314 l-61 -33 -52 26 c-103 53 -176 157 -223 319 -53 180 -19 291 114 379 24
17 24 17 2 17 -33 0 -84 -24 -109 -51 -12 -14 -38 -59 -58 -102 -20 -43 -43
-81 -50 -84 -35 -13 -265 120 -305 177 -12 18 -31 57 -41 88 -10 32 -18 50
-18 42z"/>
<path d="M3529 6804 c-41 -17 -69 -59 -69 -104 0 -31 0 -31 48 -28 l47 3 32
64 c18 36 38 68 45 73 23 14 -65 8 -103 -8z"/>
<path d="M3809 6748 l36 -73 50 0 c47 0 50 1 47 25 -7 71 -62 120 -135 120
l-34 0 36 -72z"/>
<path d="M2757 6782 c-16 -7 -14 -13 15 -62 44 -73 100 -105 183 -105 33 0 68
4 78 8 17 6 17 9 -2 46 -25 48 -80 94 -130 110 -42 12 -116 14 -144 3z"/>
<path d="M4492 6777 c-48 -18 -99 -63 -122 -108 -20 -37 -20 -40 -3 -46 10 -4
45 -8 78 -8 83 0 139 32 183 105 29 49 31 55 15 62 -28 11 -115 8 -151 -5z"/>
<path d="M2103 6706 c21 -128 145 -202 247 -147 39 21 48 48 29 92 -18 44 -55
59 -151 59 -62 0 -90 4 -107 17 l-24 16 6 -37z"/>
<path d="M2642 6688 c-69 -124 -85 -240 -42 -315 27 -49 43 -52 91 -20 67 44
85 128 53 238 -16 52 -60 149 -68 149 -3 0 -18 -24 -34 -52z"/>
<path d="M4696 6693 c-89 -176 -67 -330 52 -360 53 -13 92 93 72 194 -11 55
-73 198 -91 209 -5 2 -19 -17 -33 -43z"/>
<path d="M5276 6724 c-14 -9 -47 -14 -103 -14 -97 0 -134 -14 -152 -59 -19
-44 -10 -71 29 -93 46 -25 126 -19 171 13 34 24 82 117 77 148 -3 18 -5 18
-22 5z"/>
<path d="M3605 6618 c-4 -14 -33 -51 -66 -84 -65 -64 -74 -96 -44 -154 37 -72
153 -3 170 102 9 49 -1 88 -30 128 l-24 33 -6 -25z"/>
<path d="M3762 6606 c-49 -72 -38 -161 28 -220 28 -25 50 -36 71 -36 26 0 33
6 50 44 10 24 16 52 13 63 -4 10 -32 44 -62 75 -31 32 -61 69 -66 83 l-11 25
-23 -34z"/>
<path d="M1991 6565 c-30 -120 -23 -216 22 -279 23 -32 108 -76 148 -76 37 0
64 56 64 130 -1 91 -62 174 -182 246 l-41 24 -11 -45z"/>
<path d="M3055 6595 c-16 -9 -38 -24 -49 -33 -41 -36 -59 -128 -35 -174 11
-20 11 -20 26 2 9 12 45 35 82 51 36 17 72 37 79 46 14 19 16 81 4 101 -14 21
-74 25 -107 7z"/>
<path d="M4260 6603 c-23 -9 -30 -24 -30 -64 0 -48 14 -63 91 -98 37 -16 74
-39 83 -52 22 -32 31 -17 31 56 0 68 -15 99 -66 137 -26 20 -85 31 -109 21z"/>
<path d="M5324 6561 c-140 -98 -183 -202 -129 -315 19 -40 33 -43 99 -24 118
36 164 176 114 346 l-13 43 -71 -50z"/>
<path d="M1846 6515 c-17 -45 -3 -99 37 -142 30 -33 37 -29 37 22 0 50 -16 89
-48 118 -18 16 -20 16 -26 2z"/>
<path d="M5523 6507 c-11 -12 -26 -32 -32 -44 -13 -25 -15 -113 -3 -113 5 0
21 13 37 30 22 23 29 41 33 83 5 62 -6 76 -35 44z"/>
<path d="M2834 6365 c-54 -32 -74 -64 -74 -117 0 -60 9 -72 46 -58 52 20 64
38 64 96 0 29 4 64 10 78 12 32 6 32 -46 1z"/>
<path d="M4520 6371 c5 -11 10 -46 10 -79 0 -64 11 -81 64 -102 37 -14 46 -2
46 58 0 57 -12 77 -68 113 -54 34 -67 36 -52 10z"/>
<path d="M3103 6351 c-24 -4 -45 -10 -49 -14 -7 -7 26 -58 70 -106 37 -40 119
-81 161 -80 30 1 75 15 109 35 14 9 17 18 12 38 -9 36 -63 94 -103 111 -43 18
-144 26 -200 16z"/>
<path d="M4137 6346 c-58 -16 -94 -41 -124 -86 -32 -46 -29 -65 11 -84 82 -39
156 -28 226 31 50 43 105 122 94 133 -17 16 -157 20 -207 6z"/>
<path d="M2295 6317 c-4 -15 -5 -57 -3 -94 4 -57 8 -69 32 -90 34 -29 46 -26
61 13 18 45 1 105 -44 156 l-39 43 -7 -28z"/>
<path d="M5068 6313 c-55 -59 -75 -145 -45 -187 11 -15 17 -17 35 -7 39 21 54
56 54 126 0 35 -4 71 -9 80 -8 13 -13 11 -35 -12z"/>
<path d="M1710 6280 c-14 -4 -56 -22 -95 -40 -45 -22 -90 -35 -128 -38 l-59
-5 39 -39 c59 -61 106 -82 188 -82 80 0 155 29 188 75 17 24 18 29 4 55 -31
61 -85 90 -137 74z"/>
<path d="M5620 6272 c-31 -15 -80 -72 -80 -93 0 -4 11 -21 25 -37 36 -42 97
-65 180 -65 82 0 129 20 188 81 l39 39 -59 5 c-39 3 -83 16 -133 40 -98 47
-119 51 -160 30z"/>
<path d="M2972 6213 c-81 -39 -121 -126 -102 -219 6 -30 14 -54 16 -54 3 0 18
7 33 14 42 22 89 81 101 127 11 41 5 135 -9 143 -4 3 -21 -2 -39 -11z"/>
<path d="M4386 6212 c-24 -84 -13 -152 36 -208 26 -30 75 -64 92 -64 2 0 10
24 16 54 15 73 -1 137 -47 181 -45 43 -90 61 -97 37z"/>
<path d="M3408 6144 c-37 -20 -44 -55 -23 -110 l17 -46 18 30 c10 16 24 33 30
37 24 15 31 56 15 81 -18 28 -21 28 -57 8z"/>
<path d="M3935 6136 c-16 -25 -9 -66 15 -81 6 -4 20 -21 30 -37 l18 -30 17 46
c22 56 14 91 -25 111 -37 19 -37 19 -55 -9z"/>
<path d="M3123 6112 c8 -31 5 -51 -22 -128 -17 -50 -31 -101 -31 -112 0 -36
21 -70 61 -98 35 -24 42 -25 69 -14 65 27 102 123 81 212 -19 82 -66 138 -142
167 -26 9 -26 9 -16 -27z"/>
<path d="M4250 6134 c-89 -38 -150 -145 -136 -236 10 -59 42 -115 77 -133 37
-20 57 -14 103 31 46 44 46 70 5 189 -27 77 -30 95 -22 128 6 20 10 37 9 37
-1 -1 -17 -8 -36 -16z"/>
<path d="M1928 6092 c-14 -9 -36 -30 -48 -44 -19 -25 -80 -149 -80 -164 0 -3
14 8 31 25 34 35 45 38 141 44 38 3 79 12 92 21 26 16 41 63 31 95 -12 40
-119 55 -167 23z"/>
<path d="M5338 6099 c-33 -13 -45 -56 -26 -96 16 -35 63 -52 143 -52 48 -1 68
-6 98 -26 20 -14 37 -31 37 -37 0 -6 3 -9 6 -6 7 8 -50 132 -76 166 -46 58
-112 76 -182 51z"/>
<path d="M1316 6033 c-18 -53 -20 -112 -6 -165 10 -35 92 -138 111 -138 4 0
16 26 25 57 19 67 14 134 -15 190 -22 44 -73 103 -89 103 -6 0 -17 -21 -26
-47z"/>
<path d="M6019 6048 c-70 -75 -92 -167 -65 -262 9 -31 20 -56 24 -56 16 0 92
87 107 122 8 21 15 59 15 86 0 53 -26 142 -42 142 -5 0 -23 -15 -39 -32z"/>
<path d="M2206 5976 c-109 -41 -173 -175 -135 -285 10 -28 29 -43 29 -22 0 21
58 62 131 91 98 40 119 64 119 134 0 29 -6 60 -12 69 -18 23 -85 30 -132 13z"/>
<path d="M5095 5983 c-32 -8 -45 -33 -45 -89 0 -70 21 -94 121 -134 50 -20 94
-46 114 -67 l33 -34 11 32 c35 101 -15 225 -110 275 -31 16 -95 25 -124 17z"/>
<path d="M1642 5955 c-70 -59 -119 -159 -107 -216 10 -43 81 -119 111 -119 14
0 40 15 60 33 54 49 57 101 11 203 -19 44 -37 90 -39 103 l-3 24 -33 -28z"/>
<path d="M5720 5960 c0 -12 -16 -59 -36 -103 -47 -103 -44 -154 10 -204 46
-43 74 -42 119 4 48 47 63 95 48 151 -12 44 -79 134 -118 160 -22 13 -23 13
-23 -8z"/>
<path d="M2515 5901 c-16 -10 -46 -35 -64 -55 l-35 -36 30 -2 c56 -3 109 4
140 18 35 17 60 55 51 78 -9 23 -84 21 -122 -3z"/>
<path d="M3437 5894 c-10 -13 -43 -42 -73 -64 -44 -33 -54 -46 -54 -70 0 -40
20 -80 39 -80 27 0 79 38 95 69 19 36 31 133 20 154 -8 13 -12 11 -27 -9z"/>
<path d="M3934 5894 c-8 -32 4 -112 22 -147 16 -30 68 -67 95 -67 16 0 32 25
44 68 5 19 -1 30 -30 55 -21 18 -57 51 -81 73 -44 41 -44 41 -50 18z"/>
<path d="M4767 5913 c-14 -14 -6 -40 21 -66 31 -30 105 -48 158 -40 l33 5 -22
30 c-32 43 -96 78 -144 78 -22 0 -43 -3 -46 -7z"/>
<path d="M1861 5744 c-87 -95 -113 -169 -91 -251 13 -44 75 -123 97 -123 5 0
29 14 52 31 90 65 105 188 40 330 -18 38 -35 69 -39 69 -5 0 -31 -25 -59 -56z"/>
<path d="M2565 5776 c-59 -27 -150 -105 -138 -117 19 -19 129 -49 179 -49 64
0 100 13 137 48 43 40 61 80 46 98 -41 49 -143 58 -224 20z"/>
<path d="M4644 5781 c-43 -26 -47 -36 -30 -69 22 -43 81 -90 122 -98 54 -10
143 1 198 25 l49 22 -39 40 c-86 88 -226 125 -300 80z"/>
<path d="M5440 5728 c-44 -100 -51 -195 -18 -258 13 -25 41 -57 65 -74 40 -28
43 -28 67 -12 15 9 38 35 54 58 35 54 37 142 5 204 -22 42 -119 154 -133 154
-4 0 -22 -32 -40 -72z"/>
<path d="M1132 5768 c8 -25 71 -58 109 -58 74 0 88 19 37 50 -39 23 -153 29
-146 8z"/>
<path d="M6123 5760 c-52 -31 -38 -50 36 -50 38 0 101 33 109 58 7 21 -107 15
-145 -8z"/>
<path d="M1290 5635 c-19 -7 -68 -27 -109 -45 -55 -24 -85 -31 -117 -28 -24 2
-44 0 -44 -3 0 -16 101 -98 136 -110 90 -30 213 -8 269 51 25 26 27 32 16 58
-16 38 -59 78 -91 85 -14 3 -41 0 -60 -8z"/>
<path d="M6045 5643 c-28 -7 -71 -49 -86 -85 -10 -26 -9 -32 12 -55 58 -63
210 -89 289 -49 33 17 120 94 120 106 0 3 -26 5 -58 6 -43 1 -75 9 -132 36
-82 38 -114 48 -145 41z"/>
<path d="M2845 5629 c-11 -7 -43 -34 -72 -60 -28 -27 -58 -49 -65 -49 -29 -2
87 -52 131 -57 76 -9 119 21 141 98 7 22 4 32 -15 49 -27 25 -91 35 -120 19z"/>
<path d="M4470 5633 c-8 -3 -25 -14 -37 -25 -17 -16 -19 -25 -13 -48 21 -74
70 -107 145 -97 43 6 154 56 127 57 -7 0 -37 22 -65 49 -67 63 -110 81 -157
64z"/>
<path d="M2412 5462 c3 -81 8 -107 29 -148 44 -85 138 -125 159 -68 15 39 12
122 -6 160 -20 42 -89 106 -144 134 l-42 22 4 -100z"/>
<path d="M4950 5540 c-54 -28 -119 -88 -140 -131 -23 -43 -26 -124 -8 -164 14
-31 49 -33 94 -6 64 39 97 129 92 248 l-3 71 -35 -18z"/>
<path d="M5131 5505 c-63 -72 -83 -151 -52 -208 17 -32 35 -34 79 -7 37 23 40
44 16 127 -9 30 -14 70 -12 89 2 19 3 34 2 34 -1 0 -16 -16 -33 -35z"/>
<path d="M2240 5500 c0 -19 -7 -60 -16 -91 -9 -32 -14 -69 -10 -83 6 -25 50
-56 79 -56 15 0 47 67 47 98 0 27 -47 115 -75 142 l-25 23 0 -33z"/>
<path d="M2080 5474 c-64 -36 -80 -60 -80 -121 0 -28 5 -55 10 -58 16 -10 79
15 90 35 6 10 10 41 10 69 0 27 4 61 10 75 5 14 8 26 7 26 -1 0 -22 -12 -47
-26z"/>
<path d="M5280 5480 c5 -10 10 -44 10 -75 0 -71 10 -90 56 -105 46 -15 57 -5
57 52 0 65 -39 112 -116 141 -15 5 -16 4 -7 -13z"/>
<path d="M3085 5472 c-53 -34 -147 -153 -133 -168 3 -2 32 -9 64 -14 125 -21
208 22 234 119 15 58 0 73 -77 78 -45 3 -65 0 -88 -15z"/>
<path d="M4167 5474 c-18 -10 -26 -21 -23 -32 2 -9 7 -31 11 -48 10 -52 68
-96 140 -108 35 -6 141 7 152 18 16 16 -89 146 -138 172 -36 18 -106 17 -142
-2z"/>
<path d="M1429 5407 c-55 -23 -179 -104 -179 -117 0 -14 118 -43 190 -48 96
-5 151 10 195 54 l36 35 -22 31 c-25 35 -90 68 -134 68 -16 0 -55 -11 -86 -23z"/>
<path d="M5813 5411 c-49 -23 -78 -61 -68 -91 4 -11 25 -33 48 -48 37 -25 49
-27 136 -27 91 0 221 27 221 45 0 13 -123 94 -179 117 -68 27 -103 28 -158 4z"/>
<path d="M3323 5394 c-24 -24 -25 -30 -21 -95 4 -54 1 -78 -12 -104 l-18 -35
50 27 c92 50 116 107 82 193 -19 48 -43 52 -81 14z"/>
<path d="M3996 5380 c-36 -91 -8 -147 103 -204 l33 -18 -16 23 c-12 17 -16 47
-16 110 0 83 -1 89 -26 108 -40 32 -60 27 -78 -19z"/>
<path d="M2728 5356 c3 -30 -6 -72 -27 -134 -30 -85 -31 -93 -17 -126 13 -32
77 -86 103 -86 20 0 75 53 89 87 22 51 18 141 -8 193 -24 46 -97 110 -126 110
-14 0 -17 -8 -14 -44z"/>
<path d="M4598 5367 c-58 -44 -88 -105 -88 -179 0 -32 6 -73 14 -91 14 -35 69
-87 90 -87 24 0 80 45 100 79 l19 34 -32 98 c-23 67 -32 111 -29 139 5 51 -13
53 -74 7z"/>
<path d="M920 5196 c0 -63 27 -109 80 -138 l35 -18 3 51 c2 35 -2 60 -15 82
-18 30 -75 77 -94 77 -5 0 -9 -24 -9 -54z"/>
<path d="M6422 5224 c-44 -35 -62 -73 -62 -133 l0 -50 29 10 c61 21 104 97 93
167 -5 39 -17 40 -60 6z"/>
<path d="M1675 5220 c-36 -15 -83 -74 -115 -142 -32 -71 -38 -94 -17 -67 29
38 71 54 154 60 58 4 88 10 102 23 23 21 32 62 21 92 -14 36 -96 55 -145 34z"/>
<path d="M5613 5216 c-23 -10 -33 -22 -34 -38 -4 -82 16 -100 124 -107 82 -6
123 -22 155 -60 11 -14 12 -13 6 9 -13 50 -63 136 -97 169 -42 39 -103 50
-154 27z"/>
<path d="M1150 5113 c-7 -16 -15 -58 -18 -95 -4 -59 -1 -74 22 -122 25 -50 75
-106 96 -106 32 0 44 168 17 231 -15 36 -83 119 -97 119 -4 0 -13 -12 -20 -27z"/>
<path d="M6193 5108 c-46 -49 -74 -112 -76 -171 -2 -54 19 -147 34 -147 19 0
70 55 93 102 19 38 26 68 26 110 0 54 -24 138 -39 138 -4 0 -21 -15 -38 -32z"/>
<path d="M2029 5080 c-36 -10 -82 -46 -109 -82 l-22 -30 80 3 c73 4 84 7 110
33 44 41 46 63 9 75 -34 12 -32 12 -68 1z"/>
<path d="M3020 5081 c-83 -26 -120 -68 -120 -139 0 -32 5 -41 25 -50 79 -36
170 10 267 132 30 37 36 51 26 57 -16 11 -164 10 -198 0z"/>
<path d="M4182 5082 c-10 -7 -4 -20 26 -58 96 -121 184 -166 266 -134 22 8 26
16 26 52 0 97 -62 140 -210 145 -52 2 -101 0 -108 -5z"/>
<path d="M5298 5077 c-25 -11 -27 -14 -15 -37 24 -47 73 -70 149 -70 l69 0
-22 30 c-49 65 -130 100 -181 77z"/>
<path d="M2276 4969 c-46 -21 -79 -30 -102 -27 -19 2 -34 2 -34 0 0 -15 61
-78 95 -97 75 -44 177 -26 216 39 24 40 24 49 -4 81 -35 41 -87 42 -171 4z"/>
<path d="M4960 4972 c-35 -36 -36 -46 -11 -88 39 -65 141 -83 216 -39 34 19
95 82 95 97 0 2 -15 2 -34 0 -22 -3 -53 5 -91 23 -32 15 -77 30 -101 33 -38 4
-47 1 -74 -26z"/>
<path d="M832 4982 l-22 -7 21 -43 c28 -56 80 -98 141 -112 49 -12 133 -6 143
10 10 16 -60 105 -103 128 -45 25 -138 37 -180 24z"/>
<path d="M6427 4976 c-20 -8 -52 -25 -70 -38 -38 -30 -82 -104 -67 -113 21
-13 107 -17 148 -5 51 13 123 79 139 127 11 30 10 31 -19 37 -46 9 -89 7 -131
-8z"/>
<path d="M1442 4959 c-73 -36 -106 -101 -83 -163 10 -24 15 -27 39 -22 47 12
72 50 72 112 0 31 5 64 10 75 13 23 14 24 -38 -2z"/>
<path d="M5920 4961 c5 -11 10 -44 10 -75 0 -66 27 -105 75 -109 26 -2 31 2
39 35 16 63 -27 127 -107 157 -25 10 -27 9 -17 -8z"/>
<path d="M1592 4916 c-49 -53 -62 -82 -62 -138 0 -32 7 -47 34 -74 41 -41 55
-42 95 -8 46 38 49 78 13 160 -17 38 -32 77 -34 88 -2 15 -10 11 -46 -28z"/>
<path d="M5760 4945 c0 -11 -12 -45 -26 -75 -15 -30 -27 -74 -28 -98 -1 -37 4
-48 32 -73 40 -36 54 -36 92 -1 35 31 50 82 38 129 -11 42 -107 147 -108 118z"/>
<path d="M3085 4861 c-22 -10 -48 -28 -59 -39 -17 -20 -18 -23 -2 -47 24 -37
58 -41 128 -15 42 15 74 21 101 17 l39 -5 -33 34 c-31 32 -103 74 -125 74 -5
0 -27 -9 -49 -19z"/>
<path d="M4235 4869 c-16 -4 -52 -28 -80 -53 l-50 -44 41 5 c28 4 60 -2 102
-17 70 -26 104 -22 128 15 16 24 15 27 -2 46 -37 41 -95 61 -139 48z"/>
<path d="M1823 4828 c-93 -97 -104 -194 -30 -266 l32 -32 33 20 c56 34 74 74
69 155 -4 65 -38 165 -56 165 -4 0 -25 -19 -48 -42z"/>
<path d="M5499 4818 c-32 -75 -37 -172 -10 -216 12 -18 35 -41 53 -52 l33 -20
32 32 c74 72 63 169 -30 266 -23 23 -44 42 -48 42 -4 0 -17 -24 -30 -52z"/>
<path d="M2505 4826 c-17 -7 -43 -28 -58 -45 -37 -45 -36 -97 4 -181 31 -64
32 -64 43 -39 6 14 30 47 53 74 65 73 74 134 26 187 -19 21 -28 22 -68 4z"/>
<path d="M4826 4821 c-46 -51 -36 -116 29 -189 25 -27 49 -60 54 -73 8 -22 11
-19 40 41 40 84 41 136 4 181 -24 28 -77 59 -101 59 -5 0 -16 -8 -26 -19z"/>
<path d="M2056 4778 c-10 -37 -7 -150 5 -193 6 -22 28 -56 49 -77 32 -33 44
-38 82 -38 38 0 46 4 56 25 18 38 15 91 -7 134 -19 35 -154 171 -171 171 -4 0
-10 -10 -14 -22z"/>
<path d="M5310 4783 c-47 -31 -132 -118 -151 -155 -22 -42 -25 -95 -7 -133 9
-21 18 -25 51 -25 93 0 138 65 145 206 2 51 0 99 -5 108 -8 15 -11 15 -33 -1z"/>
<path d="M966 4726 c-79 -29 -145 -121 -146 -201 0 -40 17 -115 26 -115 2 0
18 15 34 34 20 22 57 45 109 66 103 41 121 61 121 131 0 30 -6 63 -12 72 -18
23 -85 30 -132 13z"/>
<path d="M6335 4733 c-32 -7 -45 -33 -45 -89 0 -70 21 -94 120 -134 53 -21 90
-44 110 -66 16 -19 31 -34 34 -34 10 0 26 67 26 109 -1 129 -129 241 -245 214z"/>
<path d="M1255 4612 c-39 -24 -90 -82 -115 -131 l-19 -39 31 -6 c17 -3 59 -6
95 -6 86 0 134 25 162 83 29 59 27 91 -4 105 -39 18 -116 15 -150 -6z"/>
<path d="M5996 4618 c-26 -10 -28 -13 -22 -51 9 -56 33 -91 79 -117 34 -20 50
-22 128 -18 49 2 91 7 95 11 16 16 -89 147 -137 173 -32 16 -101 17 -143 2z"/>
<path d="M1528 4464 c-18 -20 -46 -44 -62 -54 l-28 -18 54 -12 c66 -15 117 -2
148 37 38 48 17 83 -49 83 -21 0 -39 -10 -63 -36z"/>
<path d="M5758 4489 c-40 -23 -4 -89 59 -110 28 -9 48 -9 91 1 l54 12 -28 18
c-16 9 -43 34 -61 54 -24 28 -39 36 -65 36 -18 0 -41 -5 -50 -11z"/>
<path d="M1390 4303 c-25 -15 -60 -32 -79 -39 l-34 -11 54 -41 c93 -69 156
-74 215 -15 42 41 43 66 5 104 -39 39 -98 40 -161 2z"/>
<path d="M5857 4310 c-34 -27 -41 -53 -23 -88 21 -41 63 -65 112 -64 49 0 84
17 139 66 31 28 36 35 21 36 -11 0 -47 16 -82 35 -73 41 -127 46 -167 15z"/>
<path d="M2428 4295 c-30 -16 -73 -99 -84 -159 l-7 -38 24 15 c13 8 52 17 87
21 34 3 76 13 93 22 31 15 59 65 59 104 0 42 -115 65 -172 35z"/>
<path d="M4833 4295 c-37 -16 -41 -36 -19 -90 19 -44 61 -65 147 -72 38 -3 72
-10 75 -14 3 -5 10 -9 16 -9 33 0 -39 163 -82 185 -36 19 -95 19 -137 0z"/>
<path d="M735 4254 c4 -16 19 -54 33 -84 22 -44 36 -60 72 -77 57 -29 108 -29
151 0 39 26 46 47 28 88 -18 45 -55 59 -152 59 -71 0 -89 3 -111 21 l-27 21 6
-28z"/>
<path d="M2650 4260 c-18 -18 -20 -32 -19 -104 2 -66 -2 -90 -15 -111 l-17
-26 41 23 c23 13 57 40 76 61 39 42 43 74 18 137 -19 46 -50 54 -84 20z"/>
<path d="M4666 4240 c-9 -22 -16 -54 -16 -70 0 -37 45 -90 105 -124 l44 -24
-16 24 c-11 18 -15 46 -14 109 1 73 -1 87 -19 105 -34 34 -65 26 -84 -20z"/>
<path d="M6641 4259 c-19 -15 -39 -19 -107 -19 -46 0 -94 -5 -108 -11 -27 -13
-59 -70 -54 -96 11 -57 143 -79 206 -34 18 12 41 39 51 59 18 35 43 113 38
118 -1 1 -13 -6 -26 -17z"/>
<path d="M1063 4263 c-28 -5 -28 -5 -4 -52 25 -48 79 -95 127 -111 34 -12 139
-9 151 4 12 12 -22 69 -63 105 -58 51 -131 69 -211 54z"/>
<path d="M6213 4259 c-48 -11 -124 -74 -143 -119 -7 -17 -10 -33 -7 -36 3 -3
33 -8 66 -11 52 -5 68 -2 113 21 51 25 97 75 112 122 5 18 2 22 -25 28 -39 8
-62 6 -116 -5z"/>
<path d="M1954 4159 c-23 -11 -50 -29 -59 -39 -17 -18 -16 -21 14 -51 28 -27
36 -30 68 -24 21 4 50 13 66 22 18 9 47 13 73 11 l43 -3 -32 34 c-29 30 -97
70 -122 71 -5 0 -29 -9 -51 -21z"/>
<path d="M5345 4161 c-22 -10 -55 -34 -72 -53 l-33 -33 40 3 c23 2 61 -4 95
-17 73 -27 81 -27 117 9 29 30 30 32 13 50 -18 20 -93 60 -111 60 -5 0 -27 -9
-49 -19z"/>
<path d="M1791 4014 c-41 -52 -18 -131 59 -199 29 -26 53 -73 46 -91 -10 -27
2 -14 35 38 29 44 34 61 34 113 0 52 -4 67 -28 98 -31 41 -47 51 -93 61 -27 6
-35 3 -53 -20z"/>
<path d="M5545 4033 c-58 -15 -115 -91 -115 -155 0 -34 36 -119 65 -153 9 -11
14 -15 11 -8 -10 19 13 66 53 108 21 22 45 51 55 65 22 34 20 92 -5 124 -21
26 -27 28 -64 19z"/>
<path d="M1442 3995 c-51 -22 -65 -81 -36 -154 l16 -40 54 54 c58 58 68 91 38
133 -18 25 -27 26 -72 7z"/>
<path d="M5886 3988 c-30 -43 -18 -79 50 -145 l43 -41 15 39 c31 77 17 131
-39 155 -45 19 -51 18 -69 -8z"/>
<path d="M954 3980 c-68 -15 -146 -85 -188 -167 -20 -39 -13 -43 90 -43 111 0
167 28 205 102 24 46 24 85 2 96 -29 15 -76 20 -109 12z"/>
<path d="M6377 3980 c-51 -9 -61 -21 -53 -63 10 -52 46 -99 96 -124 35 -18 61
-23 125 -23 100 0 114 7 89 46 -79 127 -162 180 -257 164z"/>
<path d="M1213 3938 c-11 -13 -25 -37 -32 -54 -7 -18 -21 -41 -32 -53 l-20
-21 41 0 c22 0 56 6 75 14 57 24 98 115 59 130 -33 12 -71 6 -91 -16z"/>
<path d="M6090 3950 c-13 -8 -13 -14 0 -51 20 -57 56 -81 126 -87 l57 -5 -21
23 c-11 12 -26 36 -33 54 -26 67 -82 96 -129 66z"/>
<path d="M1064 3755 c11 -57 46 -116 86 -143 30 -20 44 -23 98 -20 50 3 67 9
87 28 22 24 23 27 10 63 -22 64 -60 79 -182 75 -49 -2 -66 2 -84 17 l-22 20 7
-40z"/>
<path d="M6316 3768 c-10 -6 -61 -11 -112 -12 -86 -1 -96 -3 -119 -26 -14 -14
-29 -40 -34 -57 -8 -27 -6 -35 14 -53 63 -59 187 -36 236 43 19 31 44 106 37
112 -2 2 -12 -1 -22 -7z"/>
<path d="M1661 3720 c-26 -60 -27 -122 -2 -175 22 -47 85 -110 100 -101 19 12
43 115 36 154 -9 51 -54 130 -86 153 l-27 19 -21 -50z"/>
<path d="M5682 3740 c-39 -39 -67 -91 -76 -143 -8 -41 16 -141 35 -153 15 -9
78 54 100 101 25 54 24 119 -4 179 l-23 49 -32 -33z"/>
<path d="M975 3557 c-51 -28 -85 -92 -85 -160 l0 -48 21 20 c14 13 42 22 78
26 90 10 137 31 155 69 24 51 20 74 -16 96 -43 26 -103 25 -153 -3z"/>
<path d="M1511 3554 c-13 -17 -21 -41 -21 -66 0 -31 8 -47 42 -84 l41 -45 23
70 c19 57 21 76 12 101 -18 54 -65 65 -97 24z"/>
<path d="M5817 3568 c-30 -24 -38 -64 -21 -111 9 -23 19 -54 22 -69 7 -25 8
-26 27 -10 66 55 84 125 44 176 -22 28 -46 33 -72 14z"/>
<path d="M6280 3562 c-30 -15 -35 -22 -33 -51 3 -73 46 -103 165 -116 40 -4
64 -13 83 -31 l27 -25 -7 53 c-10 79 -43 139 -90 165 -48 27 -98 29 -145 5z"/>
<path d="M1320 3474 c-90 -76 -79 -195 25 -273 22 -17 42 -31 45 -31 4 0 4 15
2 33 -2 21 6 56 22 95 36 86 35 125 -8 168 -19 19 -39 34 -44 34 -6 0 -24 -12
-42 -26z"/>
<path d="M5994 3466 c-43 -43 -44 -82 -8 -168 16 -39 24 -74 22 -95 -2 -18 -1
-33 2 -33 13 0 79 56 102 85 19 24 23 42 23 98 0 68 -1 69 -42 108 -23 21 -47
39 -54 39 -6 0 -26 -15 -45 -34z"/>
<path d="M1115 3361 c-48 -22 -89 -64 -109 -111 -17 -43 -30 -125 -22 -139 9
-14 101 21 134 51 44 41 69 117 63 196 -1 27 -14 27 -66 3z"/>
<path d="M6217 3361 c-7 -27 9 -114 27 -150 20 -37 70 -76 123 -95 47 -16 53
-13 53 24 0 88 -61 188 -135 221 -51 23 -62 23 -68 0z"/>
<path d="M1204 3195 c-22 -34 -43 -94 -44 -126 0 -44 28 -123 58 -158 l29 -35
28 49 c51 87 43 196 -20 268 -29 33 -31 33 -51 2z"/>
<path d="M6147 3192 c-72 -75 -76 -202 -8 -288 l19 -25 26 34 c59 77 69 172
27 256 -27 53 -33 55 -64 23z"/>
<path d="M1356 2949 c-36 -43 -33 -81 14 -175 28 -54 39 -86 35 -102 l-6 -24
31 22 c44 31 83 104 83 154 0 55 -28 111 -68 136 -44 27 -59 25 -89 -11z"/>
<path d="M5958 2963 c-46 -29 -72 -90 -69 -164 1 -31 45 -99 83 -128 l26 -21
0 33 c0 17 16 63 36 100 43 83 46 124 10 166 -29 35 -47 38 -86 14z"/>
<path d="M1177 2836 c-51 -47 -48 -103 9 -166 41 -46 54 -50 54 -17 1 12 7 33
15 47 15 26 20 87 9 115 -4 8 -19 22 -34 30 -26 13 -30 13 -53 -9z"/>
<path d="M6152 2830 c-28 -27 -28 -71 0 -145 l21 -56 29 28 c60 57 71 106 38
161 -23 38 -55 42 -88 12z"/>
<path d="M1315 2610 c-10 -31 3 -59 35 -75 16 -8 31 -15 33 -15 4 0 -1 51 -9
88 -6 29 -50 31 -59 2z"/>
<path d="M6038 2610 c-9 -6 -19 -24 -22 -40 -3 -17 -9 -43 -12 -60 l-5 -29 33
11 c42 14 78 46 78 70 0 48 -33 70 -72 48z"/>
</g>
</svg>
